<mxfile host="app.diagrams.net" agent="Mozilla/5.0 (Windows NT 10.0; Win64; x64) AppleWebKit/537.36 (KHTML, like Gecko) Chrome/134.0.0.0 Safari/537.36" version="26.1.2" pages="2">
  <diagram name="работа11" id="Fo6u1KM2Q9FMDop-q2kD">
    <mxGraphModel dx="651" dy="816" grid="1" gridSize="10" guides="1" tooltips="1" connect="1" arrows="1" fold="1" page="1" pageScale="1" pageWidth="1200" pageHeight="1920" math="0" shadow="0">
      <root>
        <mxCell id="0" />
        <mxCell id="1" parent="0" />
        <mxCell id="yVsl_0q2GCfbYqzO1dNI-3" value="" style="edgeStyle=orthogonalEdgeStyle;rounded=0;orthogonalLoop=1;jettySize=auto;html=1;" parent="1" source="yVsl_0q2GCfbYqzO1dNI-1" target="yVsl_0q2GCfbYqzO1dNI-2" edge="1">
          <mxGeometry relative="1" as="geometry" />
        </mxCell>
        <mxCell id="yVsl_0q2GCfbYqzO1dNI-1" value="черновик" style="rounded=0;whiteSpace=wrap;html=1;" parent="1" vertex="1">
          <mxGeometry x="480" y="430" width="120" height="60" as="geometry" />
        </mxCell>
        <mxCell id="yVsl_0q2GCfbYqzO1dNI-5" value="" style="edgeStyle=orthogonalEdgeStyle;rounded=0;orthogonalLoop=1;jettySize=auto;html=1;" parent="1" source="yVsl_0q2GCfbYqzO1dNI-2" target="yVsl_0q2GCfbYqzO1dNI-4" edge="1">
          <mxGeometry relative="1" as="geometry" />
        </mxCell>
        <mxCell id="yVsl_0q2GCfbYqzO1dNI-2" value="отправлен" style="whiteSpace=wrap;html=1;rounded=0;" parent="1" vertex="1">
          <mxGeometry x="680" y="500" width="120" height="60" as="geometry" />
        </mxCell>
        <mxCell id="yVsl_0q2GCfbYqzO1dNI-7" value="" style="edgeStyle=orthogonalEdgeStyle;rounded=0;orthogonalLoop=1;jettySize=auto;html=1;" parent="1" source="yVsl_0q2GCfbYqzO1dNI-4" target="yVsl_0q2GCfbYqzO1dNI-6" edge="1">
          <mxGeometry relative="1" as="geometry" />
        </mxCell>
        <mxCell id="O3xLdMQDU0YFKIrrOP0n-2" style="edgeStyle=orthogonalEdgeStyle;rounded=0;orthogonalLoop=1;jettySize=auto;html=1;entryX=0.5;entryY=0;entryDx=0;entryDy=0;" edge="1" parent="1" source="yVsl_0q2GCfbYqzO1dNI-4" target="yVsl_0q2GCfbYqzO1dNI-8">
          <mxGeometry relative="1" as="geometry" />
        </mxCell>
        <mxCell id="yVsl_0q2GCfbYqzO1dNI-4" value="на проверке" style="whiteSpace=wrap;html=1;rounded=0;" parent="1" vertex="1">
          <mxGeometry x="490" y="580" width="120" height="50" as="geometry" />
        </mxCell>
        <mxCell id="yVsl_0q2GCfbYqzO1dNI-6" value="принят" style="whiteSpace=wrap;html=1;rounded=0;" parent="1" vertex="1">
          <mxGeometry x="690" y="650" width="120" height="60" as="geometry" />
        </mxCell>
        <mxCell id="yVsl_0q2GCfbYqzO1dNI-8" value="отклонен" style="whiteSpace=wrap;html=1;rounded=0;" parent="1" vertex="1">
          <mxGeometry x="490" y="740" width="120" height="60" as="geometry" />
        </mxCell>
        <mxCell id="yVsl_0q2GCfbYqzO1dNI-12" value="Диаграмма деятельности:&lt;br&gt;состояние отчета" style="text;html=1;align=center;verticalAlign=middle;resizable=0;points=[];autosize=1;strokeColor=none;fillColor=none;" parent="1" vertex="1">
          <mxGeometry x="560" y="375" width="170" height="40" as="geometry" />
        </mxCell>
        <mxCell id="yVsl_0q2GCfbYqzO1dNI-13" value="&lt;br&gt;Диаграмма состояний: студент выполняет задание&lt;br&gt;&lt;div&gt;&lt;br&gt;&lt;/div&gt;" style="text;html=1;align=center;verticalAlign=middle;whiteSpace=wrap;rounded=0;" parent="1" vertex="1">
          <mxGeometry x="110" y="390" width="140" height="30" as="geometry" />
        </mxCell>
        <mxCell id="yVsl_0q2GCfbYqzO1dNI-16" value="" style="edgeStyle=orthogonalEdgeStyle;rounded=0;orthogonalLoop=1;jettySize=auto;html=1;" parent="1" source="yVsl_0q2GCfbYqzO1dNI-14" target="yVsl_0q2GCfbYqzO1dNI-15" edge="1">
          <mxGeometry relative="1" as="geometry" />
        </mxCell>
        <mxCell id="yVsl_0q2GCfbYqzO1dNI-14" value="Открыть задание" style="rounded=0;whiteSpace=wrap;html=1;" parent="1" vertex="1">
          <mxGeometry x="120" y="440" width="120" height="60" as="geometry" />
        </mxCell>
        <mxCell id="yVsl_0q2GCfbYqzO1dNI-18" value="" style="edgeStyle=orthogonalEdgeStyle;rounded=0;orthogonalLoop=1;jettySize=auto;html=1;" parent="1" source="yVsl_0q2GCfbYqzO1dNI-15" target="yVsl_0q2GCfbYqzO1dNI-17" edge="1">
          <mxGeometry relative="1" as="geometry" />
        </mxCell>
        <mxCell id="yVsl_0q2GCfbYqzO1dNI-15" value="ознакомиться с требованиями" style="whiteSpace=wrap;html=1;rounded=0;" parent="1" vertex="1">
          <mxGeometry x="260" y="520" width="120" height="60" as="geometry" />
        </mxCell>
        <mxCell id="yVsl_0q2GCfbYqzO1dNI-20" value="" style="edgeStyle=orthogonalEdgeStyle;rounded=0;orthogonalLoop=1;jettySize=auto;html=1;" parent="1" source="yVsl_0q2GCfbYqzO1dNI-17" target="yVsl_0q2GCfbYqzO1dNI-19" edge="1">
          <mxGeometry relative="1" as="geometry" />
        </mxCell>
        <mxCell id="yVsl_0q2GCfbYqzO1dNI-17" value="выполнить задание" style="whiteSpace=wrap;html=1;rounded=0;" parent="1" vertex="1">
          <mxGeometry x="70" y="590" width="120" height="60" as="geometry" />
        </mxCell>
        <mxCell id="yVsl_0q2GCfbYqzO1dNI-22" value="" style="edgeStyle=orthogonalEdgeStyle;rounded=0;orthogonalLoop=1;jettySize=auto;html=1;" parent="1" source="yVsl_0q2GCfbYqzO1dNI-19" target="yVsl_0q2GCfbYqzO1dNI-21" edge="1">
          <mxGeometry relative="1" as="geometry" />
        </mxCell>
        <mxCell id="yVsl_0q2GCfbYqzO1dNI-19" value="загрузить файл отчета" style="whiteSpace=wrap;html=1;rounded=0;" parent="1" vertex="1">
          <mxGeometry x="270" y="660" width="120" height="60" as="geometry" />
        </mxCell>
        <mxCell id="yVsl_0q2GCfbYqzO1dNI-21" value="отправить преподавателю" style="whiteSpace=wrap;html=1;rounded=0;" parent="1" vertex="1">
          <mxGeometry x="60" y="730" width="120" height="60" as="geometry" />
        </mxCell>
        <mxCell id="yVsl_0q2GCfbYqzO1dNI-24" value="" style="shape=image;verticalLabelPosition=bottom;labelBackgroundColor=default;verticalAlign=top;aspect=fixed;imageAspect=0;image=data:image/png,iVBORw0KGgoAAAANSUhEUgAABiwAAAe7CAYAAAAz9Yg3AAAAOXRFWHRTb2Z0d2FyZQBNYXRwbG90bGliIHZlcnNpb24zLjYuMywgaHR0cHM6Ly9tYXRwbG90bGliLm9yZy/P9b71AAAACXBIWXMAAB7CAAAewgFu0HU+AAD9rElEQVR4nOzdd5gV1f0H4O+yS++9FwUUBRURA5ao2I1iiSYaE1M1EjV2TUzsxGjU2FvUmJ+9RBMVa+xiAUVUVJQmvdddlr7l9wdhw7L33u0M6Ps+j4/slDNn5869O/d85pyTVVxcXBwAAAAAAAAJqpN0BQAAAAAAAAQWAAAAAABA4gQWAAAAAABA4gQWAAAAAABA4gQWAAAAAABA4gQWAAAAAABA4gQWAAAAAABA4gQWAAAAAABA4gQWAAAAAABA4gQWAAAAAABA4gQWAAAAAABA4gQWAAAAAABA4gQWAAAAAABA4gQWAAAAAABA4gQWAAAAAABA4gQWAAAAAABA4gQWAAAAAABA4gQWAAAAAABA4gQWAAAAAABA4nKSrgAAAMC33bx58+Lrr7+O3NzcyM3NjRUrVkTDhg2jSZMm0bVr1+jZs2c0a9asVo79t7/9Le65556U6+66664YOHBgrRwXAAA2JbAAIiJixIgRccUVV9Romb7gAgCk98knn8Rzzz0XY8aMiVmzZpW7/TbbbBN77rlnHHTQQdGvX7/NUEMAANi8BBYAAACb0ZgxY+Luu++OsWPHVmq/qVOnxtSpU+Phhx+OPn36xO233x7NmzevpVoCAMDmJ7AAAADYDIqKiuLOO++M//u//4vi4uJqlfXVV1/FihUrBBYAAHyjCCwAAABq2erVq+OCCy6I999/P+mqAADAFktgAQAAUIuKioriwgsvLDesyM7Ojv79+0ffvn2jVatWUVxcHEuXLo3p06fH2LFjY/ny5ZupxgAAkAyBBQAAQC2677774r333ku7PisrK4YOHRqnnXZatGnTJuU2RUVF8cEHH8RDDz0Uo0aNqq2qAgBAogQWQERExnGUO3bsGCNGjEi5buDAgbVVJQCArd6sWbPivvvuS7u+Tp06cfHFF8eRRx6ZsZw6derE4MGDY/DgwTFmzJj485//XNNVBQCAxAksgIjIHFhkZWVtxppsPoWFhTFnzpyYM2dOLFy4MPLy8mLNmjVRXFwcjRo1iiZNmkSXLl2id+/e0bhx46SrW2H5+fkxduzYWLBgQeTn50fr1q2jd+/e0adPnyqXuXDhwpg1a1YsWLAgli5dGqtXr46CgoJo1KhRNGrUKNq3bx+9e/dO+1Qo5SsoKIiZM2fGvHnzSl67NWvWRFZWVjRu3DiaNGkS3bt3j549e0aDBg2Srm5iFi9eHF988UUsWbIk8vLyoqioKFq0aBHt2rWLnXfeOZo0aZJ0FbcI8+bNiy+//DKWLl0aeXl5kZ2dHc2bN48OHTrEzjvv/K2+hrYkS5cujc8//zwWL15ccj03a9YsWrZsGTvssEN06NChxo61ZMmSGD9+fMl7Z82aNdGgQYNo27ZtdOvWLXr16hU5Ob4a1Ib77rsv1q5dm3b9sGHDyg0rNjVw4MB49NFHK3WPNmnSpJgwYUIsWrQocnJyolOnTtG/f/9o1apVhfafMWNGfPbZZ7Fo0aLIzs6ONm3aRP/+/WvkOi0sLIyJEyfG9OnTIzc3N/Lz86NRo0bRrFmz6Ny5c+y4445Rr169ah8nnWnTpsVXX30VixYtijp16kS7du1iwIABFT43pFZcXBzjxo2LmTNnxqJFi6Jx48bRsWPHGDhwYI38HZo5c2ZMmDAhcnNzIy8vL3JycqJ58+bRpk2b6NevXzRr1qwGfova495v89jar5PNqbi4OKZMmRJTpkyJvLy8WL58eTRs2DCaN28ePXr0iO233z6ys7OTribwLeBbCRARyQYW6XppDBgwIO6+++6U684555wYOXJkynVHHHFEXH755SnXffTRR/Hqq6/GZ599FlOnTo01a9aUW7+srKzYcccd44gjjoihQ4dW6AvDr3/96xg7dmy526Vz2WWXxdChQ0t+/tvf/hb33HNPym3vuuuuGDhwYCxatChuuummeOONN1L+Xp07d45hw4bFYYcdVu7xZ82aFc8880x8+umnMXHixMjPz69QvTt16hTf+9734thjj422bduWu32m3ysi4uSTT45hw4ZlLOPNN9+M888/P+36TNdRea/TnXfeGbvvvnvG4//1r3+NRx99NO36U045JU499dSU6958880YOXJkfPbZZzFjxowoKCjIeKyI9U/YDhgwIIYOHRqHHnroZvvSMGLEiLjiiitqpKwxY8ZUavu8vLx48skn47nnnosZM2ak3S47Ozv69u0bJ554Yuy///5Rp06dCh9j9erV8eabb8b7778fU6dOjblz58aqVatKQszybHqdDR06NObOnVvh41fUpp8NG1u4cGE89thj8fLLL8e8efPSllG3bt3Ydddd46c//WkMHjy40nUYM2ZMue/Linr22WejU6dOZZZnut4ynYPKyPT+T3eNZvrdM73XN5afnx//+te/4tlnn41p06Zl3LZ9+/Zx2GGHxQknnFClQHjRokXx1FNPxYsvvhizZs3KuG2DBg1iwIABcfTRR8f+++8fEeV/RldVRd8vmXp4XnvttfHEE09UqPxNXX755fHcc8+lXLfhb2pNyc/Pj5dffjnt+t69e8fPfvazKpVdv379Cm33+uuvx+233x7Tp08vsy47Ozv23XffjPc2H330Udx6663xxRdflFmXlZUV/fv3j3PPPTd22GGHilf+vz755JN45JFHYtSoUbFy5cq029WrVy/69+8fP/rRj2Lvvfeu0L1pRa6rd999N+6888746quvymyXnZ0dgwcPjnPPPTe6d+9e7vEyXTeNGzeO559/vtxQ/cc//nFMmDAh7fp012dVPptWrFgRxx13XCxcuDDlfuk+a+fMmZM2YNtwD15UVBSPPvpoPPLIIzF//vwy2zVs2DCOOOKIOP300yv9oMHs2bPjkUceiVdffTUWL16cdrusrKzo3bt3fP/7348jjjiiQvfvmT4bNpadnR0NGjSIJk2aRIcOHaJXr16x++67x7777ht169bNuG9t3vvVVs/3ja+7zfH3uSbU9HVS3e926Wz8/qzK38Kq7JPKV199FQ8//HC8++67kZeXl3a7Jk2axH777Rc///nPo0ePHim3qcn7xFRlA98OAgsgItaPi5zOlvYUxYYb/aoYMWJEhb6IbKy4uDi++OKL+OKLL+LRRx+N4cOHR9++fat0/Nry/vvvx8UXXxy5ublpt5k9e3Zccskl8eabb8ZVV12V8Unajz/+OP7xj39Uuh5z5syJe++9Nx577LE4//zz44gjjqh0GRv75z//GT//+c8zfsl88MEHq3WMTB544IGMgcXy5cvjmWeeqXL5jzzySKW//BQVFcWYMWNizJgx8cQTT8Tw4cOjW7duVa7Dlu7pp5+OG264IWND1gaFhYUxbty4GDduXOywww5xzTXXROfOncvd780334yrr7464xfaLVlRUVH84x//iHvvvTfWrVtX7vbr1q2LDz74ID744IMYPHhw/OlPf4oWLVrUfkWJl156Ka655poKh8Dz58+P//u//4tHHnkkTjvttPjJT35Sof0KCwvj73//e/zjH/+o0DURsT60e++992L16tUlgcWW6ssvv4wnn3wy6WpUyLvvvpvx4YgTTjih1u6zCgsL409/+lPGRqvCwsJ4/fXXM5aTKbQqLi6Ojz/+OH7+85/HWWedFSeeeGKF6rZ06dK4/PLL4913363Q9mvXri353Npxxx3jz3/+c3Tp0qVC+6ar93XXXZc29IpYf27efffd+PDDD+Oyyy6LQw45pMrHW7FiRTz55JPx85//PO02o0ePzhhW1LS77rorbVhRHXl5eXHeeefFxx9/nHabVatWxT//+c94880347bbbouePXuWW25BQUHccccd8fDDD0dhYWG52xcXF8fEiRPjmmuuiXvuuSeuvPLKGDRoUKV+l3QKCwtjxYoVsWLFipg/f358+umn8dRTT0Xbtm3j0ksvjT322CPtvu79ateWdJ1sDfLz8+Oqq66KV155pcLbP/fcc/HCCy/EiSeeGGeccYbemUCtqPijh8A3WqbAojJPKde2VatWxfXXX5/Y8WfMmBFnnHFGTJ06NbE6bOqTTz6J888/P2NYsbHXXnstLrroogo9NV5V+fn5ccUVV8RLL71UrXJyc3Pj6aefTrt+3Lhx8emnn1brGJm8//77MWnSpLTrn3zyyQo1pNeWL774Ik4//fRYtGhRYnWoLcXFxTF8+PD405/+VKVz/OWXX8ZJJ50Un3/+ecbtRo0aFRdeeOFWG1asXbs2zj777Ljzzjsr3DC9sVGjRsWPf/zjcp++p/puuOGGuPjiiyscVmxs7dq1cdNNN8Xvf//7chtgVq5cGcOGDYu77767StfElq6oqCiuvvrqjPctW5JMDZPZ2dlx8MEH19qxhw8fXqknbKujsLAwbrjhhnj88cfL3Xbq1Knx4x//uMJhxabGjx8fP/nJTzI2iJfn+uuvzxhWbGzt2rVx6aWXxmuvvVbl40VEPPbYYxmHBqvNBzA2NWHChAr//pWxatWqOOussyr82ixcuDCGDRuWsffkhnJ/85vfxAMPPFChRuhNLV68OH7729/GI488Uul9K2PhwoVx9tlnl3vvUR3f5Hu/6tparpMtxZw5c+LHP/5xhcOKjRUVFcVDDz0UZ5xxRoVGLACorC2nFRJIVKabutocM7iy7r777oxDnWwOy5cvr7GhcWrC3/72t0rfKL7xxhvx1FNP1VKN1isuLo6rrroqli1bVq1yHnnkkbTX5wMPPFCtsisi3THWrl0bjz32WK0fvzxz586Nv/71r0lXo8bdcccd1eq9EvG/pzwzfWbcdNNNW03DZyrDhw+P9957r1plzJ8/P84555wqNaRTMQ899FCNNIC8+uqrceONN6ZdX1BQEL///e+r1ZC7pXvqqadi/PjxSVejwjKF3r169YqGDRvWynFfeumlSvcorQk33XRTTJ48Oe36ZcuWxdlnnx0LFiyo1nHy8/Pj/PPPj5kzZ1Z633nz5lUoWNnYht4q1emRsGjRonjhhRdSrps4cWKMGjWqymVXRnFxcVx99dVVatAtz+uvvx6fffZZpfbZ0Nsm3d/ioqKiuPjii6v9uVZUVBQ33nhjuT2KqquwsDDuu+++Wj3GN/Xerzq2tuskafn5+XH22WfH7Nmzq1XOmDFjYvjw4TVUK4D/0XcLiIjIOH7qlhJYTJ48ucaeeMnJyYntttsuunfvHh06dIgmTZqUDDu0cuXKmDdvXnzyyScxZcqUlPt//vnn8eGHH5Y7v0EqNT325oaeEs2aNYuDDjoounfvHqtWrYrRo0dnfLLz1ltvjUMPPTTj2MFZWVnRtWvX6NWrV3Ts2DFatmwZDRo0iDp16sSaNWti0aJF8eWXX8ann36a8ovvqlWr4rHHHqvWOKZz5syJV155JQ499NBSy6dPnx5vv/12lcutqP/85z9x+umnl5lU9IUXXqixp/Lr168f22+/fXTr1i06dOgQjRs3jvr160dRUVHk5+fH3LlzY8yYMWm/VLz22msxc+bM6Nq1a43UJ5VMjfqNGzcuM2xXbm5uhcZlTmXcuHEZhyRr0qRJ7L///iXDgUyZMiVee+21lMdbvHhx/OUvf0nZyDtv3ry0DWtNmzaN888/PwYNGhQtW7YsGbKlouNDZ3qquSLjf1fESy+9FC+++GLa9a1bt4799tsvOnXqFGvWrIkJEybE22+/nbJ31dSpU+POO++MCy64oNzjZuqd1bBhw2jUqFGpZRsmEf22mj59etx6661p12dnZ8c+++wT/fr1i+zs7Jg8eXK8+uqrsXr16pTbP/bYY7HffvulvBYfe+yxcgOsbt26xeDBg6Njx46RnZ1dMhn3xx9/XKZHxqmnnppxXo6qzANSHYsXL4477rijxsutTZnmsunVq1etHHPt2rVxww03pF2flZUV3/ve96JPnz4xe/bs+M9//hNLlizJWOa2224b++23X7Ro0SLeeeed+OCDD1Jut27durj22mvTziFyww03ZGwg69KlSwwZMiTat28fy5Yti7fffjsmTpyYctvc3NwYPnx4xvlKUtn4M2y77baLffbZJ1q0aBFz586NV199NeWcCxHrH1i59dZb48orr6zU8Tb20EMPxVFHHVVmDo7N2bviX//6V631ANj43O65554xYMCAqFu3bkyZMiVeeeWVWLVqVcr9xo0bFyNGjIijjjqqzLoRI0bEW2+9lfaYTZs2jQMPPDB69OgR69ati7Fjx8b777+f8m9VcXFxXHnllTFw4MBKT7S88ZxLBQUFMWPGjLjuuuviww8/TPn7lKc27v0yfe7WxBxMW7Lavk7K+5ypypyMFVUbD9bcfPPN8fXXX6dd37t37xg4cGB06NAhFi9eHB999FHKeYwi1t+P7r///iXDSQ4cODDjtViRuRkBBBZARETGYSM2bXxKQnFxcVxzzTXVfhpsjz32iAMPPDB23333Ck1W+eyzz6b9Yjpy5MgqBRa1oU+fPnHLLbdEq1atSpb96le/ihEjRsSVV16Z8mZ8xYoV8eyzz6Ycb7p79+5x+eWXx957712hse2/+uqrGDZsWMontEeOHFntidcefPDBMoHFQw89tFmejC8sLIyHH344zjvvvJJlxcXF8dBDD1W77EMPPTROPfXU2GWXXcod/7W4uDjuvvvulDf4RUVF8e6778YJJ5xQ7TplOn46F1xwQZn5SqozOWGmBskhQ4bEpZdeGk2bNi1zvHPPPTflpLIjR46Mzz//PPr161dqeaYnZU8++eQ4/PDDK1nzzaegoCDjF+Af/OAHcdZZZ5UJkj7//PM477zzUoZt//rXv+Kkk04qE85tKtO1cNJJJ8Wvf/3rUssqOonpN9Xdd9+d9m9X8+bN45ZbbikzL9LJJ58cp59+etqGqjvuuKPME7z5+fkZg74GDRrE73//+zj88MNTTli8dOnSeOqpp2p1KJPquvHGG2P58uVJV6NSMk1eWtkG04oqL4C45JJLSoWmw4YNizPPPDNtI+vxxx8f5513XskQoSeeeGJcf/31aXsZjh07NiZOnBjbbbddqeXTpk3LOFTkUUcdFb///e9LTVp86qmnxj333JP2827s2LExatSoGDx4cNpy0zn55JPj1FNPLfV+GDZsWPzhD39IO1faK6+8EmeddVa0bt260seLWH8O3nrrrdhvv/1Kls2bNy/+85//VKm8ylqyZEncfvvttXqMevXqxbXXXht77713qeUnn3xy/OY3v0n7ufb444+XCSwKCgri3nvvTXusHXbYIW6++eZS978///nP4913340LL7wwZVien58fDz74YJx++umV+bVKycnJiW233TZOOOGElIFFusA5Yuu699tabKnXSU3JNJRcVcyaNSueffbZlOuys7PjkksuSXmv8Oyzz8ZVV12V8p7mrrvuiiFDhqS8vwCoCkNCARGR+UaocePGm7EmqT377LPxySefVLucQw45JPbee+8KhRUREUceeWTaL6W1OXdCZdStWzeuueaaUjfhGwwdOjSOPvrotPum+4K88847xxFHHFHhiXj79OkTe+65Z8p1kyZNqvY8DxMmTCg1VMLixYvTDqtQG5555plSjU5vvfVWTJs2rdrlfv/734/ddtutQpPVZWVlxS9+8Yu062v7esz0GVGTvbDmzJmT9qmsbbfdNq666qoyYUXE+pAt01BtL7/8cpllmT4HunfvXoHaJueTTz5JO+b3oEGD4sILL0w5WX2/fv1KhW8bW7duXYWGQMgUHG9Jcx5tCVavXp3xnF500UVlwoqI9U+ZX3XVVWm/+I8bN67MvCNvvvlm2rmMsrKy4i9/+UscccQRacts2bJlnHzyyXHNNdekrW+SPvzww2rPi5SETJ+dtfVASKbG7wMPPLBMD68mTZpknGR2yJAhZd7bZ599dmyzzTaVqsMLL7yQ9kGDXr16xR/+8IdSYUXE+mv317/+ddp7jIiI559/Pu26dL7zne/EsGHDyrwfGjZsGMOHD4+WLVum3G/dunXxxhtvVPp4G9t0qMmKTg5cE2666aaMIVpN+NWvflUmrIiI6NSpU8beKRMnTixzb/XRRx+l7aVUv379uPbaa1Pe/+61115lwvON1cQ95LJly9KG8dtuu23a/bame7+txZZ8nVTGht68m8rLy6tyr+VUnn/++bSfOaecckrae4Ujjzwy7ffKr7/+Om1vOICq0MMCiIjIOFxHqsbBzWnZsmVxyy231GiZa9eujTFjxsT7778f06ZNixkzZkR+fn6sWrWqwk+xVHf85Zqy9957lwyNk8rxxx8f//73v1Ou++qrr2LNmjVpG26Li4tj/Pjx8c4778SkSZNi+vTpsWzZsli1alXGp8c2VlRUFIsWLYpu3bpVaPt0HnzwwZInKB9//PHNOsTMypUr48knn4xf/vKXJXWp6fJHjRoVH374YUybNi1mzZoVK1asiJUrV1b4C0q6ISxqSqbXuyYDi0xjeA8dOjTjsfr16xfNmzdP2Wg7evToMsu23XbbaNy4caxYsaLMumnTpqVscNlSpPp9NjjmmGMyPuG21157ZSw3Va+rjWVqWEv3Zfvb6qOPPkrbg7F9+/ZxwAEHpN23X79+sfPOO6dtkBo9enSpz/73338/bVn77bdfxtd9Y6mCrqStW7euRoOUyy+/vMJDr1VXvXr10v69qm6Yn0pxcXHGXjI//OEPa+Q4OTk5cdxxx8V1112Xcn2q6zbT59YJJ5yQ8fPjxz/+cdrhzlI94V6eTE+lN2nSJA4//PC0PSnHjRsXxx13XKWPufH+n376aeyyyy6xfPnyas/XVFFjxoyp9QbYDddFOrvsskvssMMO8eWXX6Zc/+mnn0aPHj1Kfs50zey///7RsWPHtOuPO+64uPvuu1O+/+bPnx/Tpk0rdazy/PSnPy25RgsKCiIvLy9tj8Of/OQn5Za3Ndz7bS22pOukOtIN01tYWBiTJ0+OPn361Mhx0p2v7OzsOOaYYzLuu9dee6WdB3H06NGx/fbbV7t+ABECC+C/Mn1prmq395py6623pn1qtLIKCwvjiSeeiPvuuy+WLl1arbJq+wm1itptt90yru/Vq1c0a9YsZX0LCgpi+vTpZYZtiIh4991345Zbbkk7j0dl1MS5Gj16dEyYMCG6detW6xOGp/L444/HT37yk/jqq69q7Im21atXx/333x8PP/xwtRuuanuYlEwTMle0x1JFTJgwIe26m2++OW6++eYqlTt9+vQoLi4u1ZCfk5MT3//+91MGUPfee2+0aNEiBg8eXGoOiy1FpvP0+9//vsrlphpSa1OZwsLNMefRFVdcUao3TXZ2djRs2DBatGgRPXr0iJ133jn233//ajUw1NT4yZkmXB4wYEC5QyfstttuaT9vNi0705ONhxxySMbjbOnuv//+Cl2bW6KmTZumfc/Uxn3E/Pnz05abk5MTO++8c40da8CAAWnXpZofKNNk3OW95/r37x/Z2dkpA9NFixbFkiVLUj5BnU6mukdE7LrrrmkDi0y/R0U98MAD8de//jWefPLJWgmuNlVQUBB/+ctfav04PXv2jObNm2fcZtddd00bWGx6bjOd6/Lufxs3bhx9+vTJ+Blamb8Ty5YtK3ebRo0axemnnx4HH3xw2m22pnu/ytocf59T2ZKuk+ro0aNHfPXVVynX/eUvf4k//vGP0aNHjwr1zskk3T1kYWFhte4Xtta/08CWSWABRETmL81t2rTZjDUp7dNPP005xmadOnUqPX9BQUFBXHTRRdXuyr/BljKJbOfOncvdplOnTmlf41Rh0IMPPljlhuFUqnKutttuuzINcA888ED069evTJ1TbVtdm5a5ePHieO6551I+4VmV4+fn58dZZ51VY+FHbV+PmQK+dENn1PRxqqOwsDDy8vLKNKT8+te/jg8++KDMl7f8/PzN9gR2VdTWeapIuekmTY1I5un8wsLCyM/Pj/z8/Jg1a1a88847ceedd8aBBx4Yv/vd7yo8tF1tyNTAlaln3AaZPt83fa0yvXa9e/cu91hbqlmzZqWcm6Mq9wFJ6NSpUyxatCjlupp4IGBTme7n2rZtW+2Gro1tmIA4lfz8/CgsLCwJe1euXJn271RWVlbGsiLWB+Nt2rRJ+0T50qVLKxxYNG/ePO2TzBtkeu9V9iGaHj16xJw5c0r14N0wmXiqeUBq457mwQcfjKlTp5ZZXtPvo4rek6az6bnN9LlW0c/QdPdZtfF39LDDDsvYc25ru/errs3193lru07S2WOPPdIOffjZZ5/VyHwlmT6LqyvT3EkAlWWgYSAiMt9gVORGrzYUFhbG1VdfnbK79bHHHlvp8v7v//6vxsKKLUlFnm7P1Ii46XA4Y8eOrfEhuDJN0pvOiSeeWOap9ldffTXuv//+Mtv+9Kc/rXLd0klV5r333htvv/12qWXZ2dnlDqGTyg033FCjYw9X5RxXRqZhB9q1a1djx8nUk6O6Uj3J2LBhw7jtttuiV69etXbc2lBb5ynV8FiV2aa2JhGurOLi4njllVfil7/8ZaJPoFa3Z1LDhg0rXHam33NLmIuqqq699tqUjStVuQ9IQqbPlsmTJ1d4eMWKyvTEdk32hovIfG9RXFxcKtzM9F6oV69ehea/qcz7IZOKBKuZtqnsU/GtWrWKww8/vNSy4uLiOOecc2Lx4sWllnfv3j323XffSpVfnrlz58bf//73MsuzsrLKHf6lsqp7T7rpuc30ulbkdaypa6ainnrqqfj+978fH330Ucr1W9u9X22ojb/PW9t1ks5BBx1U7SF0y7O577MBqkpgAUREZJxAeHN1g93UZ599lrKLb8+ePSvdQLxmzZqUDd0bDB48OG677bZ49dVX44MPPogxY8aU/Jdp3NMtQUWeksnUILJpQ9Y999yT9gtQt27dYvjw4fHCCy/EqFGjSp2nI444onIVL0eHDh3KdKkvLCws86Rqhw4d4sADD6zRY0esn5h009d+wYIFZZ5EPOigg6JDhw6VKnvevHkxYsSItOsPOeSQuOeee+KNN96IDz/8sNR5TsrXX3+dcnn9+vVrtIdFbc6Zk+66btmyZdx///1x2GGH1dqxa1qScwtl6jVQk9dCTZgxY0bccccdiR0/01Pc1f3s3rTsTNdERYKoLdH8+fNT9mpr3bp1nHbaaQnUqPIyDT1UUFCQcYLsqsg0kXdNP1Wb6frMysoq1QiY6b2wdu3aCj3lX5n3Q1XLqcg2VZks/Sc/+UmZUCbVgwAVmfugsl544YWUv88xxxwT/fr1q9FjVfdzbdNzm+l1re7rWJlrpjJWrlwZZ555ZpnhcbbGe7/aVJN/n7fG6ySVevXqxbXXXhtt27attWMkcZ8NUBWGhAJizJgxsXDhwpTrmjdvXqHu3bUh1ZfXrKysuOiiiyo9nvyYMWPSDmMycODAuPXWW9OOJb6ljQ+7qdmzZ5e7zZw5c9Ku23iInBUrVsTYsWPTbnffffel7b5dG+fppz/9abz44osZtznxxBNrdIiLDXJycuLHP/5xXH/99Rm3O+mkkyr9u7/zzjtpb+qPOOKItEMRJXUtzps3L+bNm5dyXa9evcodh78yMjV433TTTbU2EXb9+vU3a7f/6so0jMITTzwR2267ba0dO9PnSU32tknnsssui6FDh5b8vHz58vjyyy/j+uuvTxmsvfTSS3HeeedV6nMiXQPRmDFjYtiwYRUuJ9PrNGvWrHL3z7TNpu+Vli1bpg2TJk2aFN27dy/3eFuadI3YZ599dqKhXWXsvffeUa9evVLDAW3s0UcfjcMPP7zG5snJ1Mtp4cKFUVBQUGN/MzN9FjRp0qTU79SoUaOoX79+ygbt4uLimDNnTsYevWvXrk17rxpRubA0Nzc38vPzMzZEZrq3Km+OhlQ29JzI1NO3devWcfjhh6ccAq06Ur2PWrZsGWeccUa89dZbNXqsTNdERbbZ9Nxmel1nzZpV7twnlfkMLc+zzz5bMpxVUVFRLF26NN5777247rrryjxZvuFBqUsvvbRk2dZ271cVm+Pvcypb0nVSXb169YpHH300Hn300Xj77bdj1qxZGYfirKyGDRum/Sxu2bJlvPLKKzV2LIDq0MMCvuVWrlyZsUG2vInKNrcjjjgi+vfvX+n9Mn3xPOCAA9I2uH799debtStwVaQLGDaYPHlyxgk4N27EmjdvXsoJLSMidt9997SNb4WFhfH5559XrMKV0Lt379hzzz3Trm/WrFkcffTRNX7cDY4++uiMDRODBg2K7bffvtLlZroeM/UWqclhBCrjX//6V9p1ffr0qdFjZRpr/8MPP6zRY23stddei1GjRqVcd+utt25xTzlut912add98MEHtXbcdevWpT0PdevWLXcc+trQtGnT+M53vpN2svHly5dXKByoDZmu548//rjcpxEzfb5vWnama6Kmn+JP0sCBA7eq3lBNmjTJOInppEmTMvYAzWTNmjVlgpD27dunDXMKCgpi3LhxVTpWKpmuz1RDYWUaHqu8z9dPPvkk7f1JmzZtKjXhdsT6919V1/fs2bNSx9rgZz/7Wcb1xx9/fNSrV69KZVfWWWedVStD+GW659ygMuc20zWTbtilDVasWJF2AuOI6s3tU6dOnWjdunUMHTo0ba+YTf8Wb233fjVhc/193lKvk6pq0aJF/OY3v4lHH300Ro4cWaq3zab/VWUkgHT3C0uXLs04gTnA5iSwgG+xxYsXx5lnnpnxxmRLahRo3rx5nHXWWVXaN1PokOmp6vvuu69Kx9uc3nnnnYxfgh5//PG06/r06VNqvOGqnqdnn322zDjMNSXT/BTHHntslYZmqKgGDRrED3/4w7TrTzrppCqVm+k8p3tCuqioKP7v//6vSserjsmTJ8cjjzySdv13vvOdGj3e4MGD0657+umn0/b0SGfSpElxySWXZNxm9erVceONN6ZcN2TIkNhjjz0qdczNIdN5euihhyo9BNAnn3wS11xzTbnb3XnnnWnnM9luu+1qpbdTRWU6dnkNaLVlwIABUbdu3ZTr5s2bF6+//nrafb/44ouMDVWDBg0q9XOm6/TNN99MG8htqqbnVKhJdevWTdvwVRmXX355DBw4MOV/tRFM/vKXv0x7HURE3HXXXfHss89WqsyPPvoofvSjH5UZJjErKyt22mmntPs98cQTlTpOOgUFBfHUU0+lXb/LLruUWbbpNbtpvdIFEhGR8e/Q7rvvnnZdOpnujfLz8+P5559Puz7V71YR/fr1SztEWMOGDeO4446rUrmVNWDAgBofxnOD8q6LTz/9NL788su06zd9KCnTNfP6669nvCf417/+lXaIqvbt29fYkLfp3tubvje3pnu/mlbbf5+3hutkS5LpHvKuu+6qVFmFhYXx0ksvxYMPPljdagGUIrCAb6ENX9QPOeSQ+OSTTzJue8EFF6T9Ul9e99phw4aV2jbTuK0V8dvf/jbj8BqZZHqK7JlnninzRaGoqCj+9re/xUsvvVSl421Oa9eujYsuuijll50RI0bEM888k3bfTeeIyNSb4JNPPkl5vYwcObLcYZOqY+DAgdG3b98yy+vVqxcnnHBCrR13g+OPPz7lhH3bbbddxhv+TDJdj48++miZBsN169bFVVddVe77tSYVFxfH66+/HsOGDUvbgNmgQYPYa6+9avS4nTt3Ttugs2LFijjttNMyPgkXsf7L79NPPx2/+c1v4kc/+lG5w4r9/e9/T/lltn79+nHuuedWvPKbUf/+/dMO1zdv3rw444wzyn1qcdGiRfHYY4/Fz372szj55JPj3XffTbvtV199Feeff3488MADabfZb7/9KlT32jB58uT461//mnZ9UpOBN2zYMPbff/+066+++uqU1/OcOXPij3/8Y9oeGDvvvHOZ4XP222+/tJ/hRUVFceGFF8YLL7yQtszly5fH/fffHxdddFHa+ibtpJNO2iobj7p27Rq/+MUv0q4vKiqK4cOHx/DhwzOG/0VFRTFq1Kj47W9/G6eeemrMmDEj5Xab/m3f2Kuvvlrmfiw/Pz9Gjx6ddp833nijzLBCN910U9q5jdLV4bDDDks7ufbEiRPjmmuuiYKCglLLi4uL4+9//3u88847aY+16YTWFTFq1Ki4++67y7wfVq9eHZdccknahzTq1q0bQ4YMqfTxNkj3EMbRRx+9WT6ncnJyaiT0y+Tee+9NOffMnDlzSg2RtKntttuuzPt7t912SztP2Jo1a+J3v/tdytdq1KhRGRtev/e976VdV1FFRUXx3nvvxcMPP5xy/aZzxG0N9361YXP8fd6Sr5Mt0WGHHZZ2GMI333wzrrzyynJHGJg8eXLccccdcfTRR8fFF18cU6ZMqY2qAt9i5rAAtgo777xzHHXUUVXef4cddki7bv78+XHsscfGYYcdFp06dYq8vLx44403tqobr/Hjx8exxx4bBx10UHTv3j1WrVoVo0ePztgNulGjRnHkkUeWWtalS5do0qRJypvUwsLCGDZsWBx00EGx3XbbRWFhYXz44YcZGzlqys9+9rO4+OKLSy0bOnRotG7dutaP3aJFizjmmGPKPDGYqedHeTJdjxMmTIhjjz02Dj744GjXrl0sXLgwXn311QqNC11THnzwwfjHP/5R7lNv69atS/u+zM3NTbvfxsOj/OQnPynTU+W0006Lk08+OeW+M2bMiJNOOil23nnn6N+/f7Rp0yaKi4sjLy8v5s+fH+PHj4+pU6dWaALXDeU99NBDKdf94he/qFJX+80hJycnhg0blrb3yGeffRbHHntsDBw4MPr16xctW7aMgoKCyMvLizlz5sT48eNj5syZFZog8bjjjotp06Zl3KZ169Zx7LHHVuVXqbTrr78+brvttpKf8/PzM0702rhx40SGqtrglFNOiVdffTXl0+PLli2Ln/3sZ7HffvtF3759Izs7OyZPnhyvvvpqxjGrf/Ob35RZ1qRJk/j5z38eN998c8p9Vq5cGZdeemnce++9sccee0THjh0jOzs7lixZEl999VWMHTs21qxZk3GS6CR17tw5fvnLXyZdjSr71a9+FePGjUvb06W4uDieeeaZeO6552LXXXeNvn37RqtWraK4uDiWLl0a06dPj7Fjx1boaeSDDjoobr755rSN7ldeeWWMGTMm+vTpE3PmzImXX345lixZkra8xx9/PD788MMYMmRING/ePN55552MQ88NGDAg5ZAj22yzTRxyyCFpQ+R///vfMWbMmBgyZEi0a9cucnNz4+23344JEyakPdauu+5a5YcH7r777njrrbdin332iebNm8e8efPilVdeSduLLGL9ua3Ovcfee+8d22+/fUydOrVkWXZ2dpx44olVLrMyTjrppFqd4yhifQPxWWedFXvuuWfsuuuuUa9evZg8eXK88sorGT/Xjj/++DLLcnJy4uSTT44//elPKff54osv4thjj40DDzwwevToEWvXro1PPvkk3n333bR/35o0aVKlHrI//elPSxp5i4qKIi8vL2OvoE2Ht9rS7/1qQlJ/n7ek62Rr0K1btxg6dGg8/fTTKdc/++yz8dprr8Wee+4ZvXr1iqZNm8bKlSsjLy8vpk6dGuPHj6+1nvUAGwgsgC1ednZ2/OEPf6jWxL477rhjdO/ePaZPn55yfW5ubjz22GNlltevXz9ycnIqPbzK5pSVlRXFxcWRm5sbTz75ZIX3++1vf1tmwsmcnJw46KCD4t///nfKfQoKCuLFF19M2djQunXrWrt53X///VM+rbe5nHfeeXHeeefVWHl77LFHNG/ePG2j/vz581N2ra7Nc7yxDV9KylNYWFil+my8z6YTVUas7z3ws5/9LO247sXFxfHpp5/WyLjO119/faxbt67M8i5dulQrlNocDj300Bg5cmTa+QkKCwtj9OjR1Q4VNx3WYlPZ2dlx+eWXb7ZeDCtWrKjUZ/JBBx202caFT6VHjx5x+umnxy233JJyfWFhYbz22mvx2muvVai8H/zgB2mHwPnRj34UH3zwQbz//vtp958xY0baJ/O3ZBdeeGHK3m5bi+zs7Lj22mvj/PPPz9jYX1hYWO05c+rXrx/nnXdemaB/g+Li4nj++eczDnu0qa+//jpjj4oN6tatGxdeeGHa9eecc058+umnaRtiZ86cmbEn18aaNWuW9nfMZMN9U8T6huJMgcjGmjZtGr/97W8rfbxNpXsiv7Z16tQpfvWrX9XqMTac2+Li4nj33Xcz9tzb2E477ZR2mKojjzwy3nrrrRg5cmTK9Xl5eRnn2tq0fhdffHGV/l6lG7YpnU2H1d3S7/1qQpJ/n7eU62RrceaZZ8Ynn3yS9oGUFStWxCuvvGISbiAxhoQCtng/+tGPMk6mVhFZWVlxzjnnVDr0+N3vfrfF36wOGzas0o04Q4YMSTtW8sknn5xxaKhUjjjiiC1ynP8tVePGjWPYsGGV2ic7OzuuuOKKWqrRlueMM84o0wOopr3xxhtpg7Dzzz8/0UbuisjKyorLL78848T0ta1hw4Zx9dVXb7Hv/86dO8cZZ5yRdDXipz/9acqnhytryJAhcf7556ddn5OTE3/5y19i1113rfaxtiT7779/jQ8/l4RGjRrFrbfeulnC0EMPPbTW5inI5Oyzz854z9aqVau48cYbo02bNtU6TuPGjePaa6+N7t27V3rfDh06xI9+9KNK7ZOdnR0XX3xxtG3bttLH21JccMEFtR76HXDAAbHzzjtXap+WLVvGFVdckXaImjp16sRVV11V6XI3lZWVFWeddVbGCa5rysCBA8v0QHXvV1pN/33eGq+TJDVr1ixuueWWtMOLAiRNYAFs0dq3bx+//vWva6SsvffeO84555y04ydvLCsrK84+++xabzCtCbvssktcf/31FQ4Z9t9//7j66qvThjft27eP6667rkzvi3QOOOCAKj3h+G33gx/8oMINJnXr1o0rr7yyysNebI2ysrLi0ksvjUsvvbTMONCVUa9evZTjja9evTpuuOGGlPvss88+sffee1f5mJtTvXr14qabboozzjijWgFLo0aN4rvf/W6Ft8/Kyop99903Hn744YxzNCRp//33j3/84x9Vnvuopl1wwQVxxRVXVOl6rlu3bpxxxhlx7bXXpm3U26BRo0Zx1113xSmnnJLoJOg1pVGjRjXawy1p2dnZceaZZ8btt99eZoLhytp+++0zXk+XXHLJZgstsrOz45xzzqlQMNezZ8945JFHqvw3rU+fPvHQQw+VO5daJueee26F58GqV69eXHHFFXHAAQdU+XhJ22+//Sr1GV9VDRo0iJtuuqnCQ8u1bds27rzzzujWrVvG7Ro1ahR33313/PjHP67QffymWrVqFTfffHP85Cc/qfS+lZGdnR3HHHNM3HTTTSnr6d5vvdr6+7y1XCdbik6dOsXDDz9cpjdQZbVr126LHU4S2Hpt/d9igG+08847Lxo1alRj5Z144onRs2fPuOWWW9IOAdC/f/849dRT0w65sSUaPHhwPP7443HTTTfFG2+8kXK82M6dO8epp55aoQnkBgwYEA8++GDcdNNN8fbbb6cc37Vbt25x4oknxrHHHlut4bq+zc4777zYaaed4q677ko5REt2dnYMGjQoTjvttOjTp08CNUzekUceGfvvv388/fTT8dxzz8WUKVPKnXehTZs2sfvuu8egQYNiv/32Sxm+/eMf/4i5c+eWWb5hKJWtSZ06deLnP/95DB06NJ566ql48cUXY+bMmeXu16lTp9h9991jjz32iL333jvtk7c5OTnRpEmTaNu2bXTv3j369+8f+++/f6LzQmysTp060bBhw2jevHn06NEjdt555zjggANim222SbpqZRx++OGxzz77xFNPPRUjRoxIO0zhBu3bt49DDjkkfvSjH1Xqye7s7Ow49dRT49hjj41//vOf8fLLL5c7CXuDBg1iwIAB1Zovqjb8+te/jvbt2yddjRo3aNCgGDRoUIwdOzaee+65+Oijj2L27Nnl7tetW7fYa6+94pBDDol+/fpl3HbDcG3f/e5344477kh5vWVnZ8c+++wTDRs2jBdeeCFlOaecckq8++67MX78+DLrsrKyon///nHOOefEjjvuWG79N2jVqlXcdtttMXbs2Hj00Udj9OjRKYcI3KBu3bqx6667xg9/+MPYd999q33fkZWVFeeff37sueeecfvtt6e8J6xTp04MHjw4zj333K1ysvcNGjZsmLFnVk1r1qxZ3HXXXfHoo4/GI488knJOkIYNG8YRRxwRp512WjRt2rRC5ebk5MQ555wTP/jBD+Lhhx+O119/PeNQSVlZWdGzZ8845phj4qijjqrx3iXZ2dnRsGHDaNWqVfTo0SP69+8fBxxwQLlPrH+b7v2S+Pu8pV0nW7omTZrE8OHD42c/+1k89thj8dZbb6Wd/2iDOnXqRO/eveM73/lO7LXXXjFgwIAqBUQAmWQVV2S2ReAb5fLLL4/nnnuu1LKOHTvGiBEjaqT8OXPmpOyZcNlll8XQoUNr5Bg1YerUqTFu3LhYunRp1KtXL9q1axd9+vSJLl26JF21Mv72t7/FPffck3LdXXfdVeopw/z8/Pjoo49iwYIFsWLFimjZsmVst912GSf7y2TRokUxduzYWLBgQRQWFpY0Wvbt27dK5VFWcXFxTJgwIb788stYtmxZNGzYMNq1axc77bRTIsNPpLreauL9O2LEiDJDG5xyyilx6qmnVriM5cuXxxdffBELFy6MvLy8WLVqVTRs2DCaNGkSnTp1im222abaQ418EyxZsqRkUsTly5fHmjVrolGjRtG0adPo0qVL9OjRY4vpefBttmTJkvj8889jyZIlkZubG8XFxdG0adNo0aJF7LDDDjUaCi1evLjMNdGwYcNo27ZtdOvWLXr16vWN6JGxNZs7d258/fXXkZubG7m5ubFixYqSz7fOnTtHz549o2XLllUuf8KECTFx4sRYvHhxZGdnR6dOnWLXXXeNVq1aVeg+Y8aMGfHZZ5/FwoULIzs7O9q2bRu77LJLdOzYscp12qCgoCAmTpwY06dPL/W7N2vWLDp16hR9+/aN+vXrV6rMoUOHpgymU93zTps2Lb766qtYuHBhZGVlRfv27WPAgAHVmmD7myrdfX7E+iFCL7/88pKfi4uLY9y4cTFjxoxYvHhxNGrUKDp16hQDBw6skYbh6dOnx6RJk2LZsmWxfPnyyM7OjmbNmkWbNm1ip512qvQQp5vTlnbv9022NV8nSZgxY0ZMmjQpcnNzIy8vL4qLi6NRo0YlwVOPHj2+dcEOsPn5VgJ8a22zzTZb5BO41dWkSZPYd999a6y8Nm3axMEHH1xj5VFWVlZW9OnTZ6t/km5zaNq06TdyeISa1qpVq61mWKtvs1atWsU+++yzWY7VunXrzTIkDFXXsWPHGmn8T2f77beP7bffvsr7d+vWrdyhe6oqJycndtxxx0r10qhJGxrhqFlZWVmxyy67xC677FIr5Xfv3r1K85hsCdz7bT5b83WShNr8rAeoKP22AAAAAACAxAksAAAAAACAxAksAAAAAACAxJnDAgAo5aSTTopjjz221LImTZpUu9yDDjoo9thjj1LLGjVqVO1yAQAAgG8GgQV8C11++eVx+eWX11r5nTp1ijFjxtRa+UDtatSoUa0ECQ0aNIgGDRrUeLkAAADAN4MhoQAAAAAAgMRlFRcXFyddCQAAAAAA4NtNDwsAAAAAACBxAgsAAAAAACBxAgsAAAAAACBxAgsAAAAAACBxAgsAAAAAACBxAgsAAAAAACBxAgsAAAAAACBxAgsAAAAAACBxAgsAAAAAACBxAgsAAAAAACBxAgsAAAAAACBxAgsAAAAAACBxAgsAAAAAACBxAgsAAAAAACBxAgsAAAAAACBxAgsAAAAAACBxAgsAAAAAACBxAgsAAAAAACBxAgsAAAAAACBxAgsAAAAAACBxAgsAAAAAACBxAgsAAAAAACBxAgsAAAAAACBxAgsAAAAAACBxAgsAAAAAACBxAgsAAAAAACBxAgsAAAAAACBxAgsAAAAAACBxAgsAAAAAACBxAgsAAAAAACBxAgsAAAAAACBxAgsAAAAAACBxAgsAAAAAACBxAgsAAAAAACBxAgsAAAAAACBxAgsAAAAAACBxAgsAAAAAACBxAgsAAAAAACBxAgsAAAAAACBxAgsAAAAAACBxAgsAAAAAACBxAgsAAAAAACBxAgsAAAAAACBxAgsAAAAAACBxAgsAAAAAACBxAgsAAAAAACBxAgsAAAAAACBxAgsAAAAAACBxAgsAAAAAACBxAgsAAAAAACBxAgsAAAAAACBxAgsAAAAAACBxAgsAAAAAACBxAgsAAAAAACBxAgsAAAAAACBxAgsAAAAAACBxAgsAAAAAACBxAgsAAAAAACBxAgsAAAAAACBxAgsAAAAAACBxAgsAAAAAACBxAgsAAAAAACBxAgsAAAAAACBxAgsAAAAAACBxAgsAAAAAACBxOUlXAACgogYOHBjz5s1LuhoAsFXp0KFDjBkzJulqAACUS2ABAGw15s2bF7Nnz066GgAAAEAtEFgAAFudOllZ0aFJk6SrAQBbtHn5+VFUXJx0NQAAKkxgAQBsdTo0aRLjzzsv6WoAwBZtx7/+NeYsX550NQAAKsyk2wAAAAAAQOIEFgAAAAAAQOIEFgAAAAAAQOIEFgAAAAAAQOIEFgAAAAAAQOIEFgAAAAAAQOIEFgAAAAAAQOIEFgAAAAAAQOIEFgAAAAAAQOIEFgAAAAAAQOIEFgAAAAAAQOIEFgAAAAAAQOIEFgAAAAAAQOIEFgAAAAAAQOIEFgAAAAAAQOIEFgAAAAAAQOIEFgAAAAAAQOIEFgAAAAAAQOIEFgAAAAAAQOIEFgAAAAAAQOIEFgAAAAAAQOIEFgAAAAAAQOIEFgAAAAAAQOIEFgAAAAAAQOIEFgAAAAAAQOIEFgAAAAAAQOIEFgAAAAAAQOIEFgAAAAAAQOIEFgAAAAAAQOIEFgAAAAAAQOIEFgAAAAAAQOIEFgAAAAAAQOIEFgAAAAAAQOIEFgAAAAAAQOIEFgAAAAAAQOIEFgAAAAAAQOIEFgAAAAAAQOIEFgAAAAAAQOIEFgAAAAAAQOIEFgAAAAAAQOIEFgAAAAAAQOIEFgAAAAAAQOJykq4AAADAlqawqCgWr1kTi1evjsWrV8eytWtj0erV0bFRozika9ekqwcAAN9IAgsAAOBbb3Jubrw5Z05Mzs2Nmfn5sWD16igqLi6zXesGDeKgLl2iTlZWArUEAIBvNoEFAAC16v4JE+KBiRNLLduldeu4Yc890+7zl48/jv/MmlVq2cFdusTvdt21VurIt9s/vvoqHp40KcrGE2UtXr06Pl28OHZt06bW6wUAAN82AgsAAOBb67np0+OhSZMyblMnIprXrx/tGjSIDo0aRUFR0eapHAAAfMsILAAAgG+lZWvWxF1ffFFq2bbNmsV3O3aMns2aRdsGDaJVgwbRsl69yK5TJ6FaAgDAt4fAAgAA+FZ68uuvY1VhYcnPP+ndO36+/faRZX4KAABIhMACAAD4VnprzpySf/dt2TJ+0adPgrUBAAAEFgAAbLVWFRTEx4sWxYRly2Jibm4sXLUq8tati+Vr10ZxRDTOyYlOjRtHnxYt4qAuXWK7Fi1SlvPSzJlx3SeflFr20+22i59tv33Jz/NWrowfv/ZaqW3STR6+cNWqGLd4cUxYtiwm5+XFktWrY/m6dZG/bl3k1KkTTerWje5NmsTOrVvHIV27RtuGDcv9XVNNXl6e8iYqn5KbGy/PnBmfLVkS81etihXr1kWDnJxoVb9+7NiyZezXqVPs3q5dpY6ZyomvvhrzV60qtey1oUNjVUFB/Gvq1Hh7zpyYs3JlRER0bdw4DujSJY7q0SNy0gzD9HVeXnyxZElMyM2NaXl5kbt2bSxfty5WFhREg+zsaF6vXmzbrFl8p1272L9z52iYU/Zrz5wVK0qOGRGxZ4cOMXr+/HhjzpyYsGxZLFy1KtYVFUWTunWjY6NGsXPr1nFYt27RtUmTCv3O4xYvjtdnz47PlyyJRatXx8qCgmiUkxNtGzaMfq1axYGdO0ffVq0qdK4q47WhQyMi9fVyQf/+cWjXrhUqJ91rBgAAtUlgAQDAVuuTxYvjkg8/TLt+2dq1sWzt2hi/dGn8a+rUOLRr1zhn553TNoTXlKe+/jr++fXXKdcVFBbG6sLCWLR6dXy0aFE8PGlSnLrjjnH0NtvUap02trKgIG4cNy5enz27zLr8/wYrM/Lz46WZM2OHli3jkgEDon2jRjVah1n5+fH70aNj7kahQUTEhNzcmJCbG6/OmhV/GTw4mtWrV2bf6z75JCbm5qYsd0VBQawoKIg5K1fGO/PmxQMTJ8YfBwyInVu3LrXdpo3xj06eHPnr1pUpb8M19OWyZfHPKVNiaI8e8Zu+faNummtoyZo1cc3YsfHRokVl1i1fty6Wr1sXX+flxbPTpsXg9u3jwv79o3mK3xEAAL6NzBwHAMC3xkszZ8Ydm0yynLS1RUVx6+eflxqeqDatLiiI8957L2VYkcqXS5fGaSNHxvxNgoXqumDUqDJhxcYm5ubGJR98EEXFxdU6zqLVq+PiDz6IOStWlFqet3ZtqZ9ThRWbKoqIZ6ZNi0s//DAKU9RryZo1ccbIkSnDilRGzZ8fZ77zToWODQAA3wZ6WAAAsNnNXrEibv/887Trv1q2rFLlNczOjp7Nm0fzevWiWb16Ub9OnVhRUBBT8vLi67y8UtuOmD49jtt22+jUuHHGMqvbUB4R0bp+/ejapElJvbKysiJ3zZoYv3RpLFy9utS29375ZXy3Y8eok2bC51S12a1Nm+jetGlERCxcvTpGzp1bbp3u+OKLlL0Tdm7VKno0bRoLV6+ODxcsiIKNfv9la9fG8I8+itu++91yy6+oBatWRcPs7BjUvn00zsmJz5YsiRn5+aW2+Xzp0nhu+vQ4skePlGV0bdw42jdqFM3q1YumdetGYXFxLFy1Kj5fsiRWFBSUbLeioCAenjQpLujfv2RZqsBhg4bZ2fGddu2iWb168dWyZTFpk/P1wYIF8fjkyXFi796llv/l44/L9NyoExG7tW0bHRs1ilkrVsTHixaVei1nrVgRN44bF5fstltERBzarVss3yRMmb58eZkQZIcWLWKHli3T/g4AALA1ElgAALDZLVq9Ov41dWq1y9m2adO4cc89Y8eWLdMO8/TklClx5/jxJT8XFRfH+/Pnx7HbbluyLFVEUJ2n3vfr3DkO6do1tmnWLOX6gqKi+NPYsaUChjkrV8bUvLzo2bx5yn2KUzSwH9ilSxz83zkJPlm0qNzAYv7KlfHSzJlllm86t8EXS5bE+e+/H2uLikqWfblsWYyePz8GtW+f8RgV1bJ+/bhlr71KgqPC4uK49uOP49VNen489fXXZQKLX/XpE92bNk0798eyNWvit++8U2qOinfnzYvzi4sj67+BUKc0Q1y1a9Agbtprr1JDYKWaD+LxKVPimG22KZkf44slS2LMwoWltsnOyoo/DxoUA9u2LVn2zty5cfmYMaVCi7fmzImf9O4d2zRrFj/dbrsydXpp5swygcXu7dqVmmMFAAC+CQQWAABstdo3ahTtGzWK4uLimLhsWXy9fHksWLUqVhUURMF/G9s3ftJ+g02fmK+XIuyYUMleHhvr89/JvdcWFsYXS5fGjPz8WLpmTawuKCh5sn9FikBkUm5u2sAiVY+AdL0x0nl//vwy5fRv3brMRMx9W7WKod27x1ObhErvzptXY4HFT3r3LtXLJTsrK87o1y/emjs31m0UlMxasSLmrFhRatuB/50IPG/t2vh8yZKYvWJFLF+3LlYXFpYEO5sGWMvXrYt5q1ZFx/8GES3q109Zr1/06VNmvo6TttsuXps9O2ZvNKxU/rp1MW7x4pLzkSosOqhLl1JhRUTE3h07xp4dOsS78+aVLCuOiPfmz08bcAEAwLeFwAIAgK3aiGnT4uFJk8oMsZTJpvMXpJpQ+stly+Ksd9+N3s2bR1asn6i6olYVFMT/TZgQz0+fHqsKCyu8X+4m9drYxr0dNkg38XM6qYbaShdADGrfvkxgUZ0QZ1Pf+W/osLGm9epFnxYt4rMlS0otn5ybWyqwmLNiRdw9fny8O39+pYbuyl27tiSwSCfV+aiTlRWD2rUr0ytowrJlJdunOjeDUvyOG5ZvHFik27+mXffJJ3HdJ59EREROVlY0qVs3ujZpEt9p1y6O6N495QTnAACwOQksAADY7HZp3Tpu2HPPtOv/8vHH8Z9Zs8ot584vvognv/660sdfvUmIsF3z5tGiXr1Ytklg8PmSJfH5Jo3n5SkoKooLRo2KL5curXS91mQIN1anCEw2DEdUUakCkXZphlVKtXxphkClstIN55Rq+cb1nrNiRfz2nXfKvFYVsaac0Kl+nTrRPE2jfap6bXw+UtWnMud22Zo1GetW0wqKi2PZ2rWxbMmS+GzJknhiypS46jvfib6tWm3WegAAwMYq90gWAABsIabm5cVTVQgrUsmpUydO3mGHGinruenTqxRWRKSeWHuDVHNqNKtbt0rH2Zrd8+WXVQorIkqf3/rZ2TVToW+I5evWxfCPPsoYmgEAQG3TwwIAgK3Se/Pnl2ng79K4cZzer1/0adEimtatG1lZWTEzPz9+/sYb5ZZ3WLdu0SgnJx6fMiWm5uWlHIKpQvXaZKifiPVDAP1s++2ja5Mm0ei/vSJGTJsWN332WYXLXbBqVZllrRs0qFTdUvUeSFVuuuUta3DIoIWrVpUa5mnj5ZvaUO/CoqIYPX9+mfXH9+wZh3fvHm0bNIh6/w0i/vTRR/HGnDlpj9+sbt2oExEbv8priooid+3alOcpVb02Ph8t6tWLGZusX7BqVfRp2bLMfqnObbo5NWrSbm3aRPemTSNifUDx4YIFpcKfhatXx9hFi2KPGpqnBAAAKktgAQDAVilVo++v+vQpMzdCZXo77NupU+zbqVPKdfNWrowfv/Zaler1u113LdMInmo+iXTmrVxZZqLwRjk50aaSgUWfFi3ilU2G2vpgwYL4Yc+eZbYdvWBBmWXb/3cy8ZrwwYIFcfQ225Ralr9uXcrz0uu/E5Hnrl0bazYJkrZp2jR+veOOpZYVFRfHxE3O16ay69SJns2blzmvH8yfHwdtMgl5UXFxuedj+xYtYtwmw4eNXrAg9klxPX1Qy+c2nf27dCk1wXqqMG9mfr7AAgCAxBgSCgCArVKqCaen5OWV+nlqXl7c/eWXm6tKEbF+eKlNfb1Jvd6YPTv+M3Nmhcqbkpsbfxg9Ogo2mVy6b8uWkZWVVam67dG+fWRvss/HixbFS5vUZfzSpfHctGll9t+rQ4dKHS+ThyZNijkrVpT8XFhcHLd//nms2ySQ6Ny4cUlPjFTndtHq1ZG70fwPhUVFcecXX8TsjcpOZ+8Uv899X30V81euLLXswYkTy5TXpG7d2Ll165Kfv9uxY5myXpk1Kz5auLDUsnfmzi0z4XZWROyZQEhQnGLC8lTLAABgc9HDAgCArVLv/z51v7GHJk2Kz5Ysia5NmsSCVavio4ULo3AzN8Bu16JFTF2+vNSyP4weHYPatYtm9erF13l58WUFe1f8ftSo+HCTBu+I9Q3cx/fqVem6tW/UKA7t2jWen1F68KLrPvkkXp4xI3o0bRqLVq+ODxYsKBOQ9GnRIgbVYKP60jVr4tdvvRWD2rePJnXrxrjFi2NGfn6Z7b6/US+MZvXqRYeGDWPeRr1Ylq9bF798883Y/b89a75YsiTmbBI4pHP0NtvEU19/HXkbzQ+yYPXq+NWbb8ag9u2jad268dWyZWV6YUSsH4Zq40nP+7ZqFQPbto0xG71ehcXF8ftRo2K3tm2jY+PGMTs/P8YuWlRmKLN9O3WKbZo1q1Cdq+P1WbNiyn9/l+Xr1qXs6dGlSZNarwcAAKQjsAAAYKu0T8eOce+XX8aSjZ6uj4j4dPHi+HTx4pKfd2/bNmWjf205qkePeGXmzFJzI6wtKoqRmzxVv2njdiqpGvAjIn7Qs2fs2qZNlep3Wt++MTE3t0wj/LglS8oMabRBi3r14pLddqvS8dLp3qRJTM/PjzczzDOxQ8uWMbRHj1LLjt5mm7hr/PhSy5atXVtqqKvGOTnRvWnTGF/OcGBN6taNSwcOjN+PGlUqoFlVWJixXt9p1y5lYPS7XXeNM0aOjPkbBSpFEeuvvzSvdZfGjeOcnXfOWM+a8tGiRfHRokVp17du0CB2q+J1BQAANcGQUAAAbJUa5uTEZQMHRuOc9M/g7Nm+fZzer99mrNX6uQhO69cv7Y12Vqyfa2NI586VLrtunTpx6o47xq932KHK9WuQkxM37Lln7F/B4+/QsmXc/t3vRodGjap8zFSuGTw4umd4mr9Xs2Zx1e67lxnC6thtt4390swzErE+rLh0t92iS4oJvVPZtU2buHGvvaJjBX6/OhFxdI8ecWWKekVEtKpfP27be+8YUMFG/0Ht2sUte+8dTerWrdD2talp3bpx6W67RYMM7ycAAKht7kYBANhq9WvVKu7Zd994ZPLk+HDBgliyZk00ysmJHk2bxiFdu8bBXbqUetp9czlmm22id/Pm8cSUKfHFkiWRv25dtKhfP3Zs2TKO2Wab2Ll16zLzRqRSPzs7OjRsGO0aNoxB7dvHkE6don0NBAeNcnLijwMGxPE9e8bLM2fGZ0uWxPyVK2NFQUE0yM6O1g0axI4tW8a+nTqVmcS8prRr2DDu3Gef+NfUqfHm7NkxZ+XKKC4uji5NmsSBnTvH0dtsk3LOijpZWXHxgAExqF27eGHGjJiSlxcFRUXRpkGD2L1duzhu222jU+PG8drs2RWuy44tW8b9Q4bEm3PmxHvz58eEZcti2Zo1sa6oKJrUrRsdGzeOXVq3jsO6di13yKRWDRrEdXvsEeMWL47XZs+OL5YsiUWrV8fKgoJolJMTbRs2jH6tWsWBnTtH31atKn3eakp2VlY0qVs3ujZpEt9p2zaO6N49mtevn1h9AAAgIiKr2KxqAMBWokuXLjF79uzo1LRpjD/vvKSrA1TQia++WiY4em3o0IRqA98eO/71rzFn+fLo3LlzzNpo2DQAgC2VIaEAAAAAAIDECSwAAAAAAIDECSwAAAAAAIDECSwAAAAAAIDECSwAAAAAAIDE5SRdAQAA4JvtkQMPTLoKAADAVkAPCwAAAAAAIHECCwAAAAAAIHECCwAAAAAAIHECCwAAAAAAIHECCwAAAAAAIHECCwAAAAAAIHECCwAAAAAAIHECCwAAAAAAIHECCwAAAAAAIHECCwAAAAAAIHECCwAAAAAAIHECCwAAAAAAIHECCwAAAAAAIHECCwAAAAAAIHECCwAAAAAAIHECCwAAAAAAIHECCwAAAAAAIHECCwAAAAAAIHECCwAAAAAAIHECCwAAAAAAIHECCwAAAAAAIHECCwAAAAAAIHECCwAAAAAAIHECCwAAAAAAIHECCwAAAAAAIHECCwAAAAAAIHECCwAAAAAAIHECCwAAAAAAIHECCwAAAAAAIHECCwAAAAAAIHECCwAAAAAAIHECCwAAAAAAIHECCwAAAAAAIHECCwAAAAAAIHECCwAAAAAAIHECCwAAAAAAIHECCwAAAAAAIHECCwAAAAAAIHECCwAAAAAAIHECCwAAAAAAIHECCwAAAAAAIHECCwAAAAAAIHE5SVcAAKCy5uXnx45//WvS1QCALdq8/PykqwAAUCkCCwBgq1NUXBxzli9PuhoAAABADRJYAABbjQ4dOiRdBQDY6vj7CQBsLbKKi4uLk64EAAAAAADw7WbSbQAAAAAAIHECCwAAAAAAIHECCwAAAAAAIHECCwAAAAAAIHECCwAAAAAAIHECCwAAAAAAIHECCwAAAAAAIHECCwAAAAAAIHECCwAAAAAAIHECCwAAAAAAIHECCwAAAAAAIHECCwAAAAAAIHECCwAAAAAAIHECCwAAAAAAIHECCwAAAAAAIHECCwAAAAAAIHECCwAAAAAAIHECCwAAAAAAIHECCwAAAAAAIHECCwAAAAAAIHECCwAAAAAAIHECCwAAAAAAIHECCwAAAAAAIHECCwAAAAAAIHECCwAAoMoWLVoU559/fpx//vmxaNGipKsDAABsxbKKi4uLk64EAACwdRo8eHCMHj265N/vv/9+wjUCAAC2VgILAACgSpYtWxYtW7YstWzp0qXRokWLZCoEAABs1QwJBQAAVMm6desqtAwAAKAiBBYAAAAAAEDiBBYAAAAAAEDiBBYAAAAAAEDiBBYAAAAAAEDiBBYAAAAAAEDiBBYAAAAAAEDiBBYAAAAAAEDiBBYAAAAAAEDiBBYAAAAAAEDiBBYAAAAAAEDiBBYAAAAAAEDiBBYAAAAAAEDiBBYAAAAAAEDiBBYAAAAAAEDiBBYAAAAAAEDiBBYAAAAAAEDiBBYAAAAAAEDiBBYAAAAAAEDiBBYAAAAAAEDiBBYAAAAAAEDiBBYAAAAAAEDiBBYAAAAAAEDiBBYAAAAAAEDiBBYAAAAAAEDiBBYAAAAAAEDiBBYAAAAAAEDiBBYAAAAAAEDiBBYAAAAAAEDiBBYAAAAAAEDiBBYAAAAAAEDiBBYAAAAAAEDiBBYAAAAAAEDiBBYAAAAAAEDiBBYAAAAAAEDiBBYAAAAAAEDiBBYAAAAAAEDiBBYAAAAAAEDiBBYAAAAAAEDiBBYAAAAAAEDiBBYAAAAAAEDiBBYAAECFjBw5MoYPHx4ffPBBudt+8MEHMXz48Bg5cuRmqBkAAPBNkFVcXFycdCUAAIAt26uvvhoHHXRQRETUr18/Xn/99ejdu3e0a9eu1HYLFiyISZMmxf777x9r1qwp2feAAw7Y7HUGAAC2LnpYAAAA5XrxxRdL/r1mzZq44IILItWzT8XFxXHBBReUhBURES+88MJmqSMAALB1E1gAAADlGjBgQKmf33vvvXjrrbfKbPfWW2/Fe++9l3FfAACAVAwJBQAAlGvt2rWx/fbbx7Rp00qW7b777vHhhx+W2m7TZT169IiJEydG3bp1N1dVAQCArZQeFgAAQLnq1asXf/zjH0st2zSsSLXs4osvFlYAAAAVoocFAABQIal6WWSidwUAAFAZelgAAAAVkqqXRSZ6VwAAAJWhhwUAAFBhFe1loXcFAABQWXpYAAAAFVbRXhZ6VwAAAJWlhwUAAFAp5fWy0LsCAACoCj0sAACASimvl4XeFQAAQFXoYQEAAFTa2rVro3fv3jFjxoxSy7t16xaTJ08WWAAAAJWmhwUAAFBp9erVi/POO6/M8vPPP19YAQAAVIkeFgAAQJWsW7cumjdvHqtWrYqIiIYNG0Zubq7AAgAAqBI9LAAAgCqpW7duvP/++7HrrrvGrrvuGu+//76wAgAAqDI9LAAAAAAAgMTpYQEAAAAAACROYAEAAAAAACROYAEAAAAAACROYAEAAAAAACROYAEAAAAAACROYAEAAAAAACQuJ+kKAPDNMHDgwJg3b17S1QAAABLQoUOHGDNmTNLVAGArJ7AAoEbMmzcvZs+enXQ1AAAAANhKCSwAqFF16tSJjh3bJV0NAABgM5g7d0EUFRUlXQ0AviEEFgDUqI4d28WsWaOSrgYAALAZdOkyOGbPNjQsADXDpNsAAAAAAEDiBBYAAAAAAEDiBBYAAAAAAEDiBBYAAAAAAEDiBBYAAAAAAEDiBBYAAAAAAEDiBBYAAAAAAEDiBBYAAAAAAEDiBBYAAAAAAEDiBBYAAAAAAEDiBBYAAAAAAEDiBBYAAAAAAEDiBBYAAAAAAEDiBBYAAAAAAEDiBBYAAAAAAEDiBBYAAAAAAEDiBBYAAAAAAEDiBBYAAAAAAEDiBBYAAAAAAEDiBBYAAAAAAEDiBBYAAAAAAEDiBBYAAAAAAEDiBBYAAAAAAEDiBBYAAAAAAEDiBBYAAAAAAEDiBBYAAAAAAEDiBBYAAAAAAEDiBBYAAAAAAEDiBBYAAAAAAEDiBBYAAAAAAEDiBBYAAAAAAEDiBBYAAAAAAEDiBBYAAAAAAEDiBBYAAAAAAEDiBBYAAAAAAEDiBBYAAAAAAEDiBBYAAAAAAEDiBBYAAAAAAEDiBBYAAAAAAEDiBBYAAAAAAEDiBBYAAAAAAEDiBBYAAAAAAEDiBBYAAAAAAEDiBBYAAAAAAEDiBBYAAAAAAEDiBBYAAAAAAEDiBBYAAAAAAEDiBBYAAAAAAEDiBBYAAAAAAEDiBBYAAAAAAEDiBBYAAAAAAEDiBBYAAAAAAEDiBBYAAAAAAEDiBBYAAAAAAEDiBBYAAAAAAEDiBBYAAAAAAEDiBBYAAAAAAEDiBBYAAAAAAEDiBBYAAAAAAEDiBBYAAAAAAEDiBBYAAAAAAEDiBBYAAAAAAEDiBBYAAAAAAEDiBBYAAAAAAEDiBBYAAAAAAEDiBBYAAAAAAEDicpKuAAAA1JTly1dEXl5+rFq1JlatWh2LFi2NIUMGJV0tAAAAKkBgAQDAVmvNmrXxn/+8E6+/PirGjZsQubn5ZbZ55pk7onPn9gnUDgAAgMoQWAAAUGLMmM9j2LDL0q5v2LBBtG3bMvr27R1HHrl/7L77TpuxdqV9/vnEuPjim2PWrHlpt2ncuGFMnTpLYAEAALAVEFgAAFBhq1atjhkz5saMGXPjxRffjsMP3y8uvfS0yM7O3qz1+PTTr+L006+M1avXRHZ2dhx55JD43vf2jd69u0eTJo03a10AAACoGQILAABSOu64Q+K44w7daElx5Obmx2efTYhHHnkulizJjeeffzPat28dp5124marV37+yrjoor/G6tVrok2blnHttRfEzjtvv9mODwAAQO0QWAAAkFLLls2jV69uZZbvtlvf2Gef3eOkky6MNWvWxuOPvxCnnPKDqFu37map14MPPhMLFiyJxo0bxu23Xxo9e5atIwAAAFufOklXAACArc+223aNvfYaEBERK1asimnTZm+W4xYXF8dzz70ZERE//enRwgoAAIBvED0sAACoks6d25X8e+3agjLrR4x4Pa644vaIiHj22TujU6d2ZbZJZ+DAYyMi4pRTfhinnnp8yfIpU2bG/PmLIiLigAMGxyuvvBvPP/9WfPnllMjNzY/GjRtGjx6dY8iQQXHccYdEgwb1Mx6nqKgoXnppZLz00siYMGFq5ObmR5MmjaJnz65x4IF7xtFHH5C258jf/vZ43HPPExERMWbMU7F8+Yp45JER8dpr78fcuYuibt2c6N27exxzzEFx6KHfrfDvXpnzsbHbb384/vGPf5X8PGbMU2nLW7FiVfz736/EO+98FFOnzorc3PyoX79udO7cIfr37xMHH7x39O/fp9Q+v/71pTF27BeVqvdll50eQ4fun3LdypWr4oknXoy33vowpk+fE6tWrY6WLZtFv37bxdChQ+K73x1Ybvlz5iyII4/8TYXqsuk1uPG+meoZUfa13lR1X5+qnNuIiAED+sbdd19ZZvmaNWvj6adfjTff/CC+/npm5ObmR9OmjaJ37+5x8MF7xxFHDImcnMzzzowZ83kMG3ZZheqR7lpbtGhpPP74CzFq1Kcxa9a8WLFiVRQVFZXZLtN5AwDg20VgAQBAlcydu7Dk3x06tNksx9wQVkREXHPNPTFmzOel1ufmLo9PP/0qPv30q3jssefj5pv/mLYXRm7u8jj33Gvi00+/KrV82bK8+OijL+Kjj76IJ554MW655Y/RsWPmsGX27Plx+ulXxqxZ80qWrVoVJeW89dYHMXz42eU2ElfVvHkL45FHnqvQtqNHfxp//ONNsWxZXqnlBQUFMXHi1Jg4cWo88cSLGQOP6vrqq6/jnHOujoULl5RavmDBknj99VHx+uujYsiQQfGnP50d9evXq7V6bC6VeX2qa+LEaXHeedeUen9GRCxdmhcffPBZfPDBZ/Gvf70SN954UbRu3aLW6vHll1PitNOuiOXLV9TaMQAA+OYRWAAAUGnTps2KkSM/ioiInXbarlYbPje2cSP7hrBil136xPHHfy+6du0QS5fmxYsvvh0vvvh2zJu3KIYNuywee+zGMvUrLCyMc865OsaNmxAR659U/+EPD4vOndvFwoVL4tlnX4833/wgpk6dFb/5zRXxyCPXR6NGDdPW66KLbog5cxbEscceHAccsEc0adIoJk2aHvff/3TMmDEnXnnlvWjTplWcd94vav6kRMQttzwYa9asLXe7MWM+izPPvCoKCwsjO7tOfO97+8a+++4eHTq0jTVr1sbUqbPi3XfHlry2qey4Y8+49NIz0q5ftGhJnHHG8LTrFyxYHKeddkXk5eVHVlZWHHHEkDjkkL2iefOm8fXXM+Phh0fExInT4o03Rsfll98WV199brm/V0TEb37zo9h33++UWvbWWx/EnXc+WqH9a1N5r89ll50eq1atKbP8yitvi/Hjp6Q95w0blu5BNHPm3Pj1ry+J/PyV0bhxo/jhDw+Nvn17Rfv2bSI3d3m89daH8a9/vRLjx0+O8867Ju6990+Rk1P+V8JLLz09dtyxV6llTz75Ujz55Mtp97niittKwop99tk9hg4dEh07ti11vBNOOKfcYwMA8O0isAAAIKWlS3Nj8uQZGy0pjuXLV8S4cRPjkUdGxJo1a6NJk0Zx7rm10wifyqbDyRxyyN4xfPhZUafO/6Zm23PPXaNv315x/fX3xdKleXHDDf+Iq64q3TD61FP/KQkrDj98v7j88jMiKysrIiJ22KFn7LPP7iVD+MyaNS/uvffJOPPMk9LWa/z4yfGnP51dauinHXfsFQceuGeccsrFMXHitHj88RfiqKMOSDmReXWMGzch/vOfd0vq/uWXU1Jut2bN2rjkkluisLAwGjSoHzfd9IcYOLBfqW122aVPHH30gTFv3qKUZURENGjQIOPv0KhRg4z1/etf/xF5efkREfHHPw6Lo48+sGTdDjv0jIMO2ivOPPNPMWbM5/HKK+/GEUfsVzJfyqYKCwtL/t2+fesy9fryy8kZ67I5VOT16dy5fcp9GzRoUPL/ilw3l112a+Tnr4ztt98mbr/90mjRolmp9YMH94/vfndgnH32n+PzzyfFiBFvxDHHHJSyrI3PbefO7cscv2XL5mnrMWvWvJLPju9+d2DccMPvy607AABEmHQbAIA0nnzy5TjhhHM2+u/cOOWUS+LWWx+MpUvz4thjD4777/9L7LTTdonUr0WLZnHRRaeWCis2OOGEw2O33fpGRMSrr74fixYtLbX+n/98KSIiWrZsFhdeeHJJWLGxU089IXr06BwREU8//WqsXbsubV2++93dUs5T0bhxw/jDH4ZFxPqw5amn0j+RXhXFxcVxww3/iIiI73xnp9h7793Sbvv882+WDMF0+uknlgkrNlZbQ3wtXLgk3nxzdESsD5Y2Dis2qFevblx66emRnb1++KwnnngxbXkFBf9rVK9IT4HNrTKvT3V9/PH4khDuiit+Wyas2GDPPXeNAw4YHBERI0a8kba80ue2ckOZLVq0rOTfgwbtUql9AQD4dhNYAABQaUVFRfGf/7wbTz75csaG/Np00EF7RpMmjdKu//73D46I9U+Kf/TR/yY0XrhwSUydOisiIg48cM9o3Dj1UE85OdklEzHn5eXHV199nfZYmSZs7tevd2y7bdeIiPjgg3Fpt6uKl14aGZ9/Pinq1KkT55zz84zbbhjmqWHDBmmfqq9tH330RRQWru8lc+SRB6TdrlOndjFo0M4b7VOYcrt16/432fuWGFhU5vWprrff/jAiIrp37xS9enXPuO2uu+4YERHjx08pFUxsbONzW7du5c5t06b/e19OmDC1UvsCAPDttuXd1QMAsEU45ZQfxqmnHl9q2erVa2LWrHnx/PNvxSOPPBePPvpcfPnllLjttkuiQYP6aUqKmDFjTqxcuToiIrKyIho0qB+tW7fIuE95+vXrnXH9zjv/r+fH5MnT45BD9o6IiClT/jfMVXllbLx+ypQZsfPO26fcbtPx/TfVt2/v+PrrmTFjxtxYt25d1K1bN+P2FbF69Zq47baHIyLiqKP2j969e8Trr49Ou/3EiesbjnfYYdtqnffqqNy53y7ee+/jWL16TcyePT+6detUZpuNJ3SuX7/q53TBgiWbDH9W2tKluZUus7KvT3WNH79+qKnp0+fEwIHHVmifgoKCyMvLj1atyg7vlJ//v3Nbr17lJj7fZpsu0b5965g/f3GMGPF6tGzZLI4++oDo2LFtjVz7AAB8cwksAACosAYN6kevXt3jrLN+Gt26dYyrrrorPvnky7jvvqfitNNOTLtfqkmY69SpE716dY9jjjkwjjnmoAoNO7Px0E2pGlk31rp1y5J/b5gzISIiN/d//y6/jBYp99tU+eWsX19cXBx5eStqZJLyhx56NubPXxSNGzeMYcN+VO72y5Yt/29dWpazZe2p6rnf+PXb2MbLW7ZMPQRSRdx556M1Pjl3ZV+f6qpKqBKxPlhJZePXqrLntk6dOnHJJafH7353faxYsTIeeODpeOCBp6tUPwAAvl0EFgAAVMlRRx0Qt932UOTm5sezz76eMbBIpaioKCZOnBp/+cs98c47H8WNN16Ucj6KjdWv/78nvVPNO1FZNVHG+nJqpJgKW7Roadx//9MREfGLX3y/RgKQza0mztnixf+bm6RVqxbVL7CGJPH6bBhqa7vtesSVV55V4f3atWuVcvnixcsiYn340KJF00rXZ/DgXeLxx2+MBx54Ol5++Z3IzV1e6TIAAPj2EVgAAFAlderUia5dO0Zu7qRYtGhpLFu2PG3D5rPP3hmdOrWLiPW9DJYsyY3PPpsYt932UEybNjvefXdsvPDC23HEEftlPGbTpk1K/r2hQTWdjRuzmzX7337Nm1emjP+t33i/stvlZpyoevHi9U+/Z2VlRbNmjTMesyJuv/3hWLVqdXTu3C5OPHFohfZp0aJpzJ+/uNR52dxKn/vyztmykn9v/PptbMaMuRGxfqLudu1aV7lel112esZ5SP72t8fjnnueqHB5VXl9qqt58/XvvZUrV0evXt2qXd7MmevPbceObUsmQK+sDh3axGmnnRhvvfVh5OYuj8GDd4mzz/55yfoTTjin2vUEAOCbxaTbAABU2Yanutf/O/XkvZvKysqK1q1bxH77fSduvvmPJcvfe29suftu3BD7+eeTMm47btzEjfb73yTEPXtWvIwvvvjf+o3329T48ZMzlrNhfdeuHas9hv9XX30dzz//VkRE/Pa3J0W9ehUrb/vtt/1vXaakHQaotlXl3DdoUD86d26fcpsNEzpvs02XCg0ptjlU9fWpru233yYiImbPnh+LFlU/lNow58l22/WoVjk33/xAzJ+/KBo1ahB//OOw6NWrW8l/AACwKYEFAABVsnr1mvj665kRsX6opqoMG9O5c/uSp+7TzVOwsTZtWkb37usnX37llfdixYpVabd9+ulXIyIiOzs7dtutb8nytm1bxTbbdImIiFdffS9WrkxdRmFhYTz33BsRsf4J/z59tk17rOeeezPtui++mFwy2fSgQTun3a6ibrjhH1FUVBT9++8QBx64Z4X322efgRGx/nX7179eqXY9qmK33fpGdvb6ryDPPvta2u3mzVsYo0eP22ifsmFEfv6K+Oyz9aHUgAF9y6xPSlVfn+rad9/dI2J9D6bHHnu+WmVNmzYrZs9eEBERAwbsWOVyPvzws/j3v9dfa6ef/uPo2LFdteoFAMA3n8ACAIAq+dvfHo81a9ZGRMQee/Sv0rAxU6fOKpnct23b1GPpb+r73z84IiKWLcuLv/zlniguLi6zzRNPvBgffvhZREQceOAe0aZN6Ymmf/CDQyMiYunSvLjuuvtSHueee56Ir7+eFRERRx99YMYn5d9++8N45ZV3yyxfuXJV/PnPd0XE+iG0vv/9g8r79TJ6660PYuzY8ZGVlRXnnPPzSu172GH7lMxXcMcdj8RHH32Rdtv58xdXp5pptW3bKvbbb1BERLz33sclgdDG1q1bF1deeXsUFBRERMQPf3hYmW2Kioriuuvui7Vr10VExCGH7F0r9a2s6rw+1TV4cP/o27d3REQ8+OAzKa/HjU2ePD3efvvDMsvXrFkb117794iIyMnJif3336NK9Vm1anX86U93RETELrv0Sfk6AgDApsxhAQBASkuX5sbkyTNKLVu7dm3MmDE3XnjhrXjvvY8jYn3vimHDTshY1urVa0p6MhQXry/700+/ir/97fGSbQ44oGINoz/84aHx/PNvxsSJ0+KFF96KuXMXxA9/eFh07doxli7NjRdfHBkvvLB+SJ6WLZulbDg+9tiD46WXRsa4cRNixIjXY968hXHccYdE587tY9GipfHMM6/FG2+MjoiILl06xMknH5exTjvu2DMuvvimGDt2fBxwwOBo3LhRTJo0Pe6//98xffqciFgfkvTu3aNCv2M6EydOi4j14UPfvr0qtW/9+vXiyivPjNNPHx6rV6+J0067Ir73vX1jv/2+E+3bt461a9eVzCfy9tsfxvvvP15+oVVw7rm/iA8//Czy8vLjyivviE8++SoOOmjPaNasSUybNjsefPDZkuGIDjpoz9hrrwEl+65YsSrefHN0/POfL5UMKXXIIXtHv369a6WulVWd16cmXHXV2fGzn/0ucnPz46KLbogXXng7Dj54r+jatWNkZ9eJJUtyY8KEqTFy5Jj47LOJ8ZOfHBn77LO+Z8bSpbnx+uuj47HHno+pU9cHdSeddGS0b1+1uUFuvfWhmD17QdSvXy8uueS0GpvgHgCAbzaBBQAAKT355Mvx5JMvZ9ymZctmMXz4WaXmiEjlhz88O+P6E074Xuy9924VqlfdunXjllsujrPOuiomTJgaH3/8ZXz88ZdltuvYsW3cdNMfyvSuiFg/TNSNN14U5557TXz66Vfx4YeflfTI2Ng223SJW275YzRq1DBjna6++rw47bTL45//fCn++c+Xyqzff//BNfbEfYMG9eOMM35cpX0HDtwpbrrpovjjH2+KvLz8GDHi9Rgx4vUaqVdFtW/fOu6447I455yrY+HCJfH006+WDN+1sSFDBsXll/+21LIvv5wSl112a6ltLrnktFqvc2VU5/Wpri5dOsR9910dF154XUyZMiNGjhwTI0eOSbt948b/u67feeejuPrqv5X8/IMfHFpuEJnOxx+PL3kfnHzyD6JHj85VKgcAgG8fgQUAABVWt25ONGvWJHr27Bp77jkgjjxy/2jWrEmly6lfv160bdsq+vXrHUcffUAMHLhTpfZv06Zl3H//X+L559+M//zn3Zg0aVrk5a2Ixo0bxjbbdIkhQwbFscceHA0a1E9bRvPmTeOee4bHiy++HS+//E5MmDA1cnPzo3HjhtGrV7c44IA94phjDqzQJNmdO7ePBx+8Lh588Jl4880PYu7chZGTkx3bbdcjjjnmoDjssH0q9ftlctJJR0W7dlV76j0iYo89do1nnrkjnnzy5Rg5ckxMnz4n8vNXRIMGDaJr1w6x6647xqGHfrfG6ptKnz7bxlNP3RJPPPFivPnmBzF9+pxYvXpNtGjRLPr16x1Dhw4pefJ/Y3XqZEXXrh2ib9/ecdRRB8Tuu1fuutkcqvv6VFf37p3ikUeuj1deeS9ef31UjB8/OZYuzYuioqJo3rxpdO/eKfr33yGGDBlUal6W7Ozs2HbbLrHTTtvHcccdEjvs0LNKx1+9ek0MH35HFBcXx/bbbxMnnXRUTf1qAAB8C2QVpxr0FwAqqUuXLjF79uzo3LlDzJo1KunqANS6v/3t8bjnniciImLMmKcSrg0AJKNLl8Exe/a86Ny5c8yaNSvp6gCwlTPpNgAAAAAAkDiBBQAAAAAAkDiBBQAAAAAAkDiBBQAAAAAAkDiBBQAAAAAAkLicpCsAAABbo1NPPT5OPfX4pKsBAADwjaGHBQAAAAAAkDiBBQAAAAAAkDiBBQAAAAAAkDiBBQAAAAAAkDiBBQAAAAAAkDiBBQAAAAAAkDiBBQAAAAAAkDiBBQAAAAAAkDiBBQAAAAAAkDiBBQAAAAAAkDiBBQAAAAAAkDiBBQAAAAAAkDiBBQAAAAAAkDiBBQAAAAAAkDiBBQAAAAAAkDiBBQAAAAAAkDiBBQAAAAAAkDiBBQAAAAAAkDiBBQAAAAAAkDiBBQAAAAAAkDiBBQAAAAAAkDiBBQAAAAAAkDiBBQAAAAAAkDiBBQAAAAAAkDiBBQAAAAAAkDiBBQAAAAAAkDiBBQAAAAAAkDiBBQAAAAAAkDiBBQAAAAAAkDiBBQAAAAAAkDiBBQAAAAAAkDiBBQAAAAAAkDiBBQAAAAAAkDiBBQAAAAAAkDiBBQAAAAAAkDiBBQAAAAAAkDiBBQAAAAAAkDiBBQAAAAAAkDiBBQAAAAAAkDiBBQAAAAAAkDiBBQAAAAAAkDiBBQAAAAAAkDiBBQAAAAAAkDiBBQAAAAAAkDiBBQAAAAAAkDiBBQAAAAAAkDiBBQAAAAAAkDiBBQAAAAAAkDiBBQAAAAAAkDiBBQAAAAAAkDiBBQAAAAAAkDiBBQAAAAAAkDiBBQAAAAAAkDiBBQAAAAAAkDiBBQAAAAAAkDiBBQAAAAAAkDiBBQAAAAAAkDiBBQAAAAAAkDiBBQAAAAAAkDiBBQAAAAAAkDiBBQAAAAAAkDiBBQAAAAAAkDiBBQAAAAAAkDiBBQAAAAAAkDiBBQAAAAAAkDiBBQAAAAAAkLicpCsAwDfL3LkLokuXwUlXAwAA2Azmzl2QdBUA+AYRWABQo4qKimL27HlJVwMAAACArYzAAoAa0aFDh6SrAAAAJMT3AQBqQlZxcXFx0pUAAAAAAAC+3Uy6DQAAVNkLL7wQ3bt3j+7du8cLL7yQdHUAAICtmB4WAABAlRQVFUWXLl1i7ty5ERHRqVOnmDlzZtSp47koAACg8gQWAABAlSxcuDDatWtXatmCBQuibdu2CdUIAADYmnn0CQAAAAAASJzAAgAAAAAASJzAAgAAAAAASJzAAgAAAAAASJzAAgAAAAAASJzAAgAAAAAASJzAAgAAAAAASJzAAgAAAAAASJzAAgAAAAAASJzAAgAAAAAASJzAAgAAAAAASJzAAgAAAAAASJzAAgAAAAAASJzAAgAAAAAASJzAAgAAAAAASJzAAgAAAAAASJzAAgAAAAAASJzAAgAAAAAASJzAAgAAAAAASJzAAgAAAAAASJzAAgAAAAAASJzAAgAAAAAASJzAAgAAAAAASJzAAgAAAAAASJzAAgAAAAAASJzAAgAAAAAASJzAAgAAAAAASJzAAgAAAAAASJzAAgAAAAAASJzAAgAAAAAASJzAAgAAAAAASJzAAgAAAAAASJzAAgAAAAAASJzAAgAAAAAASJzAAgAAAAAASJzAAgAAAAAASJzAAgAAAAAASJzAAgAAAAAASJzAAgAAAAAASJzAAgAAAAAASJzAAgAAAAAASJzAAgAAKNfq1avjzDPPjJ122ikuueSSKC4uTrttcXFxXHzxxbHTTjvFmWeeGatXr96MNQUAALZWOUlXAAAA2PLdfffdceutt0ZExOeffx7t27eP448/PuW2t912W1x11VUl2/bq1SvOPPPMzVZXAABg66SHBQAAUK6FCxeW+vmqq66KVatWldlu1apV8ec//7nUskWLFtVq3QAAgG8GgQUAAFCu733ve6V+njdvXjz44INltnvggQdi3rx5pZYddthhtVo3AADgmyGrONPgswAAAP91yCGHxH/+85+Sn9u1axcLFiwotc2myw455JB46aWXNlsdAQCArZfAAgAAqJD33nsv9tprr0rvs8cee9RSjQAAgG8SQ0IBAAAVsueee8bBBx9c4e0POeQQYQUAAFBhelgAAAAVVpleFnpXAAAAlaGHBQAAUGEV7WWhdwUAAFBZelgAAACVUpFeFnpXAAAAlaWHBQAAUCnl9bLQuwIAAKgKPSwAAIBKy9TLQu8KAACgKvSwAAAAKm3PPfeM/fbbr8zyIUOGCCsAAIAqEVgAAABVcumll1ZoGQAAQEUYEgoAAKiynXbaKT7//POIiOjXr1989tlnCdcIAADYWgksAACAKisoKIj77rsvIiJ++ctfRk5OTsI1AgAAtlYCC/6fvTuP86qq/wf+AgFBdkFkExH3PRHFfcElLTHNJdPKFnfTUitTyy3NvqamlYlpqZX7LiYuuCsiIi4JIiIiOOy7CAgM8/uDHxPjzMAMDFyx5/Px6NFn7r3n3Pfnzh0fel/3nAMAAAAAAIWzhgUAAAAAAFA4gQUAAAAAAFA4gQUAAAAAAFA4gQUAAAAAAFA4gQUAAAAAAFA4gQUAAAAAAFC4BkUXAMCXQ48ePTJhwoSiywAAAArQvn37DB48uOgyAFjDCSwAqBMTJkxISUlJ0WUAAAAAsIYSWABQp+rXr58OHdoVXQYAALAajB8/KYsWLSq6DAC+JAQWANSpDh3a5eOPBxZdBgAAsBp07rxLSkpMDQtA3bDoNgAAAAAAUDiBBQAAAAAAUDiBBQAAAAAAUDiBBQAAAAAAUDiBBQAAAAAAUDiBBQAAAAAAUDiBBQAAAAAAUDiBBQAAAAAAUDiBBQAAAAAAUDiBBQAAAAAAUDiBBQAAAAAAUDiBBQAAAAAAUDiBBQAAAAAAUDiBBQAAAAAAUDiBBQAAAAAAUDiBBQAAAAAAUDiBBQAAAAAAUDiBBQAAAAAAUDiBBQAAAAAAUDiBBQAAAAAAUDiBBQAAAAAAUDiBBQAAAAAAUDiBBQAAAAAAUDiBBQAAAAAAUDiBBQAAAAAAUDiBBQAAAAAAUDiBBQAAAAAAUDiBBQAAAAAAUDiBBQAAAAAAUDiBBQAAAAAAUDiBBQAAAAAAUDiBBQAAAAAAUDiBBQAAAAAAUDiBBQAAAAAAUDiBBQAAAAAAUDiBBQAAAAAAUDiBBQAAAAAAUDiBBQAAAAAAUDiBBQAAAAAAUDiBBQAAAAAAUDiBBQAAAAAAUDiBBQAAAAAAUDiBBQAAAAAAUDiBBQAAAAAAUDiBBQAAAAAAUDiBBQAAAAAAUDiBBQAAAAAAUDiBBQAAAAAAUDiBBQAAAAAAUDiBBQAAAAAAUDiBBQAAAAAAUDiBBQAAAAAAUDiBBQAAAAAAUDiBBQAAAAAAUDiBBQAAAAAAUDiBBQAAAAAAUDiBBQAAAAAAUDiBBQAAAAAAUDiBBQAAAAAAUDiBBQAAAAAAUDiBBQAAAAAAUDiBBQAAAAAAUDiBBQAAAAAAUDiBBQAAAAAAUDiBBQAAAAAAUDiBBQAAAAAAULgGRRcAAMAXw4IFCzJ16szMmzcvc+bMy9SpM7LZZhtl/fXbFF0aAAAA/wMEFgAA/8PeeWdEHn74mQwe/J+UlEzKokWLKuw/8cSjc/LJ3yqoOgAAAP6XCCwAANYwCxYsyNNPD8yAAW9k6ND3M2PGrMyePTfNmq2TDh3Wy9Zbb5JevXbJTjttm/r1q54BdM6cubnsshvy5JMvV3uetdaqn3HjJq2qrwEAAAAVCCwAANYgzzwzMNdee1uVQcLMmZ9k5sxPMnz4qNx//5Pp0qVjzj77+9ljjx0rHPfZZ/Nz+umX5j//GZEk2WabTfPtbx+S7bbbLB06tFst3wMAAAA+T2ABALCGuPnme9Onz13lP/fsuX322qtHunXbIM2bN83MmZ/ko4/G5cUXB+fVV9/OmDHj8pe/3FEpsPjjH/9ZHlacfPK38qMfHVntSAwAAABYXQQWAABrgEceeaY8rFh33Za54opzsuOOW1c6rmfP7XP00Qdn5MgxueaaWzJjxqwK+0ePLsl99z2eZHFYceKJR6/64gEAAKAGBBYAAF9wkyZNzZVX3pwkadKkcf7610vTtWvnZbbZZJMu+fOff53HH3+xwvbHHns+paWL0rVrp/zwh0esspoBAACgtgQWAABfcHfc8WjmzfssyeJREcsLK5aoX79+vva1vStse+WVN5Mk++7bMx99NC533/1YXnvtnUycOCX169fPeuutm5133jbHHPO1Gp1n5MiPcvfdj2Xw4HcyadK0rLVW/bRv3zY9e34l3/7219OxY9VrYowbNymHHnpqkuSii05P79690r//gDzwwJN5//2PMmfOvLRv3zb77tszxx9/eJo3b1qj77w8F1/8pzz66HPLPe6QQ/bJxRefUeW+jz+ekOeeG5TXX38nI0eOybRpM5MkrVu3yLbbbpbevXtlt912qLbvvn2fySWXXJ8keeSRG6q9Rkly0kkXZsiQoenefev89a+XVtg3ePA7OeWUi5Ikffpckh49tqm2nyXfu0OH9dK3b58K+6r6XdRUdfWNGTMuxx3388ydOy+bbbZRbrvtijRs2LBS+4ULS/OjH12QoUPfz9prN8o//3llunXboMbnX9qK3os1sfS1rqmaXuuVue8XLFiQhx56Ov37D8gHH4zN7Nlz0rJls2y++UY56KA9c9BBe9Zourfnnns1/fq9mHfeeT/Tp89Mo0YNs8EGHbLnnj1yzDFfS4sWzapst6z7aomrr74ld975aJLkxBOPzsknf6tC29qq7lylpaXp1++F9O//SoYPH5WZMz/JOus0TteunbPvvj1z5JFfTePGa9f6fAAArF4CCwCAL7CysrLyh3pNmjTO4YcfsFL9TZw4JUny1lvD849/PJzS0tIK+8eMGZcxY8blwQf758wzv5vjjutdbV+33PJAbrjhzixatKjC9lGjPs6oUR/n/vufyPnnn5JDDtlnuXVdeun1eeSRZyps++ijcbn11gfz738/nxtuuKjGQc2qVFIyMYcddnqV+yZMmJIJE6bkqacG5OCD98pFF/04DRqstZor/GJYsuD75Zf3yYgRH+Yvf7kzP/nJ9yodd9NN92To0PeTJGec8d0VDivq8l5cnVbmvh83blLOPPOyjB5dUmH71KkzMmDAGxkw4I088MBTufrqc9OyZfMq+5g1a3bOPfeqvPbafypsnz9/Qd5994O8++4Hue++x3P11b/MtttuVuvvd+ONd5eHFd/+9tfLw4q6NmHC5Jx99u8yYsToCttnzpydt94anrfeGp77738i1157QTbcsOMqqQEAgLohsAAA+AL74IOx5etQ7LDDlmnatMlK9TdjxidJkiFDhiVJWrZslu9+97B0775V+fZ//OOhzJo1O3/4w61p1mydfOMb+1Xq5957H8/119+eZPHIguOPPzzbb79FSksXZdCgt/PPfz6cuXPn5ZJL/pxWrZpXWvi7Yl9PZNiwkdl6601z7LGHpEuXDpk2bWYeffTZPPXUgEyePC0//vFvcvfd1670919ivfXWzZ/+9OtK28844zeZPHlate0WLVqUhg0bZJddvpKePbdPt26d06JFs8yaNTtjxozLPfc8nlGjxqZfvxfSufP6OfnkY+qk3jXR4YcfkJdeej3PP/9abr+9b3bffYf06LFt+f433xyeW299IEmy22475FvfOniFzlOX92JNXHjh6dlqq02q3X/DDXfk+edfq0HdK37fz5kzN6eeenFKSiYmSfbZZ+ccemivrLfeuikpmZR77umXIUOG5s03381ZZ12Rm276TdZaq2J4Nn/+gpx22iUZPnxU1lqrfr761T2z++7d06lTuyxcWJohQ4bl9tv7Ztq0mfnJTy7P7bf/Ph061HyUyp13PpqbbronSdK7d6+cffYPKuw/7bRj853vfKPa61fd32jDhhX/E3bGjE/yox/9KhMnTkmjRg1z2GH7p3v3rdOx43qZM2deXn31rdx5578zduyEnHnmZbn99t+nWbO6GbEFAEDdE1gAAHyBvf/+6PLPW2zRbaX7W/oN9DZtWuWWW66oMFXOdtttnv322yU//OH5mT59Vq6++u/ZZ5+dK7yhPX36zFx33T+SLH7wf8stV6R9+7bl+7/ylS2y1149cuKJv87cufPy29/2ySOP3JAGDar+V89hw0Zm99275+qrf1lhRMLuu3fPxht3SZ8+d2XChCm5+eZ7q3xLvzZKSxd//wYN1somm3SptH95IyLatm2dvn37pG3b1pX27bzzdjniiK/m0kuvT9++z+Zf/+qb447r/T/9cPTXvz4t77xzVqZOnZGLLvpT7rzzmrRo0SyzZ8/JhRdel9LSRWnVqkUuvPD01KtXr9b91/W9WBMdO7ar8t5ZoqbTl63MfX/TTfeUhxU/+tGROfXUb5fv23LLjbPffrvkwgv/mH79Xsjbb7+XBx98KkceeVClPoYPH5XmzZvmL3+5KFtuuXGF/V/5ypY5+OA984MfnJ8pU6bn+uvvyGWX/bRG361v32dyzTW3Jkl69dolv/rVKZV+v+3atUm7dm0qtV1y/ar7G/28q676WyZOnJIOHdZLnz6XpFOn9Svs79Fjm+y336458cRfp6RkYm677aGcfvpxNfoeAACsfsuf0BQAgMLMnPlJ+ed1121Zp32fddb3q5zXf4MNOpQ/IJ0zZ1769n22wv5HHnm2fE2Ns876foUHxEtssUW3fP/7hydJJk2alueeG1RtHY0aNcyvfnVqlWHBD394RDbeuMv/P+/TWbBgQQ2/XdXmz1/c/vNvm9dUkyaNqwwrlqhXr15++tPjs9Za9TN37ry8+urbK3SeL4tWrVrk4ot/nHr16mXixKm54oobkyRXXnlzxo2blCT51a9OWeY1XZa6vhdXpxW97+fPX7xuRZJ067ZBTjrp6Ert69Wrl3PPPbE8aLznnn4V9s+ZMzf33vt4kuSUU46pFFYs0aFDu5xwwpFJkv79X8ncufOW+72effbVXHbZDSkrK8suu2yfyy//6Qr/vS3PuHGT8tRTLydJfvGLEyqFFUtssUW3HHXU4sBmRdbNAABg9RFYAAB8gX366dzyz3W5YGzz5k2z//67Vrv/wAP3SNOm6yRJXn31rQr7Bg16u7yPXr16VtvHYYftX/55WQ/ue/bcPuutt26V++rXr1++7sDMmbMzfPiH1fZTE0sCi8aNG61UP0ssXLgwEydOzYcffpyRI8dk5MgxmTx5evmD4qVHyPyv2nXX/0739NRTA3LBBX/IY489n2TxPbLPPtXfQ8tT1/fi6rSi9/27736QTz75NEnSu/e+1YYBzZqtkwMO2C3J4rU8pkyZXr5vyJBhmT17TpJkv/2q/+dAkuyww+Lp4hYuXJh33/1gmce++upbueCCP6S0dFG2227zXHXVuVUutl5XXnrp9ZSWLkrjxmsvc6H7JOXT3k2ePC0TJkxeZTUBALByTAkFAPAFtvTc9UveJK8LW2zRbZnT4jRq1DBbbLFRXn99aEaOHFNh3wcfjKlRH23atErHju0ybtyk8jZV2Xrr6tcD+Pz+kSM/WqHFf5dYMmJl7bVXPPxZuHBhHnjgqTz22PN5770Ps2DBwmqPXbJmSHXGjBmXOXOqf2t93rzlv9GeLH7T/PO/p6UtecC9PJMmTavQT6NGDdK6dcsaT3NUnTPO+G4GDfpPRo0amyeeeClJ0qVLh5xzzg+W03LZ6vpeXJ1W9L5fuv5tttl0mX1ss82mue++J/5/H2PKR7IMG/bf4OGgg06occ1Tp86odt9//jMiP/vZleWh4Ne+tnedhqxVWRKgzJv3WXr2rDzSpDpTpsxI+/brraqyAABYCQILAIAvsKXXjljWw8Laat26xXKPadOmVZJk1qzZFbYv+bmmfYwbN6lSHxVrWfZUV+uu26r888yZ1fdTE0sW1F7R6bVmzvwkP/7xb5b7pvkSn302f5n7f/zj36xQHZ936aXX10k/N9xwZ2644c5K29u3b5uvfnWPHH/84WnRolmt+1177Ub5xS9OyCmnXFS+7aKLfpwmTRqvVL11fS+uTit63y9d//L6WPI3/Pl206fPrGGVFVUXms6a9Wl+8pPLM3fuvNSrVy9lZWW5/vrbs9dePapcp6KuTJtWt98DAIDiCSwAAL7ANt20a/nn995buemQksUPjj/7bP4KLXD8eXXRx+J+6qSb5Vq4cGEmT148LU5Va3fUxFVX/b08rNhnn51z6KG9summG6Z165ZZe+1G5dfk618/ORMnTklZWVndFF+wCROm5LbbHkr//gPyt7/9doXWnLj77scq/Dxw4FvZfvst6qS+uroXV6e6KHlFv/eSxeeT5F//+n2NFyFff/2qw4dPP53z//e3zW9+c2bOOuuKfPLJp7n88j657roLVqjGmli0aPH3aNWqRfr0uaTG7Tp1WrG/fwAAVj2BBQDAF9jGG2+QVq1aZMaMWXnjjXcze/acNGu2zgr316JFs0yePK1GbyYvGdHx+TfqW7RolilTpq9UH0tbXj/Tps0o/9yyZe3f7l9i5MgxWbhw8fRNXbt2qnX72bPn5KmnBiRJDj54r/zmNz+p9thPPqnZW/yPPHLDMsOTk066MEOGDF1uP336XJIePbapdv/FF/+pRosNX3TR6endu1f5z5988mlGjRqbv//9/rz88pCUlEzK9dffkYsuOn25fS3t4YefzrPPvpokadp0nXz66Zz8/e/3Z/fdd8g226z4FF91fS+uTit63y9d/7RpM7Lhhh2r7WPpUVlLt1u6v9atW1YbRNRG69Ytcv31F6Zr104544zv5ne/+2tefnlIHnnkmRx6aK/ld7ACloxAmzNnbjbaqNMqW9wbAIDVx6LbAABfYPXq1StffHfu3Hl56KH+K9XfxhtvkCQZPnxU+cP7qixYsKB8od9NNunyuT66LNVHabV9TJs2M+PHT67QpipDh45cZs1Lz7e/rH6W5+233yv//JWv1P7N/rFjx5dfsyWLGVdl9OiPl7kuxZqkefOm2X77LXL11edmgw3aJ0kGDBhSqz4+/nhCrr7670kW//7+9a8r07x505SWlubXv74uc+eu+LWq63txdVrR+37pz++8836Nz7H03/Hmm3cr//zWW8OXX+xyrL12o/zpT78uDwKPOOLA7LzztkmSa665JZMmTV3pc1Rl8803SpLMn7+gxtO0AQDwxSawAAD4gjv22EPKF6+98ca7M3r0xzVqt2jRovTr90KFbUvewv/kk0/z9NMDq2375JMvl0/z0rPn9hX27bzzduV9PPts9X08/PDT5VMi9ey5XbXHvfrqW5kyZXq13+HRR59NsvgN8S226FblcTXRv/8rSZJ27dbNJptsWOv2paX/fSA+d271c+Dff/+TtS/uC65Bgwbl16w2a0CUlpbmwgv/mDlz5qVRo4a57LKfZIMNOuS8805OkowdOyFXX33LCtdV1/fi6rSi9/2WW25cvgj6o48+Vz4t0ud9+unc8hFB3bp1rjCNV8+e25X/M+Wuu/690lOXrbtuywo11qtXL7/+9WlZZ53GmT17Ti6/vM9K9V+dPffsUT4t1h13PLpKzgEAwOolsAAA+IJr165NfvGLE5IsHmVx0kkX5vXXlz1N0KhRY3PGGZfln/98uML2Qw7ZN40aNUySXHvtbZkwYXKlth9/PCF//OM/kyTrrNM4vXvvW2H/oYfuW/6w89prb6vy7ekRI0bnllvu///1r5t99tm52lrnz1+Qyy/vUyEQWOLWWx/MyJFj/v95e5XXXluvvz40b7wxLEnyjW/st0Jz/3fu3KG83b///VyVD3lfeOG13HNPvxWq8Yts3rzPMnz4qCTJeuutW+N2f//7/eUjW0477djyNVkOPHD3HHzwXkmShx7qn+eeG7RCddX1vbg6reh936hRwxx22H5Jkg8+GJObb76vUvuysrJceeXNmTFjVpLk6KMPrrC/efOm5dvefvu9XHPNLdUGH8niqaVqO7qrQ4d2OfPM7yZJ+dRQda1r107Zf/9dkywOWf/1r0eWeXxJycQ8/viLdV4HAAB1xxoWAABrgEMP7ZVJk6amT5+7Mm3azJx88oXZZZfts/feO2ejjTqlWbOmmTVrdsaMGZeXXhqSV155I6Wli7LZZl0r9NO2beucfPIx+dOf/pnJk6flO9/5RY4//rB85StbJkneeGNYbrvtwcycufgt+nPO+WH5PPFLtG7dMj/5yffyf/93UyZOnJrvfvcXOf74w7PddpuntLQ0gwa9nX/+8+HMmTMv9erVy/nnn7LMRX232mrjvPji4PzoRxfk2GN7p0uXDpk2bWYeffTZPPnky0kWL/Z7wglH1vq6TZo0NW+9NTxXXnlzysrKUr9+/XzlK1uWPwz+vCXTCn3yyacZOXJMWrRomnbtFs/v36pV8+y+e/e89NLrGTDgjZx++qU58sivpkOH9TJt2sw888zAPPros+nUaf188smnmT59Vq3rLdr8+QszZ87c8p9nz55TvobFkimV9ttv1xr19c4775c/TN95521z3HG9K+w/99wT8+ab72b8+Mm5/PIbsu22m6VNm1a1qreu78XVaWXu+xNOODrPPPNqSkom5q9/vTsjR36UQw/tlbZtW6ekZGLuuadfeai53Xab5/DDD6jUxymnHJMhQ4bmnXfez513/juvvz40hx22fzbbbKM0abJ2Pvlkdj74YGwGDXo7Awa8kU022TCHHbZ/rb7jEUd8NU8/PTCvvfafXHPNLdlll+3L/57qyi9/eVKGDfsgJSUTc+21t+WFF17L1762dzbeuEsaNmyQmTM/yfvvf5QBA97I4MHvZJ99ds5BB+1ZpzUAAFB3vhj/tg4AwHKdcMJR6dZtg1x77W0ZN25SBg58KwMHvlXt8d26bVD+hvPSjj/+sHzyyezcdttDmTFjVq677h+VjllrrbXyk598L9/4xn5V9n3UUQflk08+TZ8+d2Xq1Bm55prK0/o0atQw559/SvbYY8dlfq+jjjooQ4YMS9++z+b886+ptL9t29b5059+nWbNmi6zn6r85S93VFhsetGiRTn99EuX2+7551/L88+/lkMO2ScXX3xG+fZf/vKknHDCBZkwYUoGDXo7gwa9XaFd+/Ztc9VV5+YnP7m81rV+EVxxxY254oobq92//fZb5IQTjlpuP3PnzsuFF16X0tLStGjRLBdffEalUS3Nmq2TSy89MyeffFGmT5+VSy+9Ptddd0Gta67Le3F1Wpn7vmnTJrnhhotz5pmXZfTokjzzzMA880zlKbG2336LXHPNL6tcjLpRo4a5/vqLcvHFf8qzz76aESNG58orb6623qZNm9TyG/53aqhjjjkrs2fPyWWX3ZA//vFXte5nWVq2bJ6//e3ynHfe1XnjjXczZMiwDBkyrNrjmzZdp07PDwBA3RJYAACsQXr12iV77rljnn56YF5+eUiGDRuZ6dNn5dNP56ZZsybp0KFdtt12s+y33y7Zccdtqp366Mc//k569dol9977RIYMGZopU6anfv36addu3ey883b51re+Vr6AbnV++MMjsueeO+aee/rltdfeyeTJ01K/fv20b982u+yyfb797UPSsWO7Gn2viy76cXr23D4PPvhURo4ck7lz56V9+/Wyzz475/vfPzwtWjSr9bVaFdq3b5t//euq3Hbbg3n++dcyYcLkNGrUMB07tsvee++cb3/761+YWutCw4YN0rJl82y2WdcccMBu+drX9q7y4ffnXXPNLRkzZnyS5LzzTqr2rfoddtgqxx9/WG655YG8/PKQ3Hvv4znqqINqXWdd3our08rc9x07tsudd16dBx/sn/79X8kHH4zJp5/OTcuWzbL55hvloIP2zEEH7Zn69aufBbhp0yb5/e9/kTfffDePPvpc3nhjWKZMmZ558+anWbMm6dSpfbbeepPssceO2WWX7avtZ1k6dlw8NdTvfndTBgx4Iw8//HS1QeiKatu2dW666bK89NLreeKJl/L22+9l6tQZWbiwNM2br5MNNuiQ7bbbPHvt1SPdu29dp+cGAKBu1Stb2RXWACBJ586dU1JSkk6d2ufjj6tf+BQgScaNm5RDDz01SXLRRaend+9eq+Q8F1/8pzz66HO1Pkffvs/kkkuurzTCAlbG6rrvAVanzp13SUnJhHTq1Ckff/xx0eUAsIaz6DYAAAAAAFA4gQUAAAAAAFA4gQUAAF9a7dq1SbduG6R589qtK9G8ebN067ZBtWsvAAAAUPcsug0AwJfWaacdm9NOO7bW7fbZZ+fss8/Oq6AiAAAAqmOEBQAAAAAAUDgjLAAAWO06dmyXwYPvL7oMWK3c9wAAsGxGWAAAAAAAAIUTWAAAAAAAAIUTWAAAAAAAAIUTWAAAAAAAAIUTWAAAAAAAAIUTWAAAAAAAAIUTWAAAAAAAAIUTWAAAAAAAAIUTWAAAAAAAAIUTWAAAAAAAAIUTWAAAAAAAAIUTWAAAAAAAAIUTWAAAAAAAAIUTWAAAAAAAAIUTWAAAAAAAAIUTWAAAAAAAAIUTWAAAAAAAAIUTWAAAAAAAAIUTWAAAAAAAAIUTWAAAAAAAAIUTWAAAAAAAAIUTWAAAAAAAAIUTWAAAAAAAAIUTWAAAAAAAAIUTWAAAAAAAAIUTWAAAAAAAAIUTWAAAAAAAAIUTWAAAAAAAAIUTWAAAAAAAAIUTWAAAAAAAAIUTWAAAAAAAAIUTWAAAAAAAAIUTWAAAAAAAAIUTWAAAAAAAAIUTWAAAAAAAAIUTWAAAAAAAAIUTWAAAAAAAAIUTWAAAAAAAAIUTWAAAAAAAAIUTWAAAAAAAAIUTWAAAAAAAAIUTWAAAAAAAAIUTWAAAAAAAAIUTWAAAAAAAAIUTWAAAAAAAAIUTWAAAAAAAAIUTWAAAAAAAAIUTWAAAAAAAAIUTWAAAAAAAAIUTWAAAAAAAAIUTWAAAAAAAAIUTWAAAAAAAAIUTWAAAAAAAAIUTWAAAAAAAAIUTWAAAAAAAAIUTWAAAAAAAAIUTWAAAAAAAAIUTWAAAAAAAAIUTWAAAAAAAAIUTWAAAAAAAAIUTWAAAAAAAAIUTWAAAAAAAAIUTWAAAAAAAAIUTWAAAAAAAAIUTWAAAAAAAAIVrUHQBAHy5jB8/KZ0771J0GQAAwGowfvykoksA4EtEYAFAnVq0aFFKSiYUXQYAAAAAaxiBBQB1on379kWXAAAAFMR/DwBQF+qVlZWVFV0EAAAAAADwv82i2wAAwEoZNGhQBg0aVHQZAADAGk5gAQAArLCzzz47PXv2TM+ePXPOOecUXQ4AALAGMyUUAACwQubOnZt111038+bNS5I0btw406ZNS5MmTQquDAAAWBMZYQEAAKyQ2bNnl4cVSTJv3rzMnj27wIoAAIA1mcACAAAAAAAonMACAAAAAAAonMACAAAAAAAonMACAAAAAAAonMACAAAAAAAonMACAAAAAAAonMACAAAAAAAonMACAAAAAAAonMACAAAAAAAonMACAAAAAAAonMACAAAAAAAonMACAAAAAAAonMACAAAAAAAonMACAAAAAAAonMACAAAAAAAonMACAAAAAAAonMACAAAAAAAonMACAAAAAAAonMACAAAAAAAonMACAAAAAAAonMACAAAAAAAonMACAAAAAAAonMACAAAAAAAonMACAAAAAAAonMACAAAAAAAonMACAAAAAAAonMACAAAAAAAonMACAAAAAAAonMACAAAAAAAonMACAAAAAAAonMACAAAAAAAonMACAAAAAAAonMACAAAAAAAonMACAAAAAAAonMACAAAAAAAonMACAAAAAAAonMACAAAAAAAonMACAAAAAAAonMACAAAAAAAonMACAAAAAAAonMACAACokfnz52f48OFZsGDBco9dsGBBhg8fnvnz56+GygAAgC8DgQUAALBcH330UTbZZJNsueWW2WGHHTJ58uRqj508eXJ22GGHbLnlltlkk00yZsyY1VgpAACwphJYAAAAy9WnT5+MHTs2STJ06NBccMEF1R57/vnnZ+jQoUmSsWPH5oYbblgtNQIAAGs2gQUAALBcbdq0qfDzLbfcUuXIiY8++ii33nprhW1t27ZdlaUBAABfEgILAABgub7zne+kcePG5T8vXLgw1113XaXjrrvuuixcuLD858aNG+e4445bLTUCAABrNoEFAACwXO3bt8+pp55aYdudd95Z6bi77rqrws+nnnpq2rdvv0prAwAAvhzqlZWVlRVdBAAA8MU3YcKEbLTRRpk3b16Njm/cuHE+/PBDgQUAAFAjRlgAAAA1UtUoi2UxugIAAKgNIywAAIAaq+koC6MrAACA2jLCAgAAqLGajrIwugIAAKgtIywAAIBaWd4oC6MrAACAFWGEBQAAUCvLG2VhdAUAALAijLAAAABqrbpRFkZXAAAAK8oICwAAoNbat2+f448/vtL2448/XlgBAACsECMsAACAFTJu3Lh06tSpwraSkpJ07NixoIoAAIA1mREWAADACunYsWPOP//81K9fP/Xr188FF1wgrAAAAFaYERYAAMBKWfKfFPXq1Su4EgAAYE3WoOgCAACANZugAgAAqAumhAIAAAAAAAonsAAAAAAAAAonsAAAAAAAAAonsAAAAAAAAAonsAAAAAAAAArXoOgCAPhy6NGjRyZMmFB0GQAAQAHat2+fwYMHF10GAGs4gQUAdWLChAkpKSkpugwAAAAA1lACCwDqVP369dOhQ7uiywAAAFaD8eMnZdGiRUWXAcCXhMACgDrVoUO7fPzxwKLLAAAAVoPOnXdJSYmpYQGoGxbdBgAAAAAACiewAAAAAAAACiewAAAAAAAACiewAAAAAAAACiewAAAAAAAACiewAAAAAAAACiewAAAAAAAACiewAAAAAAAACiewAAAAAAAACiewAAAAAAAACiewAAAAAAAACiewAAAAAAAACiewAAAAAAAACiewAAAAAAAACiewAAAAAAAACiewAAAAAAAACiewAAAAAAAACiewAAAAAAAACiewAAAAAAAACiewAAAAAAAACiewAAAAAAAACiewAAAAAAAACiewAAAAAAAACiewAAAAAAAACiewAAAAAAAACiewAAAAAAAACiewAAAAAAAACiewAAAAAAAACiewAAAAAAAACiewAAAAAAAACiewAAAAAAAACiewAAAAAAAACiewAAAAAAAACiewAAAAAAAACiewAAAAAAAACiewAAAAAAAACiewAAAAAAAACiewAAAAAAAACiewAAAAAAAACiewAAAAAAAACiewAAAAAAAACiewAAAAAAAACiewAAAAAAAACiewAAAAAAAACiewAAAAAAAACiewAAAAAAAACiewAAAAAAAACiewAAAAAAAACiewAAAAAAAACiewAAAAAAAACiewAAAAAAAACiewAAAAAAAACiewAAAAAAAACiewAAAAAAAACiewAAAAAAAACiewAAAAAAAACiewAAAAAAAACiewAAAAAAAACiewAAAAAAAACiewAAAAAAAACiewAAAAAAAACiewAAAAAAAACiewAAAAAAAACiewAAAAAAAACiewAAAAAAAACiewAAAAAAAACiewAAAAAAAACiewAAAAAAAACiewAAD4H9C37zPp0eOI9OhxRPr2fabocgAAAKASgQUAwP+ARYvKqvwMAAAAXxQNii4AAIC699FH4/LMMwMzaNDbGT26JFOmTC/fd9llN6RPn7uy0UadsvPO22f//XdN587tC6wWAAAABBYAAF8qU6ZMz+9//7c8++yrWbRoUZXHlJWVZfLkaZk8eVoGDfpPbrjhjhx44B752c9+mJYtm6/migEAAGAxgQUAwJfE8OGjcuaZl2XatJlJkrXWWis9emyT7t23yoQJU/Lgg08lSQ4//ICsv37bvP76O3n99aEpLV2Ufv1eyJAhw3LjjZcYbQEAAEAhBBYAAF8C06fPzE9/+tvysGLPPXfMz39+Qjp2bJdk8aLbSwKL7bbbLL1798oJJxyZjz4al8svvyFDhgzLxIlTcuaZl+eOO65K48ZrV3meOXPm5p57+uX551/LRx+Ny9y589K6dYtss81m6d173+y5Z49qazzppAszZMjQdO++df7610szenRJbr/9kbz66tuZMmV6mjdvmh122DLHHXdott12syr7GDduUg499NTyn3fbbYf88Y+/qvac06bNzNe/flIWLFiYJOXnXtrgwe/klFMuSpL06XNJevTYpsq+fvSjC/LWW8Nr3E/37lvl4YefTt++z2b06JLMn78gG2zQPgceuEeOPfaQrL12o2rrTurmWn/eWmutlVatmmfTTTfMQQftla99ba/Ur1/1snYjR47Jc88NyptvDsuoUWMzffqsNGjQIG3btsp2222RI4/8arW/pyS58ca7c9NN9/z/a3P/Mr9r796nZPz4yTnkkH1y8cVnVNjXt+8zueSS65MkjzxyQ/k9vbT58xfkqKN+kpKSiUlSZT9LGz58VB544KkMHvxOJk+elrKysrRr1yY77bRNjj22dzbcsOMy662JBQsW5KGHnk7//gPywQdjM3v2nLRs2Sybb75RDjpozxx00J6Vrv3S37W2lr42PXockSQ58cSjc/LJ36ry+Isv/lMeffS5dOiwXvr27VNtv1OmTM/ddz+WgQPfSknJxMydOy/rrtsy2267WQ4//ID07Ll9pTZLfp+19fnf29y58/Lii6/n1VffyrvvfpCSkkmZN++zNG/eNN26dc6ee/bIEUccmHXWaVLrcwEA8MUksAAA+BK4+eb7ytepOOCA3fLb356devXqLbfdhht2zF/+clFOO+3SDBkyNGPGjMvdd/fL8ccfVunY4cNH5ayzrsjkydMqbJ80aVqeeWZgnnlmYPbdt2cuu+yny30Y//LLQ/LLX16duXPnlW+bOnVG+vd/Jc8882p++tPjc+yxhyy3/oED38r48ZPSoUPlh9hJ8sgjT5eHFSvjqadeLg8ramLhwoX56U9/mwED3qiw/f33P8r773+Ufv2ez1/+cnHatm1dZfu6vNZLKy0tzdSpMzJ16owMHPhWnnzypVxzzXlp0GCtCsctHb4sbcGChRk7dkLGjp2Qf//7uXz/+4fnxz/+To3Pv6rceee/y8OKZVm0aFGuvfa23Hnnv1NWVnHx+TFjxmXMmHF56KGnc+65J+Sb3zxwhesZN25SzjzzsoweXVJh+9SpMzJgwBsZMOCNPPDAU7n66nO/0NOw9ev3Qn772xsr/J0mycSJUzNx4ivp3/+VfOMb++W8806udA/VhZ/85LdVBm8zZszKkCHDMmTIsNx33+O57roL0rVr5zo/PwAAq5/AAgBgDbdwYWkeffS5JEnjxmvnF784oUZhxRINGjTIL395Yo4++qdJFr/l/fnAYtKkqTnttEsya9bs1KtXL4ccsm+++tXd07Jl84waNTa33943I0aMzrPPvpqLL/5zrrji7GrPN2XKtPzqV9dmrbXq5/TTj8uOO26dZPFD8ttueyiffjon11xzSzp2XC/77NOz2n7WWadx5syZlwcf7J/TTju20v6ysrI8+GD/CseuiPnzF+RPf/pXrdr85S93Ztiwkdlll+1z5JFfzfrrt83EiVNy771P5NVX38qoUR/n7LOvyC23XJG11qr4oLcur/VWW22cCy/8cfnPc+bMzXvvfZh//evhlJRMyoABb+Thh5/OEUdUfDhfWlqaJk0aZ489uqdHj23TtWunNG3aJNOnz8wHH4zN3Xc/lvHjJ+fWWx9Mly4dc+ihvWp1ferStGkz8/e/L3sExxK///3fcu+9jydJunffKoccsm86dVo/jRuvnfffH5077ng0o0aNzW9/e2PatGmdvffeqdb1zJkzN6eeenF5gLLPPjvn0EN7Zb311k1JyaTcc0+/DBkyNG+++W7OOuuK3HTTb8rvgX326Zktt9ykUp/PPz8oN9xwZ5Lkz3/+ddq2XbfSMe3aVd62Mp566uVceOEfU1ZWlk6d1s/RRx+cbt06p3Xrlhk3blIefvjpvPzykDz88NNp2rRJzj77B+Vt//znC6sMCs844zeZPHla9t57p5x6auW/2RYtmlb4ubS0NJts0iV77bVTttpq4///vcsyfvzkPPvsq+nf/5WUlEzKOef8X+644+pahXcAAHwxCSwAANZww4ePyqefzkmS7Ljj1mndumWt++jWbYN069Y5o0Z9nNGjSzJt2sysu+5/+7n66lsya9bsJMkFF5ySww7bv3zflltunAMO2D1nnnlZBg9+J0899XIOOWSf7L579yrPNWbM+DRrtk5uueWKbLTRf9+K3m67zbP33jvlhz+8IJ9+OidXXnlz9thjxzRoUPW/sn71q3vkwQf755FHnslJJ32r0hveAwe+mZKSienSpWPatm1d5ZvaNXHHHX0zbtykNGnSOO3arZuPPhq33DbDho3M4YcfkAsuOKV825Zbbpx99umZ3/zmL3n44aczbNgHeeCBp3LUUQdVaFuX17px48bZZJMuFbZtt93m2WefnXP44T/OvHmfZeDANysFFptvvlEee+yvad684gPkJNl11x3yrW8dnJ/+9Iq8+upbuemme/L1r+9dKXhZXfr0uSuffjon66/fJgsXLh5BUpWBA98qDyt+9atTK1zXJNl6601y8MF75ac//W1ee+0/ueqqv2X33bvXeuTATTfdUx5W/OhHR+bUU79dvm/LLTfOfvvtkgsv/GP69Xshb7/9Xh588KkceeTie6B586ZVXvN33x1Z/rlLl45VTotVtbLlH1KFGTNm5fLL+6SsrCyHHtor559/SoXrsMUW3dKr1y65/vrbc8stD+Suux7LN795YLp27ZQk1U6ptaSP5s2bVrovq3LRRaenS5fKfW2zzWY54IDd841vvJUzzrgsH300Lv36vVDpdwoAwJqn6glrAQBYYyw9bdCSB4YrYsMN/9t26T4nT56W5557NcniNSOqeijYqFHDXHjh6eUPre+5p98yz3XCCUdVCCuW2HjjLvnhDxfPvz9p0rQ899xr1fax3XabZ+ONu2TKlOl54YXKxz3wwOI1O775zQOWWcuyTJ06I7fc8kCS5PjjD0+bNlVP4fR5bdq0yjnn/KDKfeec84O0bt0iScofoC+xKq51VdZbb93yB8ELF5ZW2t+qVYsqH5wv0bBhw/zkJ99LkowfPzkjRoyudQ11YeTIMXn44cWjaE4//bg0atSw2mNvu+3BJEmvXrtU+2B77bUb5Re/OCHJ4u81ePA7tapn/vzF61Yki0PAk046utIx9erVy7nnnlg+FdSK/P6WZ8l1WLKmTW3dd98TmT17Ttq1Wze//OVJ1YY2J598TNq1WzeLFi3Kv//93IqWW62qwoql9ey5ffbaa/FaLs8/P6jOzw8AwOonsAAAWMN99tn88s/LemC7PEu3nT9/Qfnn118fmtLSRUmSQw/dr9r2HTu2S8+e2y3VpvKD8CT/f5qjfart59BD9y2f0mrQoLeXWfOSMGLJguJLTJ48LS+8MDiNGjVc5rmW54Yb7synn87N+uu3zXe+07vG7fbff7dqFy5fZ50m2X//3ZIko0aNLV97JKn7a12d8eMn5aOPFq+vUJM33efPX5AJEyZn1KixGTlyTEaOHFNhDYiiAos//OHWlJYuylZbLR4dUZ3Zs+fk9dcXj7DZb79dl9nnRht1TqtWiwOl//znvVrV8+67H+STTz5NkvTuvW+1o06aNVsnBxyw5B74uMI9UBfWX79NksX3xqJFi2rdfkkAuMcePZb5z5QGDdbKtttuniT5z39GrECltTN9+syMGTOu/B4cOXJMefg3YsRHq/z8AACseqaEAgBYwy15uJqk2ulwamLpt7FbtmxW/vmDD8aUf95mm02X2cc222yWAQPeyLx5n5VPx/R5HTu2q1Dz57Vu3TIdO66XkpJJGTly2Q8hv/71vfOnP/0rAwe+lZKSienUaf0kycMPP53S0tIccMBuyzzXsowYMTqPPPJMkuSMM75TbQBRla222niZ+7feetPy0RUjR44pX3y7rq/1vHnzMnLkf/ucM2du3n33g/zjHw/ns8/mp02bVvnWt75WZf9z587LXXc9lieffCmjRo0tD1KqMmPGJ8usdekaqlLVKI/lefHFwXn11beSJGef/YNlrtvy3nsflj+4v+CCP+SCC/5Qo3PU9u+pdr+/TXPffU8kqXgP1IVdd90hY8f2y+jRJbn00utzwglHpWPHdqlff/nvq5WWlua990YnSR544Mk88MCTNTrnyvyzZ1nefHN47r773xk06O3MnDm72uNmzJi1Ss4PAMDqJbAAAFjDbbJJl9SrVy9lZWUZMmRYysrKarXodrJ4lMbQoe8nSZo2bVJhjvylHxIuva5FVdq0aVX+eck6DJ+3vD4WH9MqJSWTqu1jiWbNmubAA3fPI488k4ce6p/TTz8uixYtykMPLZ4maGWmg/rDH27NokWLss02m+arX92jVm2Xf53+u3/p71jX13rYsA9yzDFnVdper169fPObB+akk46u8kH5uHGTcuqpF6WkZNIya1hi6VE+VamqhpWxcGFprr32tiTJAQfslq98ZYtlHj99+opNjTRv3me1On7p38Py1pKpye9vRf3wh0fkmWcGZsqU6Xn00efy6KPP1bjtrFmzaz1iJ6n9taqJG2+8OzfddE+Njl3ePQgAwJpBYAEAsIZr27Z1ttpqkwwd+n4+/nhCnnpqQA48cPda9XHvvY9nzpx5SZJdd/1KtQtd1zIHqaaPOuhkKUcc8dU88sgzeeSRZ3Lyyd/KK6+8mQkTpqRr107p3n3rFerz+edfy2uv/SfJ8t/er0pdfMc6vkwVlJWV5eGH+2fu3Hk577yTss46TSrsv/DCP6akZFLq1auX3r33zYEH7pGNNuqc1q1bpGHDBqlXr14WLVqUnXc+qry/1em++x7PRx+Ny9prN8oZZ3x3uccvPTrk/PNPznbbLTvgWKJFi+rX8Vieur7Pa6Nt29a59dbf5ZprbskLLwzOwoULa9x26Wt12GH755hjvl6jdg0b1u1/Wg4a9HZ5WNGp0/r57ncPzVe+smXat2+bxo0bl6+r0afPnbn55vvq9NwAABRHYAEA8CVw4olH5ac//W2S5PLLb0irVs2z887b1ajt00+/kj//+fYkix+y/vCHR1bYv/T0UFOnzkz79m2r7WvpaWFatGi23GOqM23ajGX2sbStt94km2++Ud5778M8//xr6dv32STJN7954HLbVmXhwoW57rp/JEm++tU9st12m9e6j+V9x6lT//vG/9Lfsa6vdffuW+evf720/OcFCxZk4sSp6d//lfTpc1f69Xshs2fPyR/+cF75MaNHf5w333w3SfKDH3wzp512bJV912ZUwODB9y9zf+/ep2T8+Mk16mvWrNnlD7KPPfaQCqOBqrNkgeskadx47Rqt27Eilv49TJs2IxtuWP2i0TX5/a2M9u3b5sorf5558z7LxIlTs2BBxdDihhvuyPPPV16sful7sKysbJVdq+V58MHFo6RatGiWW2+9otoRK8uaJgoAgDWPRbcBAL4E9thjx3z724ckST79dG5+/OPf5Lzzrs4rr7xR5VQtc+fOy0svvZ6zz/5dzj33qvI3sM8887vZbLOuFY7deOP/PrB85533l1nHkmmlGjdeu3w9ic8bN27SMtc8mD59ZsaNm1zp3MuyJJz429/uz4ABb2TttRut8GLb99zzeMaMWfL2/ndWqI9hwz5Yzv6R5Z+XfiBc19f68xo2bJjOndvn+98/PCecsDiYevHFwRXWXvjgg7Hln5c1Umd533FVuemmezJz5uy0adMq3//+N2vUZvPNu5aPeHjrreGrrLba/f6qvgfqWuPGa2fDDTtmk026VPhf8+ZVjx5p2LBhunXbIMmqvVbLM2rU4vtwxx23Xub0Wu++W8x9CADAqiGwAAD4kjj77O/n1FO/nbXWWiuLFi3KU08NyBlnXJY99zwuV111S/lxV111S/ba6zv56U9/mxdeWPyGdaNGDXPuuSfmu9/9RqV+d9xx66y11uJ/bXzkkaerPf+ECZPz6qtvL9VmrSqPKysry7///Vy1/fTt+2z5FEM9e9ZslMjBB++Zpk2bZMSIxYsr77//biv01vrMmZ/k5pvvTZIcd1zvtG+/Xq37SJL+/QdUO6f/3Lnz0r//gCRJt26dK6whUdfXelk23bRr+ecPPywp/7z0lEBz51a/LsH99z9R63OurI8+Ksm99y4+76mnfjtNmzZZTovFWrdumW233SxJ8vjjL63wmhbLs+WWG5cHAY8++lz5Qt+f9+mnc/PUU1XfA18Ee++9U5Jk9OiSvPLKG4XUsGQdjWWtjTF8+KjlBkMAAKxZBBYAAF8S9erVy49+dGTuuefaHH74AeXT4JSVleXTT+eUH/fpp3PKA4HWrVvk6KMPzn33/TFHHXVQlf2ut9662WefnkmSAQPeyKOPPlvpmAULFuTSS68vH6lx9NEHL7PWv/3tvoweXVJp+4cffpy//33x9EFt27Yuf3C6POus0ySHHrpfWrZsnpYtm6/wYtt/+9t9mTVrydv7h69QH8ni6X6WLAr9eddcc2umTVv8wPyII75aYd+quNbVWfpBdNOmjcs/d+nSofzzkum1Pu+++x6vcjqhVe1Pf/pXFi5cmM0265pDD+1Vq7Y//OERSRbf/+eee1U++eTTao+dP39B7rmnX60Xcm7UqGEOO2y/JMkHH4ypcm2FsrKyXHnlzZkxY1aSFf/9rUrHHPP1rLPO4nvikkuurzACpyovvfR63n9/dJ3WsMEGi+/DN98cnrFjx1faP336zFx44R/r9JwAABTPGhYAAF8yG27YMRdccErOO++kjBgxOh9++HFeeOG18je6Dzhgt+y9987p2rVTNt98oxotDnz22T/Ia6/9J7Nmzc6ll/4lb745PAccsHgUw+jRJfnnPx/JiBEflve/++7dq+1rgw3aZ/r0WfnBD87L8ccflh133CZJ8vrr7+TWWx/M7NmLw5Wf//xHadiwYY2/9znn/CDnnPODGh9flREjRidJTjvt2EoLUdfGVlttnPvueyLjxk3KN795YNq3b5sJE6bk/vufyCuvvJkk2XzzjSoFFkndXut58+Zl5Mj/PmxeuHBhJk6cmieffClPPPFSkmTddVtmhx22Kj9m8803ysYbd8kHH4zJAw88mU8+mZ2vfW3vtG3bOhMnTk2/fi/k6adfyfbbb7Hapwxa8vs566zvp3792r17tXjatK/nzjv/nSFDhuXII8/MEUd8NV/5yhZp2bJ55s79LB9/PD5vvPFunn321cyaNXuFphU74YSj88wzr6akZGL++te7M3LkRzn00F5p27Z1Skom5p57+uX114cmSbbbbvMcfviKhWurUps2rXLxxWfk3HOvypQp0/O9752bQw7ZJ7vt1j3rr9+m/D4aOnRknn76lZSUTMwf/nBehVE7K+vrX98nL744OHPnzstJJ12Y448/PFtu2S1J8vbb7+X22/tm6tQZ2W67zfP22+/V2XkBACiWwAIA4Euqfv362WKLbtlii25ZuHBheWCx22475KCD9qxVX+uv3yZ/+ctFOeusKzJ58rQ89FD/PPRQ/0rH7btvz1x88RnL7Gu99drknHN+mF/+8uryxb4/X/eZZ343++23a61qrCubbbZRevfed6X6OO20Y/Ovfz2SAQPeyIABlafU6dq1U6699vw0aFB5Kqe6vNbDhn2QY445q9r9TZs2yeWXn5XGjdcu31avXr1ceumZOfXUizNr1uw89dSA8ntniU026ZL/+7+f5aCDTljm+VeFvfbaKTvttO0KtT377B+kRYtmufnm+zJ16oz89a93V3tskyaNax2KJIuv6Q03XJwzz7wso0eX5JlnBuaZZwZWOm777bfINdf8coWm81odevXaJVdffW4uueTPmTlzdu6//8ncf/+TVR5bv379NGmydpX7VtT++++a3r17pW/fZzJ58rRcddXfKuxfa636Ofvs72fWrE8FFgAAXyICCwAAamSLLbrl/vv/mHvu6ZfnnhuUjz4al3nzPkurVi2yzTabpnfvfbPXXjWbwmmPPXbMP/95Zf7xj4czePB/MmXK9DRv3jRf+cqW+c53Ds12222+ir9N9c4+u/Zv739egwYNct11F+TBB5/Kv//9fEaPLsmCBQvTufP6OeCA3XPccb0rhASfV5fXemn169fPOus0TpcuHdKz5/Y5+uiDs95661Y6bvPNN8odd1yVW255IAMGvJHJk6enadPG6dy5Qw44YLccddRBWXvtRrU+/8pq0KBBfvKT761w+3r16uXEE4/O1762d+6//8kMHvyflJRMzOzZc9K48dpZf/022XzzbunZc/vsu2/PZf6OlqVjx3a5886r8+CD/dO//yv54IMx+fTTuWnZslk233yjHHTQnjnooD1X+j5b1fbaa6c8/PANeeih/nn55SEZNWpsZs6cnbXWqp+2bVulW7cN0qPHttlvv13Tvn3bOj//RRednp122iYPPvhURowYnQULFqZNm1bZYYetcvTRB2ebbTbNjTdWHzoBALDmqVe2ZAJjAFgJnTt3TklJSTp1ap+PP678JinASSddmCFDhqZ7963z179eWnQ5dW7w4HdyyikXJUn69LkkPXpsU3BFALDqde68S0pKJqRTp075+OOPiy4HgDXcF/uVHgAAAAAA4H+CwAIAAAAAACicwAIAAAAAACicwAIAAAAAACicwAIAAAAAAChcg6ILAADgf8Nf/3pp0SWsUj16bJPBg+8vugwAAIA1lhEWAAAAAABA4QQWAAAAAABA4QQWAAAAAABA4QQWAAAAAABA4QQWAAAAAABA4QQWAAAAAABA4QQWAAAAAABA4QQWAAAAAABA4QQWAAAAAABA4QQWAAAAAABA4QQWAAAAAABA4QQWAAAAAABA4QQWAAAAAABA4QQWAAAAAABA4QQWAAAAAABA4QQWAAAAAABA4QQWAAAAAABA4QQWAAAAAABA4QQWAAAAAABA4QQWAAAAAABA4QQWAAAAAABA4QQWAAAAAABA4QQWAAAAAABA4QQWAAAAAABA4QQWAAAAAABA4QQWAAAAAABA4QQWAAAAAABA4QQWAAAAAABA4QQWAAAAAABA4QQWAAAAAABA4QQWAAAAAABA4QQWAAAAAABA4QQWAAAAAABA4QQWAAAAAABA4QQWAAAAAABA4QQWAAAAAABA4QQWAAAAAABA4QQWAAAAAABA4QQWAAAAAABA4QQWAAAAAABA4QQWAAAAAABA4QQWAAAAAABA4QQWAAAAAABA4QQWAAAAAABA4QQWAAAAAABA4QQWAAAAAABA4QQWAAAAAABA4QQWAAAAAABA4QQWAAAAAABA4QQWAAAAAABA4QQWAAAAAABA4QQWAAAAAABA4QQWAAAAAABA4QQWAAAAAABA4QQWAAAAAABA4QQWAAAAAABA4QQWAAAAAABA4QQWAAAAAABA4QQWAAAAAABA4QQWAAAAAABA4QQWAAAAAABA4QQWAAAAAABA4QQWAAAAAABA4QQWAAAAAABA4QQWAAAAAABA4QQWAAAAAABA4RoUXQAAXy7jx09K5867FF0GAACwGowfP6noEgD4EhFYAFCnFi1alJKSCUWXAQAAAMAaRmABQJ1o37590SUAAAAF8d8DANSFemVlZWVFFwEAAAAAAPxvs+g2AACwwqZMmZKf/exn+dnPfpYpU6YUXQ4AALAGM8ICAABYYbvsskteffXV8s+vvPJKwRUBAABrKoEFAACwQmbMmJHWrVtX2DZ9+vS0atWqmIIAAIA1mimhAACAFbJgwYIabQMAAKgJgQUAAAAAAFA4gQUAAAAAAFA4gQUAAAAAAFA4gQUAAAAAAFA4gQUAAAAAAFA4gQUAAAAAAFA4gQUAAAAAAFA4gQUAAAAAAFA4gQUAAAAAAFA4gQUAAAAAAFA4gQUAAAAAAFA4gQUAAAAAAFA4gQUAAAAAAFA4gQUAAAAAAFA4gQUAAAAAAFA4gQUAAAAAAFA4gQUAAAAAAFA4gQUAAAAAAFA4gQUAAAAAAFA4gQUAAAAAAFA4gQUAAAAAAFA4gQUAAAAAAFA4gQUAAAAAAFA4gQUAAAAAAFA4gQUAAAAAAFA4gQUAAAAAAFA4gQUAAAAAAFA4gQUAAAAAAFA4gQUAAAAAAFA4gQUAAAAAAFA4gQUAAAAAAFA4gQUAAAAAAFA4gQUAAAAAAFA4gQUAAAAAAFA4gQUAAAAAAFA4gQUAAAAAAFA4gQUAAAAAAFA4gQUAAAAAAFA4gQUAAAAAAFA4gQUAAAAAAFA4gQUAAFAjL774Yn7zm99k0KBByz120KBB+c1vfpMXX3xxNVQGAAB8GdQrKysrK7oIAADgi61///454IADkiRrr712nnnmmWy66aZp165dheMmTZqU999/P7169cpnn31W3na//fZb7TUDAABrFiMsAACA5erXr1/5588++yw///nPU9W7T2VlZfn5z39eHlYkyWOPPbZaagQAANZsAgsAAGC5unfvXuHnAQMG5Pnnn6903PPPP58BAwYssy0AAEBVTAkFAAAs1/z587P55ptn9OjR5dt22mmnvPbaaxWO+/y2rl27ZsSIEWnYsOHqKhUAAFhDGWEBAAAsV6NGjXLBBRdU2Pb5sKKqbb/61a+EFQAAQI0YYQEAANRIVaMslsXoCgAAoDaMsAAAAGqkqlEWy2J0BQAAUBtGWAAAADVW01EWRlcAAAC1ZYQFAABQYzUdZWF0BQAAUFtGWAAAALWyvFEWRlcAAAArwggLAACgVpY3ysLoCgAAYEUYYQEAANTa/Pnzs+mmm2bMmDEVtnfp0iUjR44UWAAAALVmhAUAAFBrjRo1yjnnnFNp+89+9jNhBQAAsEKMsAAAAFbIggUL0rJly8ydOzdJ0qRJk8ycOVNgAQAArBAjLAAAgBXSsGHDvPLKK9lhhx2yww475JVXXhFWAAAAK8wICwAAAAAAoHBGWAAAAAAAAIUTWAAAAAAAAIUTWAAAAAAAAIUTWAAAAAAAAIUTWAAAAAAAAIUTWAAAAAAAAIVrUHQBAHw59OjRIxMmTCi6DAAAoADt27fP4MGDiy4DgDWcwAKAOjFhwoSUlJQUXQYAAAAAayiBBQB1qn79+unQoV3RZQAAAKvB+PGTsmjRoqLLAOBLQmABQJ3q0KFdPv54YNFlAAAAq0HnzrukpMTUsADUDYtuAwAAAAAAhRNYAAAAAAAAhRNYAAAAAAAAhRNYAAAAAAAAhRNYAAAAAAAAhRNYAAAAAAAAhRNYAAAAAAAAhRNYAAAAAAAAhRNYAAAAAAAAhRNYAAAAAAAAhRNYAAAAAAAAhRNYAAAAAAAAhRNYAAAAAAAAhRNYAAAAAAAAhRNYAAAAAAAAhRNYAAAAAAAAhRNYAAAAAAAAhRNYAAAAAAAAhRNYAAAAAAAAhRNYAAAAAAAAhRNYAAAAAAAAhRNYAAAAAAAAhRNYAAAAAAAAhRNYAAAAAAAAhRNYAAAAAAAAhRNYAAAAAAAAhRNYAAAAAAAAhRNYAAAAAAAAhRNYAAAAAAAAhRNYAAAAAAAAhRNYAAAAAAAAhRNYAAAAAAAAhRNYAAAAAAAAhRNYAAAAAAAAhRNYAAAAAAAAhRNYAAAAAAAAhRNYAAAAAAAAhRNYAAAAAAAAhRNYAAAAAAAAhRNYAAAAAAAAhRNYAAAAAAAAhRNYAAAAAAAAhRNYAAAAAAAAhRNYAAAAAAAAhRNYAAAAAAAAhRNYAAAAAAAAhRNYAAAAAAAAhRNYAAAAAAAAhRNYAAAAAAAAhRNYAAAAAAAAhRNYAAAAAAAAhRNYAAAAAAAAhRNYAAAAAAAAhRNYAAAAAAAAhRNYAAAAAAAAhRNYAAAAAAAAhRNYAAAAAAAAhRNYAAAAAAAAhRNYAAAAAAAAhRNYAAAAAAAAhRNYAAAAAAAAhRNYAAAAAAAAhRNYAAAAAAAAhRNYAAAAAAAAhRNYAAAAAAAAhRNYAAAAAAAAhRNYAAAAAAAAhRNYAAAAAAAAhWtQdAEAAKwZFixYkKefHpgBA97I0KHvZ8aMWZk9e26aNVsnHTqsl6233iS9eu2SnXbaNvXrey8GAACA2hFYAACwXM88MzDXXntbxo2bVGnfzJmfZObMTzJ8+Kjcf/+T6dKlY84++/vZY48dC6gUAACANZXAAgCAZbr55nvTp89d5T/37Ll99tqrR7p12yDNmzfNzJmf5KOPxuXFFwfn1Vffzpgx4/KXv9whsAAAAKBWBBYAAFTrkUeeKQ8r1l23Za644pzsuOPWlY7r2XP7HH30wRk5ckyuueaWzJgxa3WXCgAAwBpOYAEAQJUmTZqaK6+8OUnSpEnj/PWvl6Zr187LbLPJJl3y5z//Oo8//uLqKBEAAIAvEYEFAABVuuOORzNv3mdJkpNP/tZyw4ol6tevn699be9q97/55ru5//4n8+ab72bq1Blp1KhhOnZcP3vs0T3f/vbX07p1y0ptxowZl+OO+3nmzp2XzTbbKLfddkUaNmxY6biFC0vzox9dkKFD38/aazfKP/95Zbp126B8f+/ep2T8+Mk55JB9cvHFZ2To0JG5/fZH8tZbwzN9+qy0bt0iO++8XY4//rBlft8pU6bn2WdfzWuv/Sfvvz86kydPT2lpaVq1apEtt9w4Bx20Z/bff9dqFx8fPPidnHLKRUmSPn0uSY8e21R7rosv/lMeffS5dOiwXvr27bPMmu6++7EMHPhWSkomZu7ceVl33ZbZdtvNcvjhB6Rnz+2rbDdu3KQceuipSZKLLjo9vXv3qvYcN954d2666Z7//x3ur7S/R48jkiQnnnh0Tj75W1X2cf31t+eWWx4o/7mqfpaYPfvT3HvvE3nxxcEZM2Z8Zs+ek5Ytm2WrrTbO17++b/bbb5fUq1ev2vY1tSL35JLvWltLX5ua/G5req+UlpamX78X0r//Kxk+fFRmzvwk66zTOF27ds6++/bMkUd+NY0br12hzdK/z9r6/O/tP/8ZkRdfHJw33xyejz4qycyZs7P22g3Trl2bdO++Vb71ra9V+FsEAICqCCwAAKikrKwsjz76XJLFoysOP/yAle5z0aJF+f3v/5Z77328wvb58xdkxIgPM2LEh7nnnn753e9+ll12qfhwfclC3pdf3icjRnyYv/zlzvzkJ9+rdI6bbronQ4e+nyQ544zvLvMB6cMPP53f/vbGlJaWlm+bOHFq+vZ9Nk888VIuvfTM7L//bpXalZaW5mtfOymLFi2qtG/y5GmZPHlaXnjhtTz88Pb5/e9/nnXWabLsC1MH+vV7Ib/97Y2ZO3dehe0TJ07NxImvpH//V/KNb+yX8847OQ0arLXK66nOhAmTc8cdj9bo2EGD3s55512TmTM/qbB96tQZefHF1/Pii69n992754orzl7ha7wy9+QXyYQJk3P22b/LiBGjK2yfOXN23npreN56a3juv/+JXHvtBdlww451fv6+fZ/JJZdcX2n7woUL8+GHH+fDDz/OQw/1z89+9qMcddRBdX5+AAC+PAQWAABU8sEHY8vXodhhhy3TtOnKP3T/05/+Vf5guFOndvne9w7PFlt0y9y58/LCC6/lnnsez+zZc3LWWb/Nbbf9XzbbrGuF9ocffkBeeun1PP/8a7n99r7Zffcd0qPHtuX733xzeG69dfGb+7vttkO+9a2Dq61lxIjRefzxl7Luui3z/e8fnq233jTz58/Pyy8PyZ13/jvz5y/Ir351XTp2bJetttqkQtuyssX/v9NO22a33XbIJpt0SevWLfPpp3NTUjIxDz3UP2+//V5effWt/N//3ZxLLjljpa/dsjz11Mu58MI/pqysLJ06rZ+jjz443bp1TuvWLTNu3KQ8/PDTefnlIXn44afTtGmTnH32D1ZpPcvyxz/+M599Nn+5x7355vCceeblWbhwYdq0aZWjjz44m23WNeutt24mT56WJ598Of36vZCXXx6Siy76U37/+1+sUD0rc0/eddcfquzzmGPOSpIceeRXc+SRlR/Or7tu5dEaK2PGjE/yox/9KhMnTkmjRg1z2GH7p3v3rdOx43qZM2deXn31rdx5578zduyEnHnmZbn99t+nWbOmSZKjjjoo++23a6U+77vv8dx33xNJqv+eSystXZQWLZpl7713yg47bJUuXTqkceO1M2XK9AwfPip33fVYZsyYlSuvvDldu3bKTjttu9w+AQD43ySwAACgkvffH13+eYstuq10fyNHfpTbb++bJNl44y65+ebL0rx50/L9PXpsk112+Up++tPfZsGChbn88j657bbfVern178+Le+8c1amTp2Riy76U+6885q0aNEss2fPyYUXXpfS0kVp1apFLrzw9GVOFTRixOh06LBebrnlirRt27p8e/fuW2fXXb+S00//TRYuXJjf/e6m/OMf/1eh7Vpr1c/99/8xG2zQoVK/O+64dQ49tFduvPGu3HTTvXnssefzox8dkS5d6v6t9iSZMWNWLr+8T8rKynLoob1y/vmnVBhBscUW3dKr1y7l0zDddddj+eY3D0zXrp1WST3L8vbb7+XJJ19Okmy55cZ5990Pqjxu4cKFufDC67Jw4cLsttsOufLKn1eYymiLLbplzz17pHv3rXL55X3y7LOvZuDAt2o9AmJl78lNNumyzP5bt2653GOWKFuSgq2Aq676WyZOnJIOHdZLnz6XpFOn9Svs79Fjm+y336458cRfp6RkYm677aGcfvpxSRaHJ1UFKEtPgVWT77DbbjvkoIP2rDTlVJLssceOOeaYr+XEE3+d99//KDfeeLfAAgCAalU9qS4AAP/Tlp6Gpy7eCL/vvifKp1D69a9PrfBgeInddtshhx66eP2EoUPfz9ChIysd06pVi1x88Y9Tr169TJw4NVdccWOS5Morb864cZOSJL/61SkVQojq/PSnx1d5XI8e2+bww/dPkgwbNjLDhlWso169elWGFUs74YSj0qpVi5SVleWFFwYvt5YVdd99T2T27Dlp127d/PKXJ1U73dPJJx+Tdu3WzaJFi/Lvfz+3yuqpTllZWa655pYkyc47b5s99tix2mOfeOKljBs3KWuv3SiXXHJGlQ/Bk8UjbrbeetMkyaOPPlvrmurqnlwZjRo1SpJMnz5rhdqPGzcpTz21OAT6xS9OqBRWLLHFFt3Kp2JaMtVbXWrXrk21v6ckadasaU4++Zgki9cLmTHjk2qPBQDgf5vAAgCASj79dG7552U9iKypQYPeTpJ067ZBttlms2qPO+yw/Su1+bxdd/3vdE9PPTUgF1zwhzz22PPl7ffZp+dy61k8fc3O1e5f8pB6WXUssWjRokyePC2jR5dk5MgxGTlyTD78sCTt2rVJkkrrCtSlF154LUmyxx490qhR5UXIl2jQYK1su+3mSRYvjry6Pf74i3nnnfdTv379nHXW95d57JKAp3v3rapc7Hpp3btvmST5z3/eq3VNdXlPrqj11198j3z22fy89dbwWrd/6aXXU1q6KI0br53ddtthmcd2775VksXrrEyYMLn2xdbC3LnzMm7cpHzwwZjyv4mlw7SlR3ABAMDSTAkFAEAlS69ZMW/eZyvV1/z5CzJmzPgkyTbbbLrMY7fYYqM0aNAgCxcuzAcfjKn2uDPO+G4GDfpPRo0amyeeeClJ0qVLh5xzTs3WZ9h8842Wufj0ZpttlIYNG2TBgoUZObJyHWVlZenX74U8/PDTeeed95e5LsOStUCqM27cpCrPscQnn3xa5fbS0tK8997oJMkDDzyZBx54cpnnWWLq1BnV7ps0adoya5k+fWaNzrG0efM+y5//fHuS5Bvf6JVNN+2aZ555tdrjl0wV9corb6ZHjyNqdI4pU2bUqqZVcU+uiN122yE33HBnkuSSS67P+eeflG222azGIeGSazVv3mfp2fPoGp93ypQZad9+vdoXvAwzZszK7bf3zdNPD8zYseOXOc3V8v4mAAD43yWwAACgkpYtm5d/XtYD7pqYNWt2+eflTS/VoEGDtGzZLFOnzqjQ7vPWXrtRfvGLE3LKKReVb7vooh+nSZPGNaqpdesWy6ljrbRoUXUdn302Pz//+ZUZMOCNGp1reYtMX3rp9TXq5/NmzZqd0tLSWrdbVgB1ww13lj9Aryv/+tcjmThxSpo2bZJTTvn2co+fNq32oUhNFvJe2qq4J1fElltunN69903fvs9mzJhxOeWUi2vVfkWuVbLyIeTnvfvuB/nxj39TYSq5Zant7wsAgP8dAgsAACrZdNOu5Z/fe+/DOut3WQth19bddz9W4eeBA9/K9ttvscrr+Pvf7y8PK7p33zpHH31QttiiW9q0aZW1126U+vUXz7p64om/yhtvvJuVWE95mUpLF5V/Puyw/XPMMV+vUbuGDVfffwJMmTI9t932UJLkBz/4Ztq0abXcNkvWldhttx1y5pnfW4XVLVaX9+SK+PWvT8uGG3bKHXf0rXUAseRatWrVIn36XFLjdp06tavVeZZlwYIF+eUvr87MmZ+kQYMG+da3Ds7ee++ULl06pkWLZuVTlX388YQcdtjpSVZukXEAAL7cBBYAAFSy8cYbpFWrFpkxY1beeOPdzJ49J82arbNCfbVo0az88/JGayxcWJqZM2dXavd5Dz/8dJ59dvG0Qk2brpNPP52Tv//9/uy++w7LXI9gieU9GF64sLT8bfql6ygrK8tDD/VPkuyww5bp0+fi8oDi85Z8j+Xp0+eS9OixTbX7L774T1UulNyyZcW6NtmkS43OtywXXXR6evfuVe3+G2+8OzfddE+N+7v++tszd+68dOrULsce27tGbVq2bJ7Jk6dl4cKFdfKdqrIq7skVVb9+/Xz/+4fn+OMPy4QJkzNnzrwKIdewYSOrHYWzZCTUnDlzs9FGnbLWWtVPc7aqvPbaOykpmZgk+eUvT6yw5sfS6np0CgAAX04W3QYAoJJ69erlkEP2SbJ4Ad0lD+lXRKNGDdOlS4ckyTvvvL/MY99778MsXLgwSbLxxlU/rP744wm5+uq/lx/zr39dmebNm6a0tDS//vV1mTt33nJrGjHiwyxcWP10Su+/PzoLFlSuY+bM2eUPuPfbb7dqw4o5c+bmo4/GLbeOldGwYcN067ZBkqzQgs2r2vDho/Lvfy9eDP2MM767zEXBl7b55hslSYYN+yALFixYJbXV9T1ZF+rVq5cOHdpl4427ZJNN/vu/jh2rHw2x5FrNn7+gfD2L1W3UqLHlnw84YPdqjxs2rJj6AABYswgsAACo0rHHHlK++O+NN96d0aM/rlG7RYsWpV+/Fyps23nn7ZIsfri5rAfESwcjS9osrbS0NBde+MfMmTMvjRo1zGWX/SQbbNAh5513cpJk7NgJufrqW5Zb48yZs/Pii4Or3f/II89UWcfSa0bMm1d9MPLQQ0+v0PoStbX33jslSUaPLskrr9RsTY3V5ZprbsmiRYvyla9smf33363G7fbaq0eSZPbsOXnkkWdXVXl1dk8Wac89e5RPaXXHHY8WUsPSwV91YeGiRYtWKvQEAOB/h8ACAIAqtWvXJr/4xQlJFj+IPOmkC/P660OX2WbUqLE544zL8s9/Plxh+5FHfrV8NMJvf9sns2fPqdR24MA388gjTydJtt5602y99SaVjvn73+/P22+/lyQ57bRjy9faOPDA3XPwwXslWfyA+bnnBi33+/3hD7dWOR3Q668PzQMPPJVk8aLIS9fRunWLNG/eNEnyxBMvZf78yiMAhg4dmT596nbh6uocc8zXs846ixcav+SS6/PBB2OWefxLL72e998fvcrrev75QRkyZFjq1auXs876fq3aHnLIvll//bZJkuuuuy1Dhiz7nnvzzXeXe19Wpa7uySJ17dop+++/a5LkySdfzr/+9cgyjy8pmZjHH3+xTmtYMlIlSR59tOqA6c9/vj3Dh4+q0/MCAPDlZA0LAACqdeihvTJp0tT06XNXpk2bmZNPvjC77LJ99t5752y0Uac0a9Y0s2bNzpgx4/LSS0PyyitvpLR0UTbbrGuFfjbZZMMcd1zv/POfD2fEiNH5znd+nuOPPyybb75R5s79LC++ODh33fVYSksXpWHDBjn//JMr1fLOO+/n5pvvS5LsvPO2Oe64imsinHvuiXnzzXczfvzkXH75Ddl2282qXeR5s826ZtSoj/Pd7/483//+N7P11ptmwYIFefnlIbnjjkdTWlqatdZaK+eee0KFdvXr189BB+2Ze+99PO+//1FOOOGCHHts73Tp0iGzZ8/Jyy8PyX33PZEmTRqnbdt1M2bMqp0Wqk2bVrn44jNy7rlXZcqU6fne987NIYfsk912657112+ThQsXZuLEqRk6dGSefvqVlJRMzB/+cF6FRdVXhREjRidJDj54r1o/5G/UqGF+97tzcvLJF2bOnHk59dSLc+CBe2TvvXdOp07tsmhRWaZMmZ7hwz/Is8++mpEjx+TnP/9Rdtxx61qdpy7uyS+CX/7ypAwb9kFKSibm2mtvywsvvJavfW3vbLxxlzRs2CAzZ36S99//KAMGvJHBg9/JPvvsnIMO2rPOzr/rrl/Juuu2zLRpM3PDDXdm3LjJ2XffndOqVYuMHTshDz30VAYN+k+2336LL+TUZQAAfLEILAAAWKYTTjgq3bptkGuvvS3jxk3KwIFvZeDAt6o9vlu3DXLmmd+ttP2MM76TefM+y733Pp6PP56Qyy/vU+mYZs3Wye9+d0753PxLzJ07LxdeeF1KS0vTokWzXHzxGeVT4Szd9tJLz8zJJ1+U6dNn5dJLr891111QZY2bbdY1Rx99cK644q+58sqbK+1v2LBBLr74jCoX8D799GPz1lvvZcSIDzNs2Af51a+urbC/ZctmufLKn6VPn7tXeWCRJL167ZKrrz43l1zy58ycOTv33/9k7r//ySqPrV+/fpo0WXuV15QkjRuvnR//+LgVarvttpvlxhsvzS9/eXUmTpySfv1eqDTN2NKaNl2xBeFX5p78omjZsnn+9rfLc955V+eNN97NkCHDMmTIsGqPX9FrVZ0mTRrnkkvOyM9+dmU++2x+HnjgyTzwQMX7b8cdt84vfnFCvvWts+r03AAAfPkILAAAWK5evXbJnnvumKefHpiXXx6SYcNGZvr0Wfn007lp1qxJOnRol2233Sz77bdLdtxxm0phQrL4Yfm5556YAw/cPQ888FTeeGNYpk2bmYYNG6ZTp/Wz++475NhjD0nr1i0rtb3mmlsyZsz4JMl5552Udu3aVFnnDjtsleOPPyy33PJAXn55SO699/EcddRBVR572GH7Z+ONu+SOO/rmzTeHZ8aMWWndukV22mm7HH/8YeULWn9es2ZN8/e/X55//atv+vd/OWPHTshaa9XP+uu3zR57dM8xxxyS9devur5VZa+9dsrDD9+Qhx7qn5dfHpJRo8Zm5szZWWut+mnbtlW6ddsgPXpsm/322zXt27ddLTV997vfqPb3VBPbbrtZHnzwz+nb99m8+OLgvPfeh5kxY1bq16+fVq1aZKONOqV7963Tq9cu6dq10wqdY2XuyS+Stm1b56abLstLL72eJ554KW+//V6mTp2RhQtL07z5Otlggw7ZbrvNs9dePdK9e+1GotTErrvukH/84/9y660PZvDgdzJ9+qw0b75ONtpogxx88J75xjf2y4QJU+r8vAAAfPnUKysrKyu6CADWfJ07d05JSUk6dWqfjz8eWHQ5AFXq3fuUjB8/OYccsk8uvviMossBgDVe5867pKRkQjp16pSPP/646HIAWMNZdBsAAAAAACicwAIAAAAAACicwAIAAAAAACicwAIAAAAAACicwAIAAAAAAChcg6ILAACA1aVv3z5FlwAAAEA1jLAAAAAAAAAKJ7AAAAAAAAAKJ7AAAAAAAAAKJ7AAAAAAAAAKJ7AAAAAAAAAKJ7AAAAAAAAAKJ7AAAAAAAAAKJ7AAAAAAAAAKJ7AAAAAAAAAKJ7AAAAAAAAAKJ7AAAAAAAAAKJ7AAAAAAAAAKJ7AAAAAAAAAKJ7AAAAAAAAAKJ7AAAAAAAAAKJ7AAAAAAAAAKJ7AAAAAAAAAKJ7AAAAAAAAAKJ7AAAAAAAAAKJ7AAAAAAAAAKJ7AAAAAAAAAKJ7AAAAAAAAAKJ7AAAAAAAAAKJ7AAAAAAAAAKJ7AAAAAAAAAKJ7AAAAAAAAAKJ7AAAAAAAAAKJ7AAAAAAAAAKJ7AAAAAAAAAKJ7AAAAAAAAAKJ7AAAAAAAAAKJ7AAAAAAAAAKJ7AAAAAAAAAKJ7AAAAAAAAAKJ7AAAAAAAAAKJ7AAAAAAAAAKJ7AAAAAAAAAKJ7AAAAAAAAAKJ7AAAAAAAAAKJ7AAAAAAAAAKJ7AAAAAAAAAKJ7AAAAAAAAAKJ7AAAAAAAAAKJ7AAAAAAAAAKJ7AAAAAAAAAKJ7AAAAAAAAAKJ7AAAAAAAAAKJ7AAAAAAAAAKJ7AAAAAAAAAKJ7AAAAAAAAAKJ7AAAAAAAAAKJ7AAAAAAAAAKJ7AAAAAAAAAKJ7AAAAAAAAAKJ7AAAAAAAAAKJ7AAAAAAAAAKJ7AAAAAAAAAKJ7AAAAAAAAAKJ7AAAAAAAAAKJ7AAAAAAAAAKJ7AAAAAAAAAKJ7AAAAAAAAAKJ7AAAAAAAAAKJ7AAAAAAAAAKJ7AAAAAAAAAKJ7AAAAAAAAAK16DoAgD4chk/flI6d96l6DIAAIDVYPz4SUWXAMCXiMACgDq1aNGilJRMKLoMAAAAANYwAgsA6kT79u2LLgEAACiI/x4AoC7UKysrKyu6CAAAAAAA4H+bRbcBAIAV9thjj2XDDTfMhhtumMcee6zocgAAgDWYERYAAMAKWbRoUTp37pzx48cnSTp27JixY8emfn3vRQEAALUnsAAAAFbI5MmT065duwrbJk2alPXWW6+gigAAgDWZV5/g/7V3t7Fa3/Udx78HDpS7AhYEChSKQKWllN45BZZKNSta62LcYo32Sd1tnGHGzpttbRcf1E0Ni6Y1bjXptHWaZVljdEtqY7MuKkUlLStIC6WlyE0PLcihBzgHzum59mAGuTinnAMFPpz29Xr2/53//7q+POLmze//AwAAAAAgTrAAAAAAAADiBAsAAAAAACBOsAAAAAAAAOIECwAAAAAAIE6wAAAAAAAA4gQLAAAAAAAgTrAAAAAAAADiBAsAAAAAACBOsAAAAAAAAOIECwAAAAAAIE6wAAAAAAAA4gQLAAAAAAAgTrAAAAAAAADiBAsAAAAAACBOsAAAAAAAAOIECwAAAAAAIE6wAAAAAAAA4gQLAAAAAAAgTrAAAAAAAADiBAsAAAAAACBOsAAAAAAAAOIECwAAAAAAIE6wAAAAAAAA4gQLAAAAAAAgTrAAAAAAAADiBAsAAAAAACBOsAAAAAAAAOIECwAAAAAAIE6wAAAAAAAA4gQLAAAAAAAgTrAAAAAAAADiBAsAAAAAACBOsAAAAAAAAOIECwAAAAAAIE6wAAAAAAAA4gQLAAAAAAAgTrAAAAAAAADiBAsAAAAAACBOsAAAAAAAAOIECwAAAAAAIE6wAAAABtTV1VUrV66sRYsW1R133FGNRuNV7200GnX77bfXokWLauXKldXV1XUWJwUAAIaq1vQAAADAue/ee++tu+++u6qqNmzYUFOnTq2bb76533vvueeeuuuuu47eO2/evFq5cuVZmxUAABia7LAAAAAG9NJLLzVd33XXXdXZ2dnnvs7OzvrCF77QtLZnz54zOhsAAPD6IFgAAAADuvHGG5uu29ra6oEHHuhz3/33319tbW1Na+9973vP6GwAAMDrQ0vjRC+fBQAA+I0VK1bUww8/fPR6ypQp9eKLLzbdc/zaihUr6qGHHjprMwIAAEOXYAEAAAzK6tWra9myZSf9zJIlS87QRAAAwOuJV0IBAACDsnTp0rrhhhsGff+KFSvECgAAYNDssAAAAAbtZHZZ2F0BAACcDDssAACAQRvsLgu7KwAAgJNlhwUAAHBSBrPLwu4KAADgZNlhAQAAnJSBdlnYXQEAAJwKOywAAICTdqJdFnZXAAAAp8IOCwAA4KQtXbq0li9f3mf9+uuvFysAAIBTIlgAAACn5M477xzUGgAAwGB4JRQAAHDKFi1aVBs2bKiqqssvv7zWr18fnggAABiqBAsAAOCU9fT01H333VdVVR/72MeqtbU1PBEAADBUCRYAAAAAAECcMywAAAAAAIA4wQIAAAAAAIgTLAAAAAAAgDjBAgAAAAAAiBMsAAAAAACAOMECAAAAAACIEywAAAAAAIA4wQIAAAAAAIgTLAAAAAAAgDjBAgAAAAAAiBMsAAAAAACAOMECAAAAAACIEywAAAAAAIA4wQIAAAAAAIgTLAAAAAAAgDjBAgAAAAAAiBMsAAAAAACAOMECAAAAAACIEywAAAAAAIA4wQIAAAAAAIgTLAAAAAAAgDjBAgAAAAAAiBMsAAAAAACAOMECAAAAAACIEywAAAAAAIA4wQIAAAAAAIgTLAAAAAAAgDjBAgAAAAAAiBMsAAAAAACAuNb0AAAAg3XttddWW1tbegwAGFKmTZtWa9euTY8BADAgwQIAGDLa2tpq586d6TEAAACAM0CwAACGnGEtLTVt3Lj0GABwTms7cKB6G430GAAAgyZYAABDzrRx42rjbbelxwCAc9plq1bVro6O9BgAAIPm0G0AAAAAACBOsAAAAAAAAOIECwAAAAAAIE6wAAAAAAAA4gQLAAAAAAAgTrAAAAAAAADiBAsAAAAAACBOsAAAAAAAAOIECwAAAAAAIE6wAAAAAAAA4gQLAAAAAAAgTrAAAAAAAADiBAsAAAAAACBOsAAAAAAAAOIECwAAAAAAIE6wAAAAAAAA4gQLAAAAAAAgTrAAAAAAAADiBAsAAAAAACBOsAAAAAAAAOIECwAAAAAAIE6wAAAAAAAA4gQLAAAAAAAgTrAAAAAAAADiBAsAAAAAACBOsAAAAAAAAOIECwAAAAAAIE6wAAAAAAAA4gQLAAAAAAAgTrAAAAAAAADiBAsAAAAAACBOsAAAAAAAAOIECwAAAAAAIE6wAAAAAAAA4gQLAAAAAAAgTrAAAAAAAADiBAsAAAAAACBOsAAAAAAAAOIECwAAAAAAIE6wAAAAAAAA4gQLAAAAAAAgTrAAAAAAAADiBAsAAAAAACBOsAAAAAAAAOIECwAAAAAAIK41PQAAAFD1rU2b6v7Nm5vWFk+aVP+4dOmrPvO1DRvqwa1bm9aGVdVfX311vWvGjDMxJgAAwBljhwUAAAxB39y0qU+sqKr6yyuuECsAAIAhSbAAAIAh5t+ffbYeOG43RlXVn112Wd00e3ZgIgAAgNdOsAAAgCHkv7Ztq3/auLHP+i3z59eH5s4NTAQAAHB6CBYAADBEPLprV33lySf7rH9wzpy6dcGCwEQAAACnj0O3AQBgCPjZ7t31948/Xr3Hrb/noovq4wsXDvj8K7299T8vvFCr29pqU3t7tR85Ut29vTVuxIiaMXZsXTlpUt04a1ZNHTPmVT/jIz/6Ue3u7Gxae+T972+6XrdnT9322GNNazfMnFmfveqqV/3c5zs66ofbt9eTe/dW26FDdaC7u0a3ttbU0aPrqsmT66bZs2vmuHGv+vynVq+u/927t2ntX9/97pp2zK+l7dCh+ugjjzTdM9Ch5gAAwNklWAAAwDnuyb176/Nr11ZPo9G0ft2FF9anFi+ulpaWEz7/9L59ddfjj9euQ4f6/Gzf4cO17/Dh2vDrX9d3t2ypD82dW7cuWFDDB/jM06Grp6fu3rChfrh9ezWO+1lHd3d1dHfXlpdfrge3bq2bfzPXsLMwFwAAkCFYAADAOWxTe3vd/vOf1+He5r0VvzNlSv3t1VcPGBae3Lu3PrNmTXX3Hr83o69XGo367pYt9cKhQ3XHNde8prkHcuSVV+qv1qypp/btG9Rc39mypX59+HB9+sorz+hcAABAjjMsAADgHPViZ2d9bs2aOtjT07Q+trW17rzmmmodduI/zh/s7q7Pr13bJ1aMaW2t5dOn102zZ9ec88/v89yju3bV959//jXPfyL/vHFjn1gxvKWl3vbmN9dNs2fX26dM6RNjHtq+vX60Y8cZnQsAAMixwwIAAM5RL/TzCqeqqoM9PfWDbdvqQ3PnnvD57z3/fLUfOdK0NmXUqPrKsmVHz6poNBr19Y0b6z+ee67pvm8/80y9b9asGj5AFDkVL3V21n9u29a0NmnUqFq1ZElddMxZFc/u31+fXL26Dh0TbO7fvLneNWOGV0MBAMDrkB0WAAAwBP3L00/Xto6OE97zkxde6LN264IFTQdrt7S01J9cemm96bzzmu7b29VVT7e3n5ZZj7d69+4+53HcMn9+U6yoqpo7YUJdP31609rOgwdry/79Z2QuAAAgyw4LAAAYgo709tYX162ru5ct63cXxCu9vf3+w/7bp07tszZi2LC6evLkemTnzqb1p9vba+EFF5xwjnf/4AcnOXn1e27FV9evr6+uXz+o5zfu21eXTJx40t8LAACc2+ywAACAc9yUUaPq04sX1/EvQdrU3l7f2bKl32de7u6u44/ZPm/YsJowcmT/3zF6dJ+19sOHT2Hage0/7jVVJ2vfGZoLAADIEiwAAOAcNnHkyPrSkiX1nlmz6vcvvrjPz7+9efMb7hVJnccdQg4AALw+eCUUAACco8a2ttaX3vGOo2c7/Omll9bal16qnQcPHr2np9Gof3jiifr6ddfViGNeDTV+xIgaVtW0y+Jwb2/tP3Kk310WL3Z29lmbeNy5Fv354Jw5TdcvdXXVj/s5O6Ppc/v5/usuvLAmjxo14PdVVV0xadKg7gMAAIYWwQIAAM5R8yZMqLkTJhy9HtXaWp+98sr65E9/2hQitnZ01Lc2bao/vvTSo2vDhw2reRMm1Objdl/8fPfu+r2LLmpa6+7trcf37Onz/QsGcU7EX1x+edP1uj17BgwWb504sR7esaNpbd748fXRSy4Z8PteaTRqeMvxL8cCAABeD7wSCgAAhpCFF1xQfzh3bp/1f3v22dp43GHWv3vhhX3uu+/pp5t2UzQajfrGU0/1ORdi0nnnDSpYnIolU6f2iQ7ffuaZWt3W1u/9vY1Gbdy3r77+y1/WJ3784zMyEwAAkGeHBQAADDG3vvWt9bPdu2vbgQNH13objfriE0/Uve98Z503fHhVVX3g4ovrweeeq/ZjDrl+saur/ujRR+vtU6bUuBEj6pf79tVzL7/c5ztuueSSGj7szPz/pqljxtT7Zs2q72/bdnTtSG9v3fGLX9SsceNq7vjxNX7kyOrs6andnZ313MsvV0d39/8/28/h4P15YPPmGtP627/uHOrn3IudBw/W1zZsqKqqD8yZUzPGjn0tvywAAOA1EiwAAGCIGTl8eH3uqqvqEz/5Sb3SaBxd33HwYH3jqafqE795TdPYESPq7669tj6zZk119/72JVKHenrqv3ftetXPXz59er8HfJ9Of75wYT2zf3891d7etP6rAwfqV8eEmFP10PbtA96zp6urHty6taqqlk2bJlgAAECYV0IBAMAQdMnEifWR+fP7rH9v69Zad8x5FFdMmlRfWbq0po8ZM+BnDm9pqQ/Pm1d/c/XVp3XW/pw3fHh9ecmSunHWrEH/paS1paWumjz5jM4FAADk2GEBAABD1C3z59ea3bvrmWMO1m5U1ZfXratvLF9+9JVIC970pvrm9dfXo7t21erdu2tTe3u1Hz5c3b29NW7EiJo5dmwtnjy53jdrVk0dRNg4XUa3ttZtixfXh+fNqx9u317r9+6tHQcPHn3909jW1po2ZkzNGT++rpw0qd42ZUpNGDnyrM0HAACcXS2NxjF7yAEAzmEzZ86snTt31vTzz6+Nt92WHgcYwtbt2VO3PfbY0etVS5bUlXZv8Dpz2apVtaujo2bMmFE7duxIjwMAMCCvhAIAAAAAAOIECwAAAAAAIE6wAAAAAAAA4hy6DQAAvOHMGDu2Pr5wYdM1AACQJVgAAABvOG8ePbr+4C1vSY8BAAAcwyuhAAAAAACAOMECAAAAAACIEywAAAAAAIA4wQIAAAAAAIgTLAAAAAAAgDjBAgAAAAAAiBMsAAAAAACAOMECAAAAAACIEywAAAAAAIA4wQIAAAAAAIgTLAAAAAAAgDjBAgAAAAAAiBMsAAAAAACAOMECAAAAAACIEywAAAAAAIA4wQIAAAAAAIgTLAAAAAAAgDjBAgAAAAAAiBMsAAAAAACAOMECAAAAAACIEywAAAAAAIA4wQIAAAAAAIgTLAAAAAAAgDjBAgAAAAAAiBMsAAAAAACAOMECAAAAAACIEywAAAAAAIA4wQIAAAAAAIgTLAAAAAAAgDjBAgAAAAAAiBMsAAAAAACAOMECAAAAAACIEywAAAAAAIA4wQIAAAAAAIgTLAAAAAAAgDjBAgAAAAAAiBMsAAAAAACAOMECAAAAAACIEywAAAAAAIA4wQIAAAAAAIgTLAAAAAAAgDjBAgAAAAAAiBMsAAAAAACAuNb0AAAAJ6vtwIG6bNWq9BgAcE5rO3AgPQIAwEkRLACAIae30ahdHR3pMQAAAIDTSLAAAIaMadOmpUcAgCHH758AwFDR0mg0GukhAAAAAACANzaHbgMAAAAAAHGCBQAAAAAAECdYAAAAAAAAcYIFAAAAAAAQJ1gAAAAAAABxggUAAAAAABAnWAAAAAAAAHGCBQAAAAAAECdYAAAAAAAAcYIFAAAAAAAQJ1gAAAAAAABxggUAAAAAABAnWAAAAAAAAHGCBQAAAAAAECdYAAAAAAAAcYIFAAAAAAAQJ1gAAAAAAABxggUAAAAAABAnWAAAAAAAAHGCBQAAAAAAECdYAAAAAAAAcYIFAAAAAAAQJ1gAAAAAAABxggUAAAAAABAnWAAAAAAAAHGCBQAAAAAAECdYAAAAAAAAcYIFAAAAAAAQJ1gAAAAAAABxggUAAAAAABAnWAAAAAAAAHGCBQAAAAAAECdYAAAAAAAAcYIFAAAAAAAQJ1gAAAAAAABxggUAAAAAABAnWAAAAAAAAHGCBQAAAAAAECdYAAAAAAAAcYIFAAAAAAAQJ1gAAAAAAABxggUAAAAAABAnWAAAAAAAAHGCBQAAAAAAECdYAAAAAAAAcYIFAAAAAAAQJ1gAAAAAAABxggUAAAAAABAnWAAAAAAAAHGCBQAAAAAAECdYAAAAAAAAcYIFAAAAAAAQJ1gAAAAAAABxggUAAAAAABAnWAAAAAAAAHGCBQAAAAAAECdYAAAAAAAAcYIFAAAAAAAQJ1gAAAAAAABxggUAAAAAABAnWAAAAAAAAHGCBQAAAAAAECdYAAAAAAAAcYIFAAAAAAAQJ1gAAAAAAABxggUAAAAAABAnWAAAAAAAAHGCBQAAAAAAECdYAAAAAAAAcYIFAAAAAAAQJ1gAAAAAAABxggUAAAAAABAnWAAAAAAAAHGCBQAAAAAAECdYAAAAAAAAcYIFAAAAAAAQJ1gAAAAAAABxggUAAAAAABAnWAAAAAAAAHGCBQAAAAAAECdYAAAAAAAAcYIFAAAAAAAQJ1gAAAAAAABxggUAAAAAABAnWAAAAAAAAHGCBQAAAAAAECdYAAAAAAAAcYIFAAAAAAAQJ1gAAAAAAABxggUAAAAAABAnWAAAAAAAAHGCBQAAAAAAECdYAAAAAAAAcYIFAAAAAAAQJ1gAAAAAAABxggUAAAAAABAnWAAAAAAAAHGCBQAAAAAAECdYAAAAAAAAcYIFAAAAAAAQJ1gAAAAAAABxggUAAAAAABAnWAAAAAAAAHGCBQAAAAAAECdYAAAAAAAAcYIFAAAAAAAQJ1gAAAAAAABxggUAAAAAABAnWAAAAAAAAHGCBQAAAAAAECdYAAAAAAAAcYIFAAAAAAAQJ1gAAAAAAABxggUAAAAAABAnWAAAAAAAAHGCBQAAAAAAECdYAAAAAAAAcYIFAAAAAAAQJ1gAAAAAAABxggUAAAAAABAnWAAAAAAAAHGCBQAAAAAAECdYAAAAAAAAcYIFAAAAAAAQJ1gAAAAAAABxggUAAAAAABAnWAAAAAAAAHGCBQAAAAAAECdYAAAAAAAAcYIFAAAAAAAQJ1gAAAAAAABxggUAAAAAABAnWAAAAAAAAHGCBQAAAAAAECdYAAAAAAAAcYIFAAAAAAAQJ1gAAAAAAABxggUAAAAAABAnWAAAAAAAAHGCBQAAAAAAECdYAAAAAAAAcYIFAAAAAAAQJ1gAAAAAAABxggUAAAAAABAnWAAAAAAAAHGCBQAAAAAAECdYAAAAAAAAcYIFAAAAAAAQJ1gAAAAAAABxggUAAAAAABAnWAAAAAAAAHGCBQAAAAAAECdYAAAAAAAAcYIFAAAAAAAQJ1gAAAAAAABxggUAAAAAABAnWAAAAAAAAHGCBQAAAAAAECdYAAAAAAAAcYIFAAAAAAAQJ1gAAAAAAABxggUAAAAAABAnWAAAAAAAAHGCBQAAAAAAECdYAAAAAAAAcYIFAAAAAAAQJ1gAAAAAAABxggUAAAAAABAnWAAAAAAAAHGCBQAAAAAAECdYAAAAAAAAcYIFAAAAAAAQJ1gAAAAAAABxggUAAAAAABAnWAAAAAAAAHGCBQAAAAAAECdYAAAAAAAAcYIFAAAAAAAQJ1gAAAAAAABxggUAAAAAABAnWAAAAAAAAHGCBQAAAAAAECdYAAAAAAAAcYIFAAAAAAAQJ1gAAAAAAABxggUAAAAAABAnWAAAAAAAAHGCBQAAAAAAECdYAAAAAAAAcYIFAAAAAAAQJ1gAAAAAAABxggUAAAAAABAnWAAAAAAAAHGCBQAAAAAAECdYAAAAAAAAcYIFAAAAAAAQJ1gAAAAAAABxggUAAAAAABAnWAAAAAAAAHGCBQAAAAAAECdYAAAAAAAAcYIFAAAAAAAQJ1gAAAAAAABxggUAAAAAABAnWAAAAAAAAHGCBQAAAAAAECdYAAAAAAAAcYIFAAAAAAAQJ1gAAAAAAABxggUAAAAAABAnWAAAAAAAAHGCBQAAAAAAECdYAAAAAAAAcYIFAAAAAAAQJ1gAAAAAAABxggUAAAAAABAnWAAAAAAAAHGCBQAAAAAAECdYAAAAAAAAcYIFAAAAAAAQJ1gAAAAAAABxggUAAAAAABAnWAAAAAAAAHGCBQAAAAAAECdYAAAAAAAAcYIFAAAAAAAQJ1gAAAAAAABxggUAAAAAABAnWAAAAAAAAHGCBQAAAAAAECdYAAAAAAAAcYIFAAAAAAAQJ1gAAAAAAABxggUAAAAAABAnWAAAAAAAAHGCBQAAAAAAECdYAAAAAAAAcYIFAAAAAAAQJ1gAAAAAAABxggUAAAAAABAnWAAAAAAAAHGCBQAAAAAAECdYAAAAAAAAcYIFAAAAAAAQJ1gAAAAAAABxggUAAAAAABAnWAAAAAAAAHGCBQAAAAAAECdYAAAAAAAAcYIFAAAAAAAQJ1gAAAAAAABxggUAAAAAABAnWAAAAAAAAHGCBQAAAAAAECdYAAAAAAAAcYIFAAAAAAAQJ1gAAAAAAABxggUAAAAAABAnWAAAAAAAAHGCBQAAAAAAECdYAAAAAAAAcYIFAAAAAAAQJ1gAAAAAAABxggUAAAAAABAnWAAAAAAAAHGCBQAAAAAAECdYAAAAAAAAcYIFAAAAAAAQJ1gAAAAAAABxggUAAAAAABAnWAAAAAAAAHGCBQAAAAAAECdYAAAAAAAAcYIFAAAAAAAQJ1gAAAAAAABxggUAAAAAABAnWAAAAAAAAHGCBQAAAAAAECdYAAAAAAAAcYIFAAAAAAAQJ1gAAAAAAABxggUAAAAAABAnWAAAAAAAAHGCBQAAAAAAECdYAAAAAAAAcYIFAAAAAAAQJ1gAAAAAAABxggUAAAAAABAnWAAAAAAAAHGCBQAAAAAAECdYAAAAAAAAcYIFAAAAAAAQJ1gAAAAAAABxggUAAAAAABAnWAAAAAAAAHGCBQAAAAAAECdYAAAAAAAAcYIFAAAAAAAQJ1gAAAAAAABxggUAAAAAABAnWAAAAAAAAHGCBQAAAAAAECdYAAAAAAAAcYIFAAAAAAAQJ1gAAAAAAABxggUAAAAAABAnWAAAAAAAAHGCBQAAAAAAECdYAAAAAAAAcYIFAAAAAAAQJ1gAAAAAAABxggUAAAAAABAnWAAAAAAAAHGCBQAAAAAAECdYAAAAAAAAcYIFAAAAAAAQJ1gAAAAAAABxggUAAAAAABAnWAAAAAAAAHGCBQAAAAAAECdYAAAAAAAAcYIFAAAAAAAQJ1gAAAAAAABxggUAAAAAABAnWAAAAAAAAHGCBQAAAAAAECdYAAAAAAAAcYIFAAAAAAAQJ1gAAAAAAABxggUAAAAAABAnWAAAAAAAAHGCBQAAAAAAECdYAAAAAAAAcYIFAAAAAAAQJ1gAAAAAAABxggUAAAAAABAnWAAAAAAAAHGCBQAAAAAAECdYAAAAAAAAcYIFAAAAAAAQJ1gAAAAAAABxggUAAAAAABAnWAAAAAAAAHGCBQAAAAAAECdYAAAAAAAAcYIFAAAAAAAQJ1gAAAAAAABxggUAAAAAABAnWAAAAAAAAHGCBQAAAAAAECdYAAAAAAAAcYIFAAAAAAAQJ1gAAAAAAABxggUAAAAAABAnWAAAAAAAAHGCBQAAAAAAECdYAAAAAAAAcYIFAAAAAAAQJ1gAAAAAAABxggUAAAAAABAnWAAAAAAAAHGCBQAAAAAAECdYAAAAAAAAcYIFAAAAAAAQJ1gAAAAAAABxggUAAAAAABAnWAAAAAAAAHGCBQAAAAAAECdYAAAAAAAAcYIFAAAAAAAQJ1gAAAAAAABxggUAAAAAABAnWAAAAAAAAHGCBQAAAAAAECdYAAAAAAAAcYIFAAAAAAAQJ1gAAAAAAABxggUAAAAAABAnWAAAAAAAAHGCBQAAAAAAECdYAAAAAAAAcYIFAAAAAAAQJ1gAAAAAAABxggUAAAAAABAnWAAAAAAAAHGCBQAAAAAAECdYAAAAAAAAcYIFAAAAAAAQJ1gAAAAAAABxggUAAAAAABAnWAAAAAAAAHGCBQAAAAAAECdYAAAAAAAAcYIFAAAAAAAQJ1gAAAAAAABxggUAAAAAABAnWAAAAAAAAHGCBQAAAAAAECdYAAAAAAAAcYIFAAAAAAAQJ1gAAAAAAABxggUAAAAAABAnWAAAAAAAAHGCBQAAAAAAECdYAAAAAAAAcYIFAAAAAAAQJ1gAAAAAAABxggUAAAAAABAnWAAAAAAAAHGCBQAAAAAAECdYAAAAAAAAcYIFAAAAAAAQJ1gAAAAAAABxggUAAAAAABAnWAAAAAAAAHGCBQAAAAAAECdYAAAAAAAAcYIFAAAAAAAQJ1gAAAAAAABxggUAAAAAABAnWAAAAAAAAHGCBQAAAAAAECdYAAAAAAAAcYIFAAAAAAAQJ1gAAAAAAABxggUAAAAAABAnWAAAAAAAAHGCBQAAAAAAECdYAAAAAAAAcYIFAAAAAAAQJ1gAAAAAAABxggUAAAAAABAnWAAAAAAAAHGCBQAAAAAAECdYAAAAAAAAcYIFAAAAAAAQJ1gAAAAAAABxggUAAAAAABAnWAAAAAAAAHGCBQAAAAAAECdYAAAAAAAAcYIFAAAAAAAQJ1gAAAAAAABxggUAAAAAABAnWAAAAAAAAHGCBQAAAAAAECdYAAAAAAAAcYIFAAAAAAAQJ1gAAAAAAABxggUAAAAAABAnWAAAAAAAAHGCBQAAAAAAECdYAAAAAAAAcYIFAAAAAAAQJ1gAAAAAAABxggUAAAAAABAnWAAAAAAAAHGCBQAAAAAAECdYAAAAAAAAcYIFAAAAAAAQJ1gAAAAAAABxggUAAAAAABAnWAAAAAAAAHGCBQAAAAAAECdYAAAAAAAAcYIFAAAAAAAQJ1gAAAAAAABxggUAAAAAABAnWAAAAAAAAHGCBQAAAAAAECdYAAAAAAAAcYIFAAAAAAAQJ1gAAAAAAABxggUAAAAAABAnWAAAAAAAAHGCBQAAAAAAECdYAAAAAAAAcYIFAAAAAAAQJ1gAAAAAAABxggUAAAAAABAnWAAAAAAAAHGCBQAAAAAAECdYAAAAAAAAcYIFAAAAAAAQJ1gAAAAAAABxggUAAAAAABAnWAAAAAAAAHGCBQAAAAAAECdYAAAAAAAAcYIFAAAAAAAQJ1gAAAAAAABxggUAAAAAABAnWAAAAAAAAHGCBQAAAAAAECdYAAAAAAAAcYIFAAAAAAAQJ1gAAAAAAABxggUAAAAAABAnWAAAAAAAAHGCBQAAAAAAECdYAAAAAAAAcYIFAAAAAAAQJ1gAAAAAAABxggUAAAAAABAnWAAAAAAAAHGCBQAAAAAAECdYAAAAAAAAcYIFAAAAAAAQJ1gAAAAAAABxggUAAAAAABAnWAAAAAAAAHGCBQAAAAAAECdYAAAAAAAAcYIFAAAAAAAQJ1gAAAAAAABxggUAAAAAABAnWAAAAAAAAHGCBQAAAAAAECdYAAAAAAAAcYIFAAAAAAAQJ1gAAAAAAABxggUAAAAAABAnWAAAAAAAAHGCBQAAAAAAECdYAAAAAAAAcYIFAAAAAAAQJ1gAAAAAAABxggUAAAAAABAnWAAAAAAAAHGCBQAAAAAAECdYAAAAAAAAcYIFAAAAAAAQJ1gAAAAAAABxggUAAAAAABAnWAAAAAAAAHGCBQAAAAAAECdYAAAAAAAAcYIFAAAAAAAQJ1gAAAAAAABxggUAAAAAABAnWAAAAAAAAHGCBQAAAAAAECdYAAAAAAAAcYIFAAAAAAAQJ1gAAAAAAABxggUAAAAAABAnWAAAAAAAAHGCBQAAAAAAECdYAAAAAAAAcf8HpTfD+cnvrKgAAAAASUVORK5CYII=;" parent="1" vertex="1">
          <mxGeometry x="817" y="360" width="383.03" height="479.75" as="geometry" />
        </mxCell>
      </root>
    </mxGraphModel>
  </diagram>
  <diagram id="wwiXI7GZxLHRumWdePBz" name="работа13">
    <mxGraphModel dx="802" dy="1005" grid="1" gridSize="10" guides="1" tooltips="1" connect="1" arrows="1" fold="1" page="1" pageScale="1" pageWidth="1200" pageHeight="1920" math="0" shadow="0">
      <root>
        <mxCell id="0" />
        <mxCell id="1" parent="0" />
        <mxCell id="8Tbq25aiJCFoSrrkxDy0-1" value="пользователь" style="rounded=0;whiteSpace=wrap;html=1;" vertex="1" parent="1">
          <mxGeometry x="150" y="310" width="120" height="60" as="geometry" />
        </mxCell>
        <mxCell id="8Tbq25aiJCFoSrrkxDy0-6" style="edgeStyle=orthogonalEdgeStyle;rounded=0;orthogonalLoop=1;jettySize=auto;html=1;" edge="1" parent="1" source="8Tbq25aiJCFoSrrkxDy0-2">
          <mxGeometry relative="1" as="geometry">
            <mxPoint x="210" y="360" as="targetPoint" />
          </mxGeometry>
        </mxCell>
        <mxCell id="8Tbq25aiJCFoSrrkxDy0-2" value="Администратор" style="rounded=0;whiteSpace=wrap;html=1;" vertex="1" parent="1">
          <mxGeometry x="150" y="470" width="120" height="60" as="geometry" />
        </mxCell>
        <mxCell id="8Tbq25aiJCFoSrrkxDy0-7" style="edgeStyle=orthogonalEdgeStyle;rounded=0;orthogonalLoop=1;jettySize=auto;html=1;entryX=0.5;entryY=1;entryDx=0;entryDy=0;" edge="1" parent="1" source="8Tbq25aiJCFoSrrkxDy0-3" target="8Tbq25aiJCFoSrrkxDy0-1">
          <mxGeometry relative="1" as="geometry">
            <Array as="points">
              <mxPoint x="90" y="340" />
              <mxPoint x="140" y="340" />
              <mxPoint x="140" y="410" />
              <mxPoint x="210" y="410" />
            </Array>
          </mxGeometry>
        </mxCell>
        <mxCell id="8Tbq25aiJCFoSrrkxDy0-14" style="edgeStyle=orthogonalEdgeStyle;rounded=0;orthogonalLoop=1;jettySize=auto;html=1;entryX=0.5;entryY=1;entryDx=0;entryDy=0;" edge="1" parent="1" source="8Tbq25aiJCFoSrrkxDy0-3" target="8Tbq25aiJCFoSrrkxDy0-10">
          <mxGeometry relative="1" as="geometry">
            <Array as="points">
              <mxPoint x="280" y="430" />
              <mxPoint x="280" y="480" />
              <mxPoint x="670" y="480" />
            </Array>
          </mxGeometry>
        </mxCell>
        <mxCell id="8Tbq25aiJCFoSrrkxDy0-15" style="edgeStyle=orthogonalEdgeStyle;rounded=0;orthogonalLoop=1;jettySize=auto;html=1;entryX=0.5;entryY=0;entryDx=0;entryDy=0;" edge="1" parent="1" source="8Tbq25aiJCFoSrrkxDy0-3" target="8Tbq25aiJCFoSrrkxDy0-8">
          <mxGeometry relative="1" as="geometry">
            <Array as="points">
              <mxPoint x="280" y="430" />
              <mxPoint x="280" y="260" />
              <mxPoint x="620" y="260" />
            </Array>
          </mxGeometry>
        </mxCell>
        <mxCell id="8Tbq25aiJCFoSrrkxDy0-3" value="преподаватель" style="rounded=0;whiteSpace=wrap;html=1;" vertex="1" parent="1">
          <mxGeometry x="10" y="400" width="120" height="60" as="geometry" />
        </mxCell>
        <mxCell id="8Tbq25aiJCFoSrrkxDy0-5" style="edgeStyle=orthogonalEdgeStyle;rounded=0;orthogonalLoop=1;jettySize=auto;html=1;entryX=0.5;entryY=1;entryDx=0;entryDy=0;" edge="1" parent="1" source="8Tbq25aiJCFoSrrkxDy0-4" target="8Tbq25aiJCFoSrrkxDy0-1">
          <mxGeometry relative="1" as="geometry" />
        </mxCell>
        <mxCell id="8Tbq25aiJCFoSrrkxDy0-11" style="edgeStyle=orthogonalEdgeStyle;rounded=0;orthogonalLoop=1;jettySize=auto;html=1;entryX=0;entryY=0.5;entryDx=0;entryDy=0;" edge="1" parent="1" source="8Tbq25aiJCFoSrrkxDy0-4" target="8Tbq25aiJCFoSrrkxDy0-8">
          <mxGeometry relative="1" as="geometry" />
        </mxCell>
        <mxCell id="8Tbq25aiJCFoSrrkxDy0-4" value="студент" style="rounded=0;whiteSpace=wrap;html=1;" vertex="1" parent="1">
          <mxGeometry x="300" y="400" width="120" height="60" as="geometry" />
        </mxCell>
        <mxCell id="8Tbq25aiJCFoSrrkxDy0-12" style="edgeStyle=orthogonalEdgeStyle;rounded=0;orthogonalLoop=1;jettySize=auto;html=1;exitX=0.5;exitY=1;exitDx=0;exitDy=0;entryX=0.5;entryY=0;entryDx=0;entryDy=0;" edge="1" parent="1" source="8Tbq25aiJCFoSrrkxDy0-8" target="8Tbq25aiJCFoSrrkxDy0-9">
          <mxGeometry relative="1" as="geometry" />
        </mxCell>
        <mxCell id="8Tbq25aiJCFoSrrkxDy0-8" value="курс" style="rounded=0;whiteSpace=wrap;html=1;" vertex="1" parent="1">
          <mxGeometry x="450" y="280" width="120" height="60" as="geometry" />
        </mxCell>
        <mxCell id="8Tbq25aiJCFoSrrkxDy0-13" style="edgeStyle=orthogonalEdgeStyle;rounded=0;orthogonalLoop=1;jettySize=auto;html=1;entryX=0;entryY=0.5;entryDx=0;entryDy=0;" edge="1" parent="1" source="8Tbq25aiJCFoSrrkxDy0-9" target="8Tbq25aiJCFoSrrkxDy0-10">
          <mxGeometry relative="1" as="geometry" />
        </mxCell>
        <mxCell id="8Tbq25aiJCFoSrrkxDy0-9" value="задание" style="rounded=0;whiteSpace=wrap;html=1;" vertex="1" parent="1">
          <mxGeometry x="450" y="390" width="120" height="60" as="geometry" />
        </mxCell>
        <mxCell id="8Tbq25aiJCFoSrrkxDy0-10" value="отчет" style="rounded=0;whiteSpace=wrap;html=1;" vertex="1" parent="1">
          <mxGeometry x="610" y="390" width="120" height="60" as="geometry" />
        </mxCell>
      </root>
    </mxGraphModel>
  </diagram>
</mxfile>
